*
G04 Mass Parameters ***
*
G04 Image ***
*
%IND:\ORCAD_G\PROJET_ORCAD9\HUGO\CARTE WIFI 2011\CARTE WIFI 2011.SMT*%
%ICAS*%
%MOIN*%
%IPPOS*%
%ASAXBY*%
G74*%FSLAN2X34Y34*%
*
G04 Aperture Definitions ***
*
%ADD10R,0.0787X0.0236*%
%ADD11R,0.0640X0.0630*%
%ADD12R,0.0630X0.0640*%
%ADD13C,0.0800*%
%ADD14R,0.0800X0.0800*%
%ADD15C,0.1000*%
%ADD16C,0.0500*%
%ADD17C,0.0850*%
%ADD18R,0.0850X0.0850*%
%ADD19C,0.0750*%
%ADD20R,0.0750X0.0750*%
%ADD21C,0.1300*%
%ADD22R,0.1300X0.1300*%
%ADD23R,0.0700X0.0250*%
%ADD24C,0.0100*%
%ADD25C,0.0800*%
%ADD26C,0.0250*%
%ADD27C,0.0800*%
%ADD28C,0.0300*%
%ADD29C,0.0150*%
%ADD30C,0.0140*%
%ADD31C,0.0140*%
%ADD32C,0.0800*%
%ADD33R,0.0800X0.0800*%
%ADD34C,0.1000*%
%ADD35C,0.0500*%
%ADD36C,0.0850*%
%ADD37R,0.0850X0.0850*%
%ADD38C,0.0750*%
%ADD39R,0.0750X0.0750*%
%ADD40C,0.1300*%
%ADD41R,0.1300X0.1300*%
%ADD42R,0.0789X0.0236*%
%ADD43R,0.0640X0.0630*%
%ADD44R,0.0630X0.0640*%
%ADD45R,0.0750X0.0300*%
%ADD46C,0.0550*%
%ADD47C,0.0550*%
*
G04 Plot Data ***
*
G54D24*
G01X0029000Y0002000D02*
Y0048500D01*
X0003000D01*
Y0002000D01*
X0029000D01*
G54D32*
X0007000Y0011000D03*
Y0010000D03*
Y0009000D03*
Y0008000D03*
Y0007000D03*
X0017000Y0045000D03*
X0016000D03*
X0015000D03*
X0014000D03*
X0019000Y0027000D03*
Y0028000D03*
Y0029000D03*
Y0030000D03*
Y0031000D03*
Y0032000D03*
Y0033000D03*
Y0034000D03*
Y0035000D03*
Y0036000D03*
Y0037000D03*
Y0038000D03*
Y0039000D03*
Y0040000D03*
Y0041000D03*
Y0042000D03*
Y0043000D03*
Y0044000D03*
Y0045000D03*
Y0007000D03*
Y0008000D03*
Y0009000D03*
Y0010000D03*
Y0011000D03*
Y0012000D03*
Y0013000D03*
Y0014000D03*
Y0015000D03*
Y0016000D03*
Y0017000D03*
Y0018000D03*
Y0019000D03*
Y0020000D03*
Y0021000D03*
Y0022000D03*
Y0023000D03*
Y0024000D03*
Y0025000D03*
X0010000Y0024000D03*
Y0023000D03*
Y0022000D03*
Y0021000D03*
Y0020000D03*
Y0019000D03*
Y0018000D03*
Y0017000D03*
Y0016000D03*
Y0015000D03*
Y0014000D03*
Y0013000D03*
Y0012000D03*
Y0011000D03*
Y0010000D03*
Y0009000D03*
Y0008000D03*
Y0007000D03*
Y0006000D03*
Y0044000D03*
Y0043000D03*
Y0042000D03*
Y0041000D03*
Y0040000D03*
Y0039000D03*
Y0038000D03*
Y0037000D03*
Y0036000D03*
Y0035000D03*
Y0034000D03*
Y0033000D03*
Y0032000D03*
Y0031000D03*
Y0030000D03*
Y0029000D03*
Y0028000D03*
Y0027000D03*
Y0026000D03*
X0007000Y0027000D03*
Y0026000D03*
Y0025000D03*
Y0024000D03*
Y0023000D03*
Y0022000D03*
Y0021000D03*
Y0020000D03*
X0006500Y0015000D03*
G54D33*
X0007000Y0012000D03*
X0018000Y0045000D03*
X0019000Y0026000D03*
Y0006000D03*
X0010000Y0025000D03*
Y0045000D03*
X0007000Y0028000D03*
X0006500Y0014000D03*
G54D34*
X0026500Y0004750D03*
X0026000Y0044000D03*
X0005500D03*
X0002250Y0001250D03*
X0003000Y0002000D03*
X0005000Y0005000D03*
X0029250Y0049000D03*
G54D35*
X0024014Y0036808D03*
X0024998Y0012204D03*
G54D36*
X0021000Y0012500D03*
Y0017500D03*
X0008000Y0015000D03*
Y0020000D03*
X0011000Y0007000D03*
Y0006000D03*
X0021000Y0007000D03*
Y0006000D03*
X0012000Y0045000D03*
X0011000D03*
X0007000Y0034000D03*
Y0033000D03*
G54D37*
X0011000Y0008000D03*
X0021000D03*
X0013000Y0045000D03*
X0007000Y0035000D03*
G54D38*
X0016500Y0007000D03*
X0007000Y0030000D03*
G54D39*
X0017500Y0007000D03*
X0007000Y0031000D03*
G54D40*
X0025000Y0007000D03*
G54D41*
Y0009000D03*
G54D42*
X0026378Y0013000D03*
X0023622D03*
X0026378Y0013394D03*
X0023622D03*
X0026378Y0013787D03*
X0023622D03*
X0026378Y0014181D03*
X0023622D03*
X0026378Y0014575D03*
X0023622D03*
X0026378Y0014968D03*
X0023622D03*
X0026378Y0015362D03*
X0023622D03*
X0026378Y0015756D03*
X0023622D03*
X0026378Y0016150D03*
X0023622D03*
X0026378Y0016543D03*
X0023622D03*
X0026378Y0016937D03*
X0023622D03*
X0026378Y0017331D03*
X0023622D03*
X0026378Y0017724D03*
X0023622D03*
X0026378Y0018118D03*
X0023622D03*
X0026378Y0018512D03*
X0023622D03*
X0026378Y0019299D03*
X0023622D03*
X0026378Y0019693D03*
X0023622D03*
X0026378Y0020087D03*
X0023622D03*
X0026378Y0020480D03*
X0023622D03*
X0026378Y0020874D03*
X0023622D03*
X0026378Y0021268D03*
X0023622D03*
X0026378Y0021661D03*
X0023622D03*
X0026378Y0022055D03*
X0023622D03*
X0026378Y0022449D03*
X0023622D03*
X0026378Y0022842D03*
X0023622D03*
X0026378Y0023236D03*
X0023622D03*
X0026378Y0023630D03*
X0023622D03*
X0026378Y0024024D03*
X0023622D03*
X0026378Y0024417D03*
X0023622D03*
X0026378Y0024811D03*
X0023622D03*
X0026378Y0025598D03*
X0023622D03*
X0026378Y0025992D03*
X0023622D03*
X0026378Y0026386D03*
X0023622D03*
X0026378Y0026779D03*
X0023622D03*
X0026378Y0027173D03*
X0023622D03*
X0026378Y0027567D03*
X0023622D03*
X0026378Y0027961D03*
X0023622D03*
X0026378Y0028354D03*
X0023622D03*
X0026378Y0028748D03*
X0023622D03*
X0026378Y0029142D03*
X0023622D03*
X0026378Y0029535D03*
X0023622D03*
X0026378Y0029929D03*
X0023622D03*
X0026378Y0030323D03*
X0023622D03*
X0026378Y0030716D03*
X0023622D03*
X0026378Y0031110D03*
X0023622D03*
X0026378Y0031504D03*
X0023622D03*
X0026378Y0031898D03*
X0023622D03*
X0026378Y0032291D03*
X0023622D03*
X0026378Y0032685D03*
X0023622D03*
X0026378Y0033079D03*
X0023622D03*
X0026378Y0033472D03*
X0023622D03*
X0026378Y0033866D03*
X0023622D03*
X0026378Y0034260D03*
X0023622D03*
X0026378Y0034653D03*
X0023622D03*
X0026378Y0035047D03*
X0023622D03*
X0026378Y0035441D03*
X0023622D03*
X0026378Y0035835D03*
X0023622D03*
X0026378Y0036228D03*
X0023622D03*
X0026673Y0013000D03*
X0023327D03*
X0026673Y0013394D03*
X0023327D03*
X0026673Y0013787D03*
X0023327D03*
X0026673Y0014181D03*
X0023327D03*
X0026673Y0014575D03*
X0023327D03*
X0026673Y0014968D03*
X0023327D03*
X0026673Y0015362D03*
X0023327D03*
X0026673Y0015756D03*
X0023327D03*
X0026673Y0016150D03*
X0023327D03*
X0026673Y0016543D03*
X0023327D03*
X0026673Y0016937D03*
X0023327D03*
X0026673Y0017331D03*
X0023327D03*
X0026673Y0017724D03*
X0023327D03*
X0026673Y0018118D03*
X0023327D03*
X0026673Y0018512D03*
X0023327D03*
X0026673Y0019299D03*
X0023327D03*
X0026673Y0019693D03*
X0023327D03*
X0026673Y0020087D03*
X0023327D03*
X0026673Y0020480D03*
X0023327D03*
X0026673Y0020874D03*
X0023327D03*
X0026673Y0021268D03*
X0023327D03*
X0026673Y0021661D03*
X0023327D03*
X0026673Y0022055D03*
X0023327D03*
X0026673Y0022449D03*
X0023327D03*
X0026673Y0022842D03*
X0023327D03*
X0026673Y0023236D03*
X0023327D03*
X0026673Y0023630D03*
X0023327D03*
X0026673Y0024024D03*
X0023327D03*
X0026673Y0024417D03*
X0023327D03*
X0026673Y0024811D03*
X0023327D03*
X0026673Y0025598D03*
X0023327D03*
X0026673Y0025992D03*
X0023327D03*
X0026673Y0026386D03*
X0023327D03*
X0026673Y0026779D03*
X0023327D03*
X0026673Y0027173D03*
X0023327D03*
X0026673Y0027567D03*
X0023327D03*
X0026673Y0027961D03*
X0023327D03*
X0026673Y0028354D03*
X0023327D03*
X0026673Y0028748D03*
X0023327D03*
X0026673Y0029142D03*
X0023327D03*
X0026673Y0029535D03*
X0023327D03*
X0026673Y0029929D03*
X0023327D03*
X0026673Y0030323D03*
X0023327D03*
X0026673Y0030716D03*
X0023327D03*
X0026673Y0031110D03*
X0023327D03*
X0026673Y0031504D03*
X0023327D03*
X0026673Y0031898D03*
X0023327D03*
X0026673Y0032291D03*
X0023327D03*
X0026673Y0032685D03*
X0023327D03*
X0026673Y0033079D03*
X0023327D03*
X0026673Y0033472D03*
X0023327D03*
X0026673Y0033866D03*
X0023327D03*
X0026673Y0034260D03*
X0023327D03*
X0026673Y0034653D03*
X0023327D03*
X0026673Y0035047D03*
X0023327D03*
X0026673Y0035441D03*
X0023327D03*
X0026673Y0035835D03*
X0023327D03*
X0026673Y0036228D03*
X0023327D03*
G54D43*
X0012428Y0038973D03*
X0013778D03*
G54D44*
X0012000Y0023000D03*
Y0024350D03*
X0013000Y0023000D03*
Y0024350D03*
X0014000Y0020000D03*
Y0021350D03*
Y0023000D03*
Y0024350D03*
G54D45*
X0015025Y0040500D03*
Y0041000D03*
Y0041500D03*
Y0042000D03*
X0012975D03*
Y0041500D03*
Y0041000D03*
Y0040500D03*
G54D46*
X0019000Y0006000D03*
G54D47*
X0021950Y0013910D03*
X0008750Y0008500D03*
X0005750Y0034750D03*
X0012250Y0037500D03*
X0015250Y0020000D03*
X0012220Y0007290D03*
X0020040Y0005100D03*
X0014810Y0004960D03*
X0006000Y0009000D03*
X0008130Y0027340D03*
X0021900Y0020440D03*
X0021000Y0018750D03*
X0008000Y0011000D03*
X0027713Y0013787D03*
X0015560Y0010780D03*
X0022000Y0005500D03*
X0021750Y0016750D03*
X0011690Y0041660D03*
X0008500Y0026000D03*
M02*
