*
G04 Mass Parameters ***
*
G04 Image ***
*
%IND:\ORCAD_G\PROJET_ORCAD9\HUGO\CARTE WIFI 2011\CARTE WIFI 2011.AST*%
%ICAS*%
%MOIN*%
%IPPOS*%
%ASAXBY*%
G74*%FSLAN2X34Y34*%
*
G04 Aperture Definitions ***
*
%ADD10R,0.0787X0.0236*%
%ADD11R,0.0640X0.0630*%
%ADD12R,0.0630X0.0640*%
%ADD13C,0.0800*%
%ADD14R,0.0800X0.0800*%
%ADD15C,0.1000*%
%ADD16C,0.0500*%
%ADD17C,0.0850*%
%ADD18R,0.0850X0.0850*%
%ADD19C,0.0750*%
%ADD20R,0.0750X0.0750*%
%ADD21C,0.1300*%
%ADD22R,0.1300X0.1300*%
%ADD23R,0.0700X0.0250*%
%ADD24C,0.0100*%
%ADD25C,0.0800*%
%ADD26C,0.0250*%
%ADD27C,0.0800*%
%ADD28C,0.0300*%
%ADD29C,0.0150*%
%ADD30C,0.0140*%
%ADD31C,0.0140*%
%ADD32C,0.0800*%
%ADD33R,0.0800X0.0800*%
%ADD34C,0.1000*%
%ADD35C,0.0500*%
%ADD36C,0.0850*%
%ADD37R,0.0850X0.0850*%
%ADD38C,0.0750*%
%ADD39R,0.0750X0.0750*%
%ADD40C,0.1300*%
%ADD41R,0.1300X0.1300*%
%ADD42R,0.0789X0.0236*%
%ADD43R,0.0640X0.0630*%
%ADD44R,0.0630X0.0640*%
%ADD45R,0.0750X0.0300*%
%ADD46C,0.0550*%
%ADD47C,0.0550*%
%ADD48C,0.0080*%
%ADD49C,0.0118*%
%ADD50C,0.0197*%
%ADD51C,0.0040*%
%ADD52C,0.0098*%
%ADD53C,0.0070*%
*
G04 Plot Data ***
*
G54D24*
G01X0029000Y0002000D02*
Y0048500D01*
X0003000D01*
Y0002000D01*
X0029000D01*
G54D48*
G01X0005999Y0009754D02*
Y0009551D01*
X0005931Y0009517D01*
X0005863D01*
X0005796Y0009551D01*
Y0009754D01*
X0005863Y0009788D01*
X0005931D01*
X0006202Y0009652D01*
Y0009982D02*
X0005796D01*
X0005863Y0010049D01*
X0006135Y0010185D01*
X0006202Y0010253D01*
X0005796D01*
Y0010684D02*
X0005863Y0010718D01*
X0006135D01*
X0006202Y0010684D01*
Y0010481D01*
X0006135Y0010447D01*
X0005863D01*
X0005796Y0010481D01*
Y0010684D01*
X0005863Y0010912D02*
X0005796Y0010946D01*
Y0011149D01*
X0005863Y0011183D01*
X0006135D01*
X0006202Y0011149D01*
Y0010946D01*
X0006135Y0010912D01*
X0008363Y0010117D02*
X0008296Y0010049D01*
Y0009914D01*
X0008363Y0009846D01*
X0008431D01*
X0008567Y0009982D01*
X0008702Y0009846D01*
Y0010117D01*
X0008363Y0010582D02*
X0008296Y0010514D01*
Y0010379D01*
X0008363Y0010311D01*
X0008431D01*
X0008567Y0010447D01*
X0008702Y0010311D01*
Y0010582D01*
X0008431Y0011013D02*
X0008363D01*
X0008296Y0010979D01*
Y0010844D01*
X0008363Y0010810D01*
X0008702D01*
Y0010776D02*
Y0010912D01*
X0024605Y0036040D02*
X0024494D01*
X0024549D02*
Y0036373D01*
X0024494Y0036318D01*
X0024250Y0036373D02*
Y0036040D01*
X0024195Y0036096D01*
X0024084Y0036318D01*
X0024028Y0036373D01*
Y0036040D01*
X0023646D02*
X0023618Y0036096D01*
Y0036318D01*
X0023646Y0036373D01*
X0023812D01*
X0023840Y0036318D01*
Y0036096D01*
X0023812Y0036040D01*
X0023646D01*
X0023430Y0036096D02*
X0023402Y0036040D01*
X0023236D01*
X0023208Y0036096D01*
Y0036318D01*
X0023236Y0036373D01*
X0023402D01*
X0023430Y0036318D01*
X0024306Y0036151D02*
X0024083D01*
X0024195Y0036373D01*
X0024250D01*
Y0036040D01*
X0023896D02*
X0023785D01*
X0023840D02*
Y0036373D01*
X0023785Y0036318D01*
X0023347Y0036151D02*
Y0036096D01*
X0023375Y0036040D01*
X0023486D01*
X0023514Y0036096D01*
Y0036373D01*
X0023541D02*
X0023430D01*
X0025067Y0011492D02*
X0025123Y0011436D01*
X0025234D01*
X0025290Y0011492D01*
Y0011547D01*
X0025179Y0011658D01*
X0025290Y0011769D01*
X0025067D01*
X0024880Y0011436D02*
X0024769D01*
X0024824D02*
Y0011769D01*
X0024769Y0011714D01*
X0024331Y0011547D02*
Y0011492D01*
X0024359Y0011436D01*
X0024470D01*
X0024498Y0011492D01*
Y0011769D01*
X0024525D02*
X0024414D01*
X0025589Y0011436D02*
X0025478D01*
X0025533D02*
Y0011769D01*
X0025478Y0011714D01*
X0025234Y0011769D02*
Y0011436D01*
X0025179Y0011492D01*
X0025068Y0011714D01*
X0025012Y0011769D01*
Y0011436D01*
X0024630D02*
X0024602Y0011492D01*
Y0011714D01*
X0024630Y0011769D01*
X0024796D01*
X0024824Y0011714D01*
Y0011492D01*
X0024796Y0011436D01*
X0024630D01*
X0024414Y0011492D02*
X0024386Y0011436D01*
X0024220D01*
X0024192Y0011492D01*
Y0011714D01*
X0024220Y0011769D01*
X0024386D01*
X0024414Y0011714D01*
X0021796Y0007164D02*
Y0007299D01*
Y0007232D02*
X0022202D01*
X0022135Y0007299D01*
X0021863Y0007832D02*
X0021796Y0007764D01*
Y0007629D01*
X0021863Y0007561D01*
X0021931D01*
X0022067Y0007697D01*
X0022202Y0007561D01*
Y0007832D01*
X0021931Y0008263D02*
X0021863D01*
X0021796Y0008229D01*
Y0008094D01*
X0021863Y0008060D01*
X0022202D01*
Y0008026D02*
Y0008162D01*
X0019769Y0006708D02*
X0019721Y0006660D01*
Y0006564D01*
X0019769Y0006517D01*
X0019817D01*
X0019912Y0006612D01*
X0020008Y0006517D01*
Y0006708D01*
Y0006892D02*
X0019721D01*
X0019769Y0006939D01*
X0019960Y0007035D01*
X0020008Y0007083D01*
X0019721D01*
Y0007434D02*
X0019769Y0007458D01*
X0019960D01*
X0020008Y0007434D01*
Y0007291D01*
X0019960Y0007267D01*
X0019769D01*
X0019721Y0007291D01*
Y0007434D01*
X0019769Y0007642D02*
X0019721Y0007666D01*
Y0007809D01*
X0019769Y0007833D01*
X0019960D01*
X0020008Y0007809D01*
Y0007666D01*
X0019960Y0007642D01*
X0011796Y0007096D02*
Y0007367D01*
X0012067Y0007096D01*
X0012135D01*
X0012202Y0007130D01*
Y0007333D01*
X0012135Y0007367D01*
X0011863Y0007832D02*
X0011796Y0007764D01*
Y0007629D01*
X0011863Y0007561D01*
X0011931D01*
X0012067Y0007697D01*
X0012202Y0007561D01*
Y0007832D01*
X0011931Y0008263D02*
X0011863D01*
X0011796Y0008229D01*
Y0008094D01*
X0011863Y0008060D01*
X0012202D01*
Y0008026D02*
Y0008162D01*
X0011112Y0022993D02*
X0011167Y0023021D01*
Y0023188D01*
X0011112Y0023215D01*
X0011001D01*
X0010945Y0023160D01*
Y0022993D01*
X0010834D01*
Y0023215D01*
X0011001Y0022722D02*
X0011167Y0022805D01*
X0011001Y0022583D02*
Y0022750D01*
X0010945Y0022805D01*
X0010889D01*
X0010834Y0022750D01*
Y0022583D01*
X0011167D01*
X0009769Y0006708D02*
X0009721Y0006660D01*
Y0006564D01*
X0009769Y0006517D01*
X0009817D01*
X0009912Y0006612D01*
X0010008Y0006517D01*
Y0006708D01*
Y0006892D02*
X0009721D01*
X0009769Y0006939D01*
X0009960Y0007035D01*
X0010008Y0007083D01*
X0009721D01*
Y0007434D02*
X0009769Y0007458D01*
X0009960D01*
X0010008Y0007434D01*
Y0007291D01*
X0009960Y0007267D01*
X0009769D01*
X0009721Y0007291D01*
Y0007434D01*
X0009769Y0007642D02*
X0009721Y0007666D01*
Y0007809D01*
X0009769Y0007833D01*
X0009960D01*
X0010008Y0007809D01*
Y0007666D01*
X0009960Y0007642D01*
X0013001Y0023813D02*
X0013167Y0023897D01*
X0013001Y0023674D02*
Y0023841D01*
X0012945Y0023897D01*
X0012890D01*
X0012834Y0023841D01*
Y0023674D01*
X0013167D01*
Y0023348D02*
X0013112Y0023292D01*
X0013056Y0023264D01*
X0012945D01*
X0012890Y0023292D01*
X0012834Y0023348D01*
Y0023403D01*
X0012890Y0023459D01*
X0012945Y0023487D01*
X0013056D01*
X0013112Y0023459D01*
X0013167Y0023403D01*
Y0023348D01*
Y0022910D02*
X0012834Y0023077D01*
Y0022854D01*
X0013056Y0022667D02*
Y0022444D01*
X0012834Y0022555D01*
Y0022611D01*
X0013167D01*
X0014167Y0023785D02*
X0014001Y0023619D01*
X0013834Y0023785D01*
Y0023563D02*
X0014167D01*
Y0023375D02*
Y0023153D01*
X0013945Y0023375D01*
X0013890D01*
X0013834Y0023348D01*
Y0023181D01*
X0013890Y0023153D01*
X0014167Y0022910D02*
Y0022965D01*
X0014112D01*
Y0022910D01*
X0014167D01*
Y0022667D02*
Y0022444D01*
X0013945Y0022667D01*
X0013890D01*
X0013834Y0022639D01*
Y0022472D01*
X0013890Y0022444D01*
X0013112Y0019993D02*
X0013167Y0020049D01*
Y0020160D01*
X0013112Y0020215D01*
X0013056D01*
X0012945Y0020104D01*
X0012834Y0020215D01*
Y0019993D01*
X0013001Y0019722D02*
X0013167Y0019805D01*
X0013001Y0019583D02*
Y0019750D01*
X0012945Y0019805D01*
X0012889D01*
X0012834Y0019750D01*
Y0019583D01*
X0013167D01*
X0015167Y0020431D02*
X0015001Y0020264D01*
X0014834Y0020431D01*
Y0020209D02*
X0015167D01*
Y0019882D02*
X0015112Y0019827D01*
X0015056Y0019799D01*
X0014945D01*
X0014890Y0019827D01*
X0014834Y0019882D01*
Y0019938D01*
X0014890Y0019993D01*
X0014945Y0020021D01*
X0015056D01*
X0015112Y0019993D01*
X0015167Y0019938D01*
Y0019882D01*
Y0019611D02*
Y0019500D01*
Y0019555D02*
X0014834D01*
X0014890Y0019500D01*
X0013167Y0023215D02*
Y0022993D01*
X0012945Y0023215D01*
X0012889D01*
X0012834Y0023188D01*
Y0023021D01*
X0012889Y0022993D01*
X0013112Y0022805D02*
X0013167Y0022778D01*
Y0022611D01*
X0013112Y0022583D01*
X0012889D01*
X0012834Y0022611D01*
Y0022778D01*
X0012889Y0022805D01*
X0015001Y0023813D02*
Y0023647D01*
X0015167D02*
X0014834D01*
Y0023869D01*
X0015279Y0023264D02*
X0014945D01*
Y0023431D01*
X0015001Y0023459D01*
X0015112D01*
X0015167Y0023431D01*
Y0023264D01*
Y0022910D02*
X0014834Y0023077D01*
Y0022854D01*
X0015056Y0022667D02*
Y0022444D01*
X0014834Y0022555D01*
Y0022611D01*
X0015167D01*
X0023182Y0007453D02*
Y0007876D01*
X0023604Y0007453D01*
X0023710D01*
X0023815Y0007506D01*
Y0007823D01*
X0023710Y0007876D01*
X0023815Y0008088D02*
X0023182D01*
X0023288Y0008194D01*
X0023710Y0008405D01*
X0023815Y0008511D01*
X0023182D01*
Y0009093D02*
X0023288Y0009146D01*
X0023710D01*
X0023815Y0009093D01*
Y0008776D01*
X0023710Y0008723D01*
X0023288D01*
X0023182Y0008776D01*
Y0009093D01*
X0023288Y0009358D02*
X0023182Y0009411D01*
Y0009728D01*
X0023288Y0009781D01*
X0023710D01*
X0023815Y0009728D01*
Y0009411D01*
X0023710Y0009358D01*
X0016016Y0043704D02*
X0016083Y0043636D01*
X0016117Y0043569D01*
Y0043433D01*
X0016083Y0043365D01*
X0016016Y0043298D01*
X0015948D01*
X0015880Y0043365D01*
X0015846Y0043433D01*
Y0043569D01*
X0015880Y0043636D01*
X0015948Y0043704D01*
X0016016D01*
X0016582Y0043636D02*
X0016514Y0043704D01*
X0016379D01*
X0016311Y0043636D01*
Y0043569D01*
X0016447Y0043433D01*
X0016311Y0043298D01*
X0016582D01*
X0017013Y0043569D02*
Y0043636D01*
X0016979Y0043704D01*
X0016844D01*
X0016810Y0043636D01*
Y0043298D01*
X0016776D02*
X0016912D01*
X0015788Y0046636D02*
X0015754Y0046704D01*
X0015551D01*
X0015517Y0046636D01*
Y0046501D01*
X0015584Y0046433D01*
X0015788D01*
Y0046298D01*
X0015517D01*
X0015982D02*
Y0046704D01*
X0016049Y0046636D01*
X0016185Y0046365D01*
X0016253Y0046298D01*
Y0046704D01*
X0016684D02*
X0016718Y0046636D01*
Y0046365D01*
X0016684Y0046298D01*
X0016481D01*
X0016447Y0046365D01*
Y0046636D01*
X0016481Y0046704D01*
X0016684D01*
X0016912Y0046636D02*
X0016946Y0046704D01*
X0017149D01*
X0017183Y0046636D01*
Y0046365D01*
X0017149Y0046298D01*
X0016946D01*
X0016912Y0046365D01*
X0012130Y0044001D02*
X0012333D01*
X0012367Y0043933D01*
Y0043865D01*
X0012333Y0043798D01*
X0012130D01*
X0012096Y0043865D01*
Y0043933D01*
X0012232Y0044204D01*
X0012561D02*
X0012832D01*
X0012561Y0043933D01*
Y0043865D01*
X0012595Y0043798D01*
X0012798D01*
X0012832Y0043865D01*
X0013263Y0044069D02*
Y0044136D01*
X0013229Y0044204D01*
X0013094D01*
X0013060Y0044136D01*
Y0043798D01*
X0013026D02*
X0013162D01*
X0011708Y0046231D02*
X0011660Y0046279D01*
X0011564D01*
X0011517Y0046231D01*
Y0046183D01*
X0011612Y0046088D01*
X0011517Y0045992D01*
X0011708D01*
X0011892D02*
Y0046279D01*
X0011939Y0046231D01*
X0012035Y0046040D01*
X0012083Y0045992D01*
Y0046279D01*
X0012434D02*
X0012458Y0046231D01*
Y0046040D01*
X0012434Y0045992D01*
X0012291D01*
X0012267Y0046040D01*
Y0046231D01*
X0012291Y0046279D01*
X0012434D01*
X0012642Y0046231D02*
X0012666Y0046279D01*
X0012809D01*
X0012833Y0046231D01*
Y0046040D01*
X0012809Y0045992D01*
X0012666D01*
X0012642Y0046040D01*
X0021204Y0014723D02*
Y0014452D01*
X0020933Y0014723D01*
X0020865D01*
X0020798Y0014689D01*
Y0014486D01*
X0020865Y0014452D01*
X0021001Y0014156D02*
X0021204Y0014258D01*
X0021001Y0013987D02*
Y0014190D01*
X0020933Y0014258D01*
X0020865D01*
X0020798Y0014190D01*
Y0013987D01*
X0021204D01*
X0016767Y0008204D02*
X0017038D01*
X0016767Y0007933D01*
Y0007865D01*
X0016801Y0007798D01*
X0017004D01*
X0017038Y0007865D01*
X0017232Y0007798D02*
Y0008204D01*
X0017299Y0008136D01*
X0017435Y0007865D01*
X0017503Y0007798D01*
Y0008204D01*
X0017934D02*
X0017968Y0008136D01*
Y0007865D01*
X0017934Y0007798D01*
X0017731D01*
X0017697Y0007865D01*
Y0008136D01*
X0017731Y0008204D01*
X0017934D01*
X0018162Y0008136D02*
X0018196Y0008204D01*
X0018399D01*
X0018433Y0008136D01*
Y0007865D01*
X0018399Y0007798D01*
X0018196D01*
X0018162Y0007865D01*
X0017130Y0006001D02*
X0017096Y0005933D01*
Y0005865D01*
X0017130Y0005798D01*
X0017333D01*
X0017367Y0005865D01*
Y0005933D01*
X0017333Y0006001D01*
X0017130D01*
X0017096Y0006069D01*
Y0006136D01*
X0017130Y0006204D01*
X0017333D01*
X0017367Y0006136D01*
Y0006069D01*
X0017333Y0006001D01*
X0017561Y0006204D02*
X0017832D01*
X0017561Y0005933D01*
Y0005865D01*
X0017595Y0005798D01*
X0017798D01*
X0017832Y0005865D01*
X0018263Y0006069D02*
Y0006136D01*
X0018229Y0006204D01*
X0018094D01*
X0018060Y0006136D01*
Y0005798D01*
X0018026D02*
X0018162D01*
X0022001Y0014849D02*
X0022204Y0014950D01*
X0022001Y0014679D02*
Y0014883D01*
X0021933Y0014950D01*
X0021865D01*
X0021798Y0014883D01*
Y0014679D01*
X0022204D01*
Y0014316D02*
X0022136Y0014248D01*
X0022069Y0014214D01*
X0021933D01*
X0021865Y0014248D01*
X0021798Y0014316D01*
Y0014384D01*
X0021865Y0014452D01*
X0021933Y0014485D01*
X0022069D01*
X0022136Y0014452D01*
X0022204Y0014384D01*
Y0014316D01*
Y0014020D02*
Y0013885D01*
Y0013953D02*
X0021798D01*
X0021865Y0013885D01*
X0020204Y0014779D02*
X0020136Y0014711D01*
X0020069Y0014677D01*
X0019933D01*
X0019865Y0014711D01*
X0019798Y0014779D01*
Y0014847D01*
X0019865Y0014914D01*
X0019933Y0014948D01*
X0020069D01*
X0020136Y0014914D01*
X0020204Y0014847D01*
Y0014779D01*
Y0014483D02*
Y0014212D01*
X0019933Y0014483D01*
X0019865D01*
X0019798Y0014449D01*
Y0014246D01*
X0019865Y0014212D01*
X0019798Y0014018D02*
X0020204D01*
X0020136Y0013950D01*
X0019865Y0013815D01*
X0019798Y0013747D01*
X0020204D01*
Y0013316D02*
X0020136Y0013282D01*
X0019865D01*
X0019798Y0013316D01*
Y0013519D01*
X0019865Y0013553D01*
X0020136D01*
X0020204Y0013519D01*
Y0013316D01*
X0020136Y0013088D02*
X0020204Y0013054D01*
Y0012851D01*
X0020136Y0012817D01*
X0019865D01*
X0019798Y0012851D01*
Y0013054D01*
X0019865Y0013088D01*
X0018069Y0035154D02*
Y0034883D01*
X0017798Y0035018D01*
Y0035086D01*
X0018204D01*
Y0034689D02*
Y0034418D01*
X0017933Y0034689D01*
X0017865D01*
X0017798Y0034655D01*
Y0034452D01*
X0017865Y0034418D01*
X0018069Y0033987D02*
X0018136D01*
X0018204Y0034021D01*
Y0034156D01*
X0018136Y0034190D01*
X0017798D01*
Y0034224D02*
Y0034088D01*
X0020204Y0034779D02*
X0020136Y0034711D01*
X0020069Y0034677D01*
X0019933D01*
X0019865Y0034711D01*
X0019798Y0034779D01*
Y0034847D01*
X0019865Y0034914D01*
X0019933Y0034948D01*
X0020069D01*
X0020136Y0034914D01*
X0020204Y0034847D01*
Y0034779D01*
Y0034483D02*
Y0034212D01*
X0019933Y0034483D01*
X0019865D01*
X0019798Y0034449D01*
Y0034246D01*
X0019865Y0034212D01*
X0019798Y0034018D02*
X0020204D01*
X0020136Y0033950D01*
X0019865Y0033815D01*
X0019798Y0033747D01*
X0020204D01*
Y0033316D02*
X0020136Y0033282D01*
X0019865D01*
X0019798Y0033316D01*
Y0033519D01*
X0019865Y0033553D01*
X0020136D01*
X0020204Y0033519D01*
Y0033316D01*
X0020136Y0033088D02*
X0020204Y0033054D01*
Y0032851D01*
X0020136Y0032817D01*
X0019865D01*
X0019798Y0032851D01*
Y0033054D01*
X0019865Y0033088D01*
X0018136Y0014883D02*
X0018204Y0014951D01*
Y0015086D01*
X0018136Y0015154D01*
X0018069D01*
X0017933Y0015018D01*
X0017798Y0015154D01*
Y0014883D01*
X0018204Y0014689D02*
Y0014418D01*
X0017933Y0014689D01*
X0017865D01*
X0017798Y0014655D01*
Y0014452D01*
X0017865Y0014418D01*
X0018069Y0013987D02*
X0018136D01*
X0018204Y0014021D01*
Y0014156D01*
X0018136Y0014190D01*
X0017798D01*
Y0014224D02*
Y0014088D01*
X0010796Y0035914D02*
Y0036049D01*
Y0035982D02*
X0011202D01*
X0011135Y0036049D01*
X0010796Y0036311D02*
Y0036582D01*
X0011067Y0036311D01*
X0011135D01*
X0011202Y0036345D01*
Y0036548D01*
X0011135Y0036582D01*
X0010931Y0037013D02*
X0010863D01*
X0010796Y0036979D01*
Y0036844D01*
X0010863Y0036810D01*
X0011202D01*
Y0036776D02*
Y0036912D01*
X0012588Y0039806D02*
X0012477D01*
X0012532D02*
Y0040139D01*
X0012477Y0040083D01*
X0012234Y0039861D02*
X0012206Y0039806D01*
X0012039D01*
X0012011Y0039861D01*
Y0040083D01*
X0012039Y0040139D01*
X0012206D01*
X0012234Y0040083D01*
X0005204Y0015655D02*
Y0015519D01*
Y0015587D02*
X0004798D01*
X0004865Y0015519D01*
X0005204Y0015021D02*
X0004798D01*
X0005204Y0014987D02*
Y0015190D01*
X0005069Y0015258D01*
X0004933D01*
X0004798Y0015190D01*
Y0014987D01*
X0028993Y0048099D02*
X0029160D01*
X0029188Y0048044D01*
Y0047988D01*
X0029160Y0047932D01*
X0028993D01*
X0028965Y0047988D01*
Y0048044D01*
X0029076Y0048266D01*
X0028583Y0048044D02*
Y0047988D01*
X0028611Y0047932D01*
X0028722D01*
X0028750Y0047988D01*
Y0048266D01*
X0028778D02*
X0028667D01*
X0029841Y0047932D02*
X0029730D01*
X0029785D02*
Y0048266D01*
X0029730Y0048210D01*
X0029487Y0048266D02*
Y0047932D01*
X0029431Y0047988D01*
X0029320Y0048210D01*
X0029264Y0048266D01*
Y0047932D01*
X0028882D02*
X0028854Y0047988D01*
Y0048210D01*
X0028882Y0048266D01*
X0029049D01*
X0029077Y0048210D01*
Y0047988D01*
X0029049Y0047932D01*
X0028882D01*
X0028667Y0047988D02*
X0028639Y0047932D01*
X0028472D01*
X0028444Y0047988D01*
Y0048210D01*
X0028472Y0048266D01*
X0028639D01*
X0028667Y0048210D01*
X0004771Y0003932D02*
X0004938Y0004266D01*
X0004715D01*
X0004333Y0004044D02*
Y0003988D01*
X0004361Y0003932D01*
X0004472D01*
X0004500Y0003988D01*
Y0004266D01*
X0004528D02*
X0004417D01*
X0005591Y0003932D02*
X0005480D01*
X0005535D02*
Y0004266D01*
X0005480Y0004210D01*
X0005237Y0004266D02*
Y0003932D01*
X0005181Y0003988D01*
X0005070Y0004210D01*
X0005014Y0004266D01*
Y0003932D01*
X0004632D02*
X0004604Y0003988D01*
Y0004210D01*
X0004632Y0004266D01*
X0004799D01*
X0004827Y0004210D01*
Y0003988D01*
X0004799Y0003932D01*
X0004632D01*
X0004417Y0003988D02*
X0004389Y0003932D01*
X0004222D01*
X0004194Y0003988D01*
Y0004210D01*
X0004222Y0004266D01*
X0004389D01*
X0004417Y0004210D01*
X0002910Y0001099D02*
X0002938Y0001155D01*
Y0001210D01*
X0002910Y0001266D01*
X0002743D01*
X0002715Y0001210D01*
Y0001155D01*
X0002743Y0001099D01*
X0002910D01*
X0002938Y0001044D01*
Y0000988D01*
X0002910Y0000932D01*
X0002743D01*
X0002715Y0000988D01*
Y0001044D01*
X0002743Y0001099D01*
X0002333Y0001044D02*
Y0000988D01*
X0002361Y0000932D01*
X0002472D01*
X0002500Y0000988D01*
Y0001266D01*
X0002528D02*
X0002417D01*
X0003591Y0000932D02*
X0003480D01*
X0003535D02*
Y0001266D01*
X0003480Y0001210D01*
X0003237Y0001266D02*
Y0000932D01*
X0003181Y0000988D01*
X0003070Y0001210D01*
X0003014Y0001266D01*
Y0000932D01*
X0002632D02*
X0002604Y0000988D01*
Y0001210D01*
X0002632Y0001266D01*
X0002799D01*
X0002827Y0001210D01*
Y0000988D01*
X0002799Y0000932D01*
X0002632D01*
X0002417Y0000988D02*
X0002389Y0000932D01*
X0002222D01*
X0002194Y0000988D01*
Y0001210D01*
X0002222Y0001266D01*
X0002389D01*
X0002417Y0001210D01*
X0026792Y0003682D02*
X0026570D01*
X0026792Y0003905D01*
Y0003960D01*
X0026764Y0004016D01*
X0026598D01*
X0026570Y0003960D01*
X0026382Y0003682D02*
X0026271D01*
X0026326D02*
Y0004016D01*
X0026271Y0003960D01*
X0025833Y0003794D02*
Y0003738D01*
X0025861Y0003682D01*
X0025972D01*
X0026000Y0003738D01*
Y0004016D01*
X0026028D02*
X0025917D01*
X0027091Y0003682D02*
X0026980D01*
X0027035D02*
Y0004016D01*
X0026980Y0003960D01*
X0026737Y0004016D02*
Y0003682D01*
X0026681Y0003738D01*
X0026570Y0003960D01*
X0026514Y0004016D01*
Y0003682D01*
X0026132D02*
X0026104Y0003738D01*
Y0003960D01*
X0026132Y0004016D01*
X0026299D01*
X0026327Y0003960D01*
Y0003738D01*
X0026299Y0003682D01*
X0026132D01*
X0025917Y0003738D02*
X0025889Y0003682D01*
X0025722D01*
X0025694Y0003738D01*
Y0003960D01*
X0025722Y0004016D01*
X0025889D01*
X0025917Y0003960D01*
X0002160Y0000349D02*
X0001993D01*
X0001965Y0000405D01*
Y0000460D01*
X0001993Y0000516D01*
X0002160D01*
X0002188Y0000460D01*
Y0000405D01*
X0002076Y0000182D01*
X0001583Y0000294D02*
Y0000238D01*
X0001611Y0000182D01*
X0001722D01*
X0001750Y0000238D01*
Y0000516D01*
X0001778D02*
X0001667D01*
X0002841Y0000182D02*
X0002730D01*
X0002785D02*
Y0000516D01*
X0002730Y0000460D01*
X0002487Y0000516D02*
Y0000182D01*
X0002431Y0000238D01*
X0002320Y0000460D01*
X0002264Y0000516D01*
Y0000182D01*
X0001882D02*
X0001854Y0000238D01*
Y0000460D01*
X0001882Y0000516D01*
X0002049D01*
X0002077Y0000460D01*
Y0000238D01*
X0002049Y0000182D01*
X0001882D01*
X0001667Y0000238D02*
X0001639Y0000182D01*
X0001472D01*
X0001444Y0000238D01*
Y0000460D01*
X0001472Y0000516D01*
X0001639D01*
X0001667Y0000460D01*
X0005653Y0042932D02*
X0005598Y0042988D01*
X0005570Y0043044D01*
Y0043155D01*
X0005598Y0043210D01*
X0005653Y0043266D01*
X0005709D01*
X0005764Y0043210D01*
X0005792Y0043155D01*
Y0043044D01*
X0005764Y0042988D01*
X0005709Y0042932D01*
X0005653D01*
X0005382D02*
X0005271D01*
X0005326D02*
Y0043266D01*
X0005271Y0043210D01*
X0004833Y0043044D02*
Y0042988D01*
X0004861Y0042932D01*
X0004972D01*
X0005000Y0042988D01*
Y0043266D01*
X0005028D02*
X0004917D01*
X0006091Y0042932D02*
X0005980D01*
X0006035D02*
Y0043266D01*
X0005980Y0043210D01*
X0005737Y0043266D02*
Y0042932D01*
X0005681Y0042988D01*
X0005570Y0043210D01*
X0005514Y0043266D01*
Y0042932D01*
X0005132D02*
X0005104Y0042988D01*
Y0043210D01*
X0005132Y0043266D01*
X0005299D01*
X0005327Y0043210D01*
Y0042988D01*
X0005299Y0042932D01*
X0005132D01*
X0004917Y0042988D02*
X0004889Y0042932D01*
X0004722D01*
X0004694Y0042988D01*
Y0043210D01*
X0004722Y0043266D01*
X0004889D01*
X0004917Y0043210D01*
X0026236Y0042932D02*
X0026125D01*
X0026181D02*
Y0043266D01*
X0026125Y0043210D01*
X0025882Y0042932D02*
X0025771D01*
X0025826D02*
Y0043266D01*
X0025771Y0043210D01*
X0025333Y0043044D02*
Y0042988D01*
X0025361Y0042932D01*
X0025472D01*
X0025500Y0042988D01*
Y0043266D01*
X0025528D02*
X0025417D01*
X0010796Y0015846D02*
Y0016117D01*
X0011067Y0015846D01*
X0011135D01*
X0011202Y0015880D01*
Y0016083D01*
X0011135Y0016117D01*
X0010796Y0016311D02*
Y0016582D01*
X0011067Y0016311D01*
X0011135D01*
X0011202Y0016345D01*
Y0016548D01*
X0011135Y0016582D01*
X0010931Y0017013D02*
X0010863D01*
X0010796Y0016979D01*
Y0016844D01*
X0010863Y0016810D01*
X0011202D01*
Y0016776D02*
Y0016912D01*
X0005796Y0030267D02*
Y0030538D01*
X0006067Y0030267D01*
X0006135D01*
X0006202Y0030301D01*
Y0030504D01*
X0006135Y0030538D01*
X0006202Y0030732D02*
X0005796D01*
X0005863Y0030799D01*
X0006135Y0030935D01*
X0006202Y0031003D01*
X0005796D01*
Y0031434D02*
X0005863Y0031468D01*
X0006135D01*
X0006202Y0031434D01*
Y0031231D01*
X0006135Y0031197D01*
X0005863D01*
X0005796Y0031231D01*
Y0031434D01*
X0005863Y0031662D02*
X0005796Y0031696D01*
Y0031899D01*
X0005863Y0031933D01*
X0006135D01*
X0006202Y0031899D01*
Y0031696D01*
X0006135Y0031662D01*
X0008796Y0016221D02*
X0008863Y0016289D01*
X0008931Y0016323D01*
X0009067D01*
X0009135Y0016289D01*
X0009202Y0016221D01*
Y0016153D01*
X0009135Y0016086D01*
X0009067Y0016052D01*
X0008931D01*
X0008863Y0016086D01*
X0008796Y0016153D01*
Y0016221D01*
Y0016517D02*
Y0016788D01*
X0009067Y0016517D01*
X0009135D01*
X0009202Y0016551D01*
Y0016754D01*
X0009135Y0016788D01*
X0009202Y0016982D02*
X0008796D01*
X0008863Y0017049D01*
X0009135Y0017185D01*
X0009202Y0017253D01*
X0008796D01*
Y0017684D02*
X0008863Y0017718D01*
X0009135D01*
X0009202Y0017684D01*
Y0017481D01*
X0009135Y0017447D01*
X0008863D01*
X0008796Y0017481D01*
Y0017684D01*
X0008863Y0017912D02*
X0008796Y0017946D01*
Y0018149D01*
X0008863Y0018183D01*
X0009135D01*
X0009202Y0018149D01*
Y0017946D01*
X0009135Y0017912D01*
X0007954Y0015497D02*
X0007548D01*
X0007954Y0015463D02*
Y0015667D01*
X0007819Y0015734D01*
X0007683D01*
X0007548Y0015667D01*
Y0015463D01*
X0007751Y0015202D02*
Y0014998D01*
X0007954Y0015269D02*
Y0014998D01*
X0007548D01*
Y0015269D01*
X0007954Y0014804D02*
Y0014567D01*
X0007548D01*
X0008796Y0036221D02*
X0008863Y0036289D01*
X0008931Y0036323D01*
X0009067D01*
X0009135Y0036289D01*
X0009202Y0036221D01*
Y0036153D01*
X0009135Y0036086D01*
X0009067Y0036052D01*
X0008931D01*
X0008863Y0036086D01*
X0008796Y0036153D01*
Y0036221D01*
Y0036517D02*
Y0036788D01*
X0009067Y0036517D01*
X0009135D01*
X0009202Y0036551D01*
Y0036754D01*
X0009135Y0036788D01*
X0009202Y0036982D02*
X0008796D01*
X0008863Y0037049D01*
X0009135Y0037185D01*
X0009202Y0037253D01*
X0008796D01*
Y0037684D02*
X0008863Y0037718D01*
X0009135D01*
X0009202Y0037684D01*
Y0037481D01*
X0009135Y0037447D01*
X0008863D01*
X0008796Y0037481D01*
Y0037684D01*
X0008863Y0037912D02*
X0008796Y0037946D01*
Y0038149D01*
X0008863Y0038183D01*
X0009135D01*
X0009202Y0038149D01*
Y0037946D01*
X0009135Y0037912D01*
X0013596Y0037972D02*
X0013429D01*
X0013512Y0037805D02*
Y0038083D01*
X0013540Y0038139D01*
X0013596D01*
X0013241Y0037805D02*
Y0037972D01*
X0013214Y0038028D01*
X0013047D01*
Y0037805D01*
X0012720D02*
X0012665Y0037861D01*
X0012637Y0037917D01*
Y0038028D01*
X0012665Y0038083D01*
X0012720Y0038139D01*
X0012776D01*
X0012831Y0038083D01*
X0012859Y0038028D01*
Y0037917D01*
X0012831Y0037861D01*
X0012776Y0037805D01*
X0012720D01*
X0012310D02*
X0012255Y0037861D01*
X0012227Y0037917D01*
Y0038028D01*
X0012255Y0038083D01*
X0012310Y0038139D01*
X0012366D01*
X0012421Y0038083D01*
X0012449Y0038028D01*
Y0037917D01*
X0012421Y0037861D01*
X0012366Y0037805D01*
X0012310D01*
X0012039D02*
X0011928D01*
X0011984D02*
Y0038139D01*
X0011928Y0038083D01*
X0009001Y0017882D02*
X0009204Y0017983D01*
X0009001Y0017712D02*
Y0017915D01*
X0008933Y0017983D01*
X0008865D01*
X0008798Y0017915D01*
Y0017712D01*
X0009204D01*
Y0017349D02*
X0009136Y0017281D01*
X0009069Y0017247D01*
X0008933D01*
X0008865Y0017281D01*
X0008798Y0017349D01*
Y0017417D01*
X0008865Y0017484D01*
X0008933Y0017518D01*
X0009069D01*
X0009136Y0017484D01*
X0009204Y0017417D01*
Y0017349D01*
Y0016850D02*
X0008798Y0017053D01*
Y0016782D01*
X0009069Y0016588D02*
Y0016317D01*
X0008798Y0016453D01*
Y0016520D01*
X0009204D01*
X0005769Y0033708D02*
X0005721Y0033660D01*
Y0033564D01*
X0005769Y0033517D01*
X0005817D01*
X0005912Y0033612D01*
X0006008Y0033517D01*
Y0033708D01*
Y0033892D02*
X0005721D01*
X0005769Y0033939D01*
X0005960Y0034035D01*
X0006008Y0034083D01*
X0005721D01*
Y0034434D02*
X0005769Y0034458D01*
X0005960D01*
X0006008Y0034434D01*
Y0034291D01*
X0005960Y0034267D01*
X0005769D01*
X0005721Y0034291D01*
Y0034434D01*
X0005769Y0034642D02*
X0005721Y0034666D01*
Y0034809D01*
X0005769Y0034833D01*
X0005960D01*
X0006008Y0034809D01*
Y0034666D01*
X0005960Y0034642D01*
X0007999Y0030698D02*
X0008067Y0030664D01*
X0008135D01*
X0008202Y0030698D01*
Y0030901D01*
X0008135Y0030935D01*
X0008067D01*
X0007999Y0030901D01*
Y0030698D01*
X0007931Y0030664D01*
X0007863D01*
X0007796Y0030698D01*
Y0030901D01*
X0007863Y0030935D01*
X0007931D01*
X0007999Y0030901D01*
X0007796Y0031129D02*
Y0031264D01*
Y0031197D02*
X0008202D01*
X0008135Y0031264D01*
X0007931Y0031763D02*
X0007863D01*
X0007796Y0031729D01*
Y0031594D01*
X0007863Y0031560D01*
X0008202D01*
Y0031526D02*
Y0031662D01*
X0008204Y0017155D02*
Y0017019D01*
Y0017087D02*
X0007798D01*
X0007865Y0017019D01*
X0008001Y0016656D02*
X0008204Y0016758D01*
X0008001Y0016487D02*
Y0016690D01*
X0007933Y0016758D01*
X0007865D01*
X0007798Y0016690D01*
Y0016487D01*
X0008204D01*
X0026182Y0008694D02*
X0026815Y0008377D01*
Y0008800D01*
X0026182Y0009012D02*
Y0009435D01*
X0026604Y0009012D01*
X0026710D01*
X0026815Y0009065D01*
Y0009382D01*
X0026710Y0009435D01*
X0026393Y0010017D02*
X0026288D01*
X0026182Y0009964D01*
Y0009753D01*
X0026288Y0009700D01*
X0026815D01*
Y0009647D02*
Y0009858D01*
X0026591Y0042932D02*
X0026480D01*
X0026535D02*
Y0043266D01*
X0026480Y0043210D01*
X0026237Y0043266D02*
Y0042932D01*
X0026181Y0042988D01*
X0026070Y0043210D01*
X0026014Y0043266D01*
Y0042932D01*
X0025632D02*
X0025604Y0042988D01*
Y0043210D01*
X0025632Y0043266D01*
X0025799D01*
X0025827Y0043210D01*
Y0042988D01*
X0025799Y0042932D01*
X0025632D01*
X0025417Y0042988D02*
X0025389Y0042932D01*
X0025222D01*
X0025194Y0042988D01*
Y0043210D01*
X0025222Y0043266D01*
X0025389D01*
X0025417Y0043210D01*
X0008499Y0025948D02*
Y0026151D01*
X0008567Y0026185D01*
X0008635D01*
X0008702Y0026151D01*
Y0025948D01*
X0008635Y0025914D01*
X0008567D01*
X0008296Y0026049D01*
Y0026379D02*
Y0026514D01*
Y0026447D02*
X0008702D01*
X0008635Y0026514D01*
X0008431Y0027013D02*
X0008363D01*
X0008296Y0026979D01*
Y0026844D01*
X0008363Y0026810D01*
X0008702D01*
Y0026776D02*
Y0026912D01*
X0005499Y0025551D02*
Y0025754D01*
X0005567Y0025788D01*
X0005635D01*
X0005702Y0025754D01*
Y0025551D01*
X0005635Y0025517D01*
X0005567D01*
X0005296Y0025652D01*
X0005702Y0025982D02*
X0005296D01*
X0005363Y0026049D01*
X0005635Y0026185D01*
X0005702Y0026253D01*
X0005296D01*
Y0026684D02*
X0005363Y0026718D01*
X0005635D01*
X0005702Y0026684D01*
Y0026481D01*
X0005635Y0026447D01*
X0005363D01*
X0005296Y0026481D01*
Y0026684D01*
X0005363Y0026912D02*
X0005296Y0026946D01*
Y0027149D01*
X0005363Y0027183D01*
X0005635D01*
X0005702Y0027149D01*
Y0026946D01*
X0005635Y0026912D01*
X0012056Y0023215D02*
Y0022993D01*
X0011834Y0023104D01*
Y0023160D01*
X0012167D01*
X0012001Y0022722D02*
X0012167Y0022805D01*
X0012001Y0022583D02*
Y0022750D01*
X0011945Y0022805D01*
X0011889D01*
X0011834Y0022750D01*
Y0022583D01*
X0012167D01*
X0007796Y0034367D02*
X0008202Y0034164D01*
Y0034435D01*
X0007796Y0034629D02*
Y0034764D01*
Y0034697D02*
X0008202D01*
X0008135Y0034764D01*
X0007931Y0035263D02*
X0007863D01*
X0007796Y0035229D01*
Y0035094D01*
X0007863Y0035060D01*
X0008202D01*
Y0035026D02*
Y0035162D01*
X0007500Y0012500D03*
X0006500D01*
Y0006500D01*
X0007500D01*
Y0012500D01*
X0024014Y0036558D02*
Y0037058D01*
X0024274Y0036808D02*
X0023764D01*
X0025258Y0012204D02*
X0024748D01*
X0024998Y0011954D02*
Y0012454D01*
X0013358Y0038663D02*
X0012848D01*
Y0039283D01*
X0013358D01*
Y0038663D01*
X0013310Y0023930D02*
Y0023420D01*
X0012690D01*
Y0023930D01*
X0013310D01*
X0014310Y0020930D02*
Y0020420D01*
X0013690D01*
Y0020930D01*
X0014310D01*
X0020500Y0008500D03*
X0012310Y0023930D02*
Y0023420D01*
X0011690D01*
Y0023930D01*
X0012310D01*
X0010500Y0008500D03*
X0024000Y0006000D02*
X0026000D01*
Y0010000D01*
X0024000D01*
Y0006000D01*
Y0010000D03*
X0013500Y0044500D02*
Y0045500D01*
X0018500D01*
Y0044500D01*
X0013500D01*
X0012500Y0045500D03*
X0016000Y0007500D02*
Y0006500D01*
X0018000D01*
Y0007500D01*
X0016000D01*
X0014800Y0040250D02*
Y0042250D01*
X0013200D01*
Y0040250D01*
X0014800D01*
X0013500Y0045500D03*
X0009500Y0025500D02*
Y0005500D01*
X0010500D01*
Y0025500D01*
X0009500D01*
X0014310Y0023930D02*
Y0023420D01*
X0013690D01*
Y0023930D01*
X0014310D01*
X0021490Y0013600D02*
Y0016410D01*
X0020510D01*
Y0013600D01*
X0021490D01*
X0003000Y0002500D02*
Y0001500D01*
X0029750Y0049000D02*
X0028750D01*
X0029250Y0049500D02*
Y0048500D01*
X0019500Y0005500D02*
Y0025500D01*
X0018500D01*
Y0005500D01*
X0019500D01*
X0002250Y0001750D02*
Y0000750D01*
X0006000Y0044000D02*
X0005000D01*
X0005500Y0044500D02*
Y0043500D01*
X0026500Y0044000D02*
X0025500D01*
X0026000Y0044500D02*
Y0043500D01*
X0019500Y0025500D02*
Y0045500D01*
X0018500D01*
Y0025500D01*
X0019500D01*
X0027000Y0004750D02*
X0026000D01*
X0026500Y0005250D02*
Y0004250D01*
X0007200Y0015200D02*
X0005800D01*
X0005500Y0005000D02*
X0004500D01*
X0005000Y0005500D02*
Y0004500D01*
X0003500Y0002000D02*
X0002500D01*
X0006500Y0035500D03*
X0007500Y0022500D02*
Y0028500D01*
X0006500D01*
Y0022500D01*
Y0019500D01*
X0007500D01*
Y0023000D01*
X0007000Y0015300D02*
X0005900D01*
X0006900Y0015400D02*
X0006100D01*
X0009500Y0045500D02*
Y0025500D01*
X0010500D01*
Y0045500D01*
X0009500D01*
X0007500Y0028500D03*
X0006500Y0029500D02*
X0007500D01*
Y0031500D01*
X0006500D01*
Y0029500D01*
X0008490Y0016100D02*
Y0018910D01*
X0007510D01*
Y0016100D01*
X0008490D01*
X0006500Y0022500D03*
X0002750Y0001250D02*
X0001750D01*
G01X0014330Y0040438D02*
G03X0014442Y0040550I0000000J0000112D01*
G01X0014218D02*
G03X0014330Y0040438I0000112J0000000D01*
Y0040662D02*
G03X0014218Y0040550I0000000J0000112D01*
G01X0014442D02*
G03X0014330Y0040662I0000112J0000000D01*
G54D51*
G01X0014550Y0040350D02*
Y0042150D01*
X0013300D01*
Y0040350D01*
X0013800D01*
Y0040400D01*
X0014150D02*
Y0040350D01*
X0014550D01*
X0013200Y0040250D02*
X0013300Y0040350D01*
Y0042150D01*
X0013200Y0042250D01*
Y0040250D01*
X0014550Y0040350D02*
Y0042150D01*
X0014800Y0042250D01*
Y0040250D01*
X0014550Y0040350D01*
X0014800Y0040400D02*
Y0040600D01*
X0015150D01*
Y0040400D01*
X0014800D01*
Y0040900D02*
X0015150D01*
Y0041100D01*
X0014800D01*
Y0040900D01*
Y0041400D02*
Y0041600D01*
X0015250D01*
Y0041400D01*
X0014800D01*
Y0041900D02*
Y0042100D01*
X0015250D01*
Y0041900D01*
X0014800D01*
X0012850Y0040400D02*
Y0040600D01*
X0013200D01*
Y0040400D01*
X0012850D01*
Y0040900D02*
Y0041100D01*
X0013200D01*
Y0040900D01*
X0012850D01*
X0012750Y0041400D02*
Y0041600D01*
X0013200D01*
Y0041400D01*
X0012750D01*
Y0041900D02*
Y0042100D01*
X0013200D01*
Y0041900D01*
X0012750D01*
G01X0013975Y0040552D02*
G03X0013800Y0040400I0000000J0000177D01*
G01X0014150D02*
G03X0013975Y0040552I0000175J0000025D01*
G54D52*
G01X0025235Y0015088D02*
X0025323Y0015132D01*
Y0015394D01*
X0025235Y0015438D01*
X0025060D01*
X0024973Y0015351D01*
Y0015088D01*
X0024798D01*
Y0015438D01*
X0025235Y0014498D02*
X0025323Y0014585D01*
Y0014760D01*
X0025235Y0014848D01*
X0025148D01*
X0024973Y0014673D01*
X0024798Y0014848D01*
Y0014498D01*
X0025323Y0027027D02*
Y0026677D01*
X0024973Y0027027D01*
X0024885D01*
X0024798Y0026984D01*
Y0026721D01*
X0024885Y0026677D01*
X0024973Y0026437D02*
X0025060Y0026393D01*
X0025235Y0026218D01*
X0025323Y0026175D01*
Y0026437D02*
X0025235Y0026393D01*
X0025060Y0026218D01*
X0024973Y0026175D01*
X0025235Y0025584D02*
X0025323Y0025628D01*
Y0025890D01*
X0025235Y0025934D01*
X0025060D01*
X0024973Y0025847D01*
Y0025584D01*
X0024798D01*
Y0025934D01*
X0025323Y0025344D02*
Y0025169D01*
Y0025256D02*
X0024798D01*
X0024885Y0025169D01*
X0025060Y0023879D02*
Y0024054D01*
X0025235D01*
X0025323Y0024010D01*
Y0023748D01*
X0025235Y0023704D01*
X0024885D01*
X0024798Y0023748D01*
Y0024010D01*
X0024885Y0024054D01*
X0024798Y0023464D02*
X0025235D01*
X0025323Y0023420D01*
Y0023157D01*
X0025235Y0023114D01*
X0024798D01*
X0025323Y0022873D02*
Y0022567D01*
X0024798D01*
X0025060Y0021977D02*
Y0022239D01*
X0024973Y0022327D01*
X0024885D01*
X0024798Y0022239D01*
Y0021977D01*
X0025323D01*
X0024798Y0020949D02*
X0025323D01*
X0025235Y0020862D01*
X0024885Y0020687D01*
X0024798Y0020599D01*
X0025323D01*
X0024798Y0020359D02*
X0025323D01*
X0025235Y0020271D01*
X0024885Y0020096D01*
X0024798Y0020009D01*
X0025323D01*
Y0019462D02*
X0025235Y0019418D01*
X0024885D01*
X0024798Y0019462D01*
Y0019725D01*
X0024885Y0019768D01*
X0025235D01*
X0025323Y0019725D01*
Y0019462D01*
X0025235Y0019178D02*
X0025323Y0019134D01*
Y0018872D01*
X0025235Y0018828D01*
X0024885D01*
X0024798Y0018872D01*
Y0019134D01*
X0024885Y0019178D01*
X0025323Y0015766D02*
X0025235Y0015678D01*
X0025148Y0015635D01*
X0024973D01*
X0024885Y0015678D01*
X0024798Y0015766D01*
Y0015853D01*
X0024885Y0015941D01*
X0024973Y0015985D01*
X0025148D01*
X0025235Y0015941D01*
X0025323Y0015853D01*
Y0015766D01*
Y0015394D02*
Y0015044D01*
X0024973Y0015394D01*
X0024885D01*
X0024798Y0015351D01*
Y0015088D01*
X0024885Y0015044D01*
X0025148Y0014498D02*
X0025235D01*
X0025323Y0014542D01*
Y0014717D01*
X0025235Y0014760D01*
X0024798D01*
Y0014804D02*
Y0014629D01*
G54D53*
G01X0014083Y0041073D02*
Y0040940D01*
Y0041007D02*
X0013683D01*
X0013750Y0040940D01*
X0013683Y0040700D02*
X0014017D01*
X0014083Y0040667D01*
Y0040467D01*
X0014017Y0040433D01*
X0013683D01*
X0014383Y0043073D02*
Y0043273D01*
X0014450Y0043307D01*
X0014517D01*
X0014583Y0043273D01*
Y0043073D01*
X0014517Y0043040D01*
X0014450D01*
X0014183Y0043173D01*
X0014517Y0042600D02*
X0014583Y0042633D01*
Y0042833D01*
X0014517Y0042867D01*
X0014383D01*
X0014317Y0042800D01*
Y0042600D01*
X0014183D01*
Y0042867D01*
X0014583Y0042427D02*
Y0042160D01*
X0014317Y0042427D01*
X0014250D01*
X0014183Y0042393D01*
Y0042193D01*
X0014250Y0042160D01*
X0014517Y0041987D02*
X0014583Y0041953D01*
Y0041753D01*
X0014517Y0041720D01*
X0014250D01*
X0014183Y0041753D01*
Y0041953D01*
X0014250Y0041987D01*
X0014583Y0041547D02*
Y0041313D01*
X0014183D01*
X0014450Y0041140D02*
Y0040873D01*
X0014183Y0041007D01*
Y0041073D01*
X0014583D01*
Y0040700D02*
Y0040433D01*
X0014317Y0040700D01*
X0014250D01*
X0014183Y0040667D01*
Y0040467D01*
X0014250Y0040433D01*
G54D32*
X0007000Y0011000D03*
Y0010000D03*
Y0009000D03*
Y0008000D03*
Y0007000D03*
X0017000Y0045000D03*
X0016000D03*
X0015000D03*
X0014000D03*
X0019000Y0027000D03*
Y0028000D03*
Y0029000D03*
Y0030000D03*
Y0031000D03*
Y0032000D03*
Y0033000D03*
Y0034000D03*
Y0035000D03*
Y0036000D03*
Y0037000D03*
Y0038000D03*
Y0039000D03*
Y0040000D03*
Y0041000D03*
Y0042000D03*
Y0043000D03*
Y0044000D03*
Y0045000D03*
Y0007000D03*
Y0008000D03*
Y0009000D03*
Y0010000D03*
Y0011000D03*
Y0012000D03*
Y0013000D03*
Y0014000D03*
Y0015000D03*
Y0016000D03*
Y0017000D03*
Y0018000D03*
Y0019000D03*
Y0020000D03*
Y0021000D03*
Y0022000D03*
Y0023000D03*
Y0024000D03*
Y0025000D03*
X0010000Y0024000D03*
Y0023000D03*
Y0022000D03*
Y0021000D03*
Y0020000D03*
Y0019000D03*
Y0018000D03*
Y0017000D03*
Y0016000D03*
Y0015000D03*
Y0014000D03*
Y0013000D03*
Y0012000D03*
Y0011000D03*
Y0010000D03*
Y0009000D03*
Y0008000D03*
Y0007000D03*
Y0006000D03*
Y0044000D03*
Y0043000D03*
Y0042000D03*
Y0041000D03*
Y0040000D03*
Y0039000D03*
Y0038000D03*
Y0037000D03*
Y0036000D03*
Y0035000D03*
Y0034000D03*
Y0033000D03*
Y0032000D03*
Y0031000D03*
Y0030000D03*
Y0029000D03*
Y0028000D03*
Y0027000D03*
Y0026000D03*
X0007000Y0027000D03*
Y0026000D03*
Y0025000D03*
Y0024000D03*
Y0023000D03*
Y0022000D03*
Y0021000D03*
Y0020000D03*
X0006500Y0015000D03*
G54D33*
X0007000Y0012000D03*
X0018000Y0045000D03*
X0019000Y0026000D03*
Y0006000D03*
X0010000Y0025000D03*
Y0045000D03*
X0007000Y0028000D03*
X0006500Y0014000D03*
G54D34*
X0026500Y0004750D03*
X0026000Y0044000D03*
X0005500D03*
X0002250Y0001250D03*
X0003000Y0002000D03*
X0005000Y0005000D03*
X0029250Y0049000D03*
G54D35*
X0024014Y0036808D03*
X0024998Y0012204D03*
G54D36*
X0021000Y0012500D03*
Y0017500D03*
X0008000Y0015000D03*
Y0020000D03*
X0011000Y0007000D03*
Y0006000D03*
X0021000Y0007000D03*
Y0006000D03*
X0012000Y0045000D03*
X0011000D03*
X0007000Y0034000D03*
Y0033000D03*
G54D37*
X0011000Y0008000D03*
X0021000D03*
X0013000Y0045000D03*
X0007000Y0035000D03*
G54D38*
X0016500Y0007000D03*
X0007000Y0030000D03*
G54D39*
X0017500Y0007000D03*
X0007000Y0031000D03*
G54D40*
X0025000Y0007000D03*
G54D41*
Y0009000D03*
G54D43*
X0012428Y0038973D03*
X0013778D03*
G54D44*
X0012000Y0023000D03*
Y0024350D03*
X0013000Y0023000D03*
Y0024350D03*
X0014000Y0020000D03*
Y0021350D03*
Y0023000D03*
Y0024350D03*
M02*
