*
G04 Mass Parameters ***
*
G04 Image ***
*
%IND:\ORCAD_G\PROJET_ORCAD9\HUGO\CARTE WIFI 2011\CARTE WIFI 2011.TOP*%
%ICAS*%
%MOIN*%
%IPPOS*%
%ASAXBY*%
G74*%FSLAN2X34Y34*%
*
G04 Aperture Definitions ***
*
%ADD10R,0.0787X0.0236*%
%ADD11R,0.0640X0.0630*%
%ADD12R,0.0630X0.0640*%
%ADD13C,0.0800*%
%ADD14R,0.0800X0.0800*%
%ADD15C,0.1000*%
%ADD16C,0.0500*%
%ADD17C,0.0850*%
%ADD18R,0.0850X0.0850*%
%ADD19C,0.0750*%
%ADD20R,0.0750X0.0750*%
%ADD21C,0.1300*%
%ADD22R,0.1300X0.1300*%
%ADD23R,0.0700X0.0250*%
%ADD24C,0.0100*%
%ADD25C,0.0800*%
%ADD26C,0.0250*%
%ADD27C,0.0800*%
%ADD28C,0.0300*%
%ADD29C,0.0150*%
%ADD30C,0.0140*%
%ADD31C,0.0140*%
*
G04 Plot Data ***
*
G54D24*
G01X0024958Y0038292D02*
X0024917Y0038208D01*
X0024667D01*
X0024625Y0038292D01*
Y0038625D01*
X0024667Y0038708D01*
X0024917D01*
X0024958Y0038625D01*
X0024300Y0038208D02*
X0024383D01*
Y0038292D01*
X0024300D01*
Y0038208D01*
X0023683D02*
X0023642Y0038292D01*
Y0038625D01*
X0023683Y0038708D01*
X0023933D01*
X0023975Y0038625D01*
Y0038292D01*
X0023933Y0038208D01*
X0023683D01*
X0021642Y0034208D02*
Y0034375D01*
Y0034292D02*
X0022142D01*
X0022058Y0034375D01*
X0021642Y0034700D02*
Y0034867D01*
Y0034783D02*
X0022142D01*
X0022058Y0034867D01*
X0021642Y0035400D02*
X0021725Y0035483D01*
X0021808Y0035525D01*
X0021975D01*
X0022058Y0035483D01*
X0022142Y0035400D01*
Y0035317D01*
X0022058Y0035233D01*
X0021975Y0035192D01*
X0021808D01*
X0021725Y0035233D01*
X0021642Y0035317D01*
Y0035400D01*
Y0035767D02*
Y0036100D01*
X0021975Y0035767D01*
X0022058D01*
X0022142Y0035808D01*
Y0036058D01*
X0022058Y0036100D01*
X0022142Y0037104D02*
X0021642D01*
X0021725Y0037187D01*
X0022058Y0037354D01*
X0022142Y0037437D01*
X0021642D01*
X0021892Y0037762D02*
Y0038012D01*
X0021642Y0037679D02*
Y0038012D01*
X0022142D01*
Y0037679D01*
X0021808Y0038254D02*
Y0038587D01*
X0021642Y0038254D02*
X0021892D01*
X0022142Y0038379D01*
Y0038462D01*
X0021892Y0038587D01*
X0021642D01*
X0021725Y0038829D02*
X0021642Y0038871D01*
Y0039121D01*
X0021725Y0039162D01*
X0022058D01*
X0022142Y0039121D01*
Y0038871D01*
X0022058Y0038829D01*
X0021642Y0039404D02*
Y0039571D01*
Y0039487D02*
X0022142D01*
Y0039404D02*
Y0039571D01*
X0022058Y0039896D02*
X0022142Y0039937D01*
Y0040187D01*
X0022058Y0040229D01*
X0021975D01*
X0021892Y0040187D01*
Y0039937D01*
X0021808Y0039896D01*
X0021725D01*
X0021642Y0039937D01*
Y0040187D01*
X0021725Y0040229D01*
X0022142Y0040471D02*
X0021642D01*
X0021725Y0040554D01*
X0022058Y0040721D01*
X0022142Y0040804D01*
X0021642D01*
X0021892Y0041129D02*
Y0041379D01*
X0021642Y0041046D02*
Y0041379D01*
X0022142D01*
Y0041046D01*
X0029000Y0002000D02*
Y0048500D01*
X0003000D01*
Y0002000D01*
X0029000D01*
G54D26*
G01X0026378Y0015756D02*
X0023622D01*
X0021950Y0013910D02*
X0022615Y0014575D01*
X0023622D01*
Y0015756D02*
X0022506D01*
X0021950Y0015200D01*
Y0013910D01*
X0022615Y0014575D01*
X0023622D01*
X0026378Y0015756D02*
X0027250Y0015750D01*
X0027750D01*
X0028000Y0015500D01*
Y0015000D01*
X0027575Y0014575D01*
X0026378D01*
X0012428Y0038973D02*
X0012250Y0038795D01*
Y0037500D01*
X0014000Y0020000D02*
X0015250D01*
X0020040Y0005100D02*
X0019690Y0004750D01*
X0016000D01*
X0015750Y0005000D01*
X0014770D01*
X0014810Y0004960D01*
X0014000Y0021350D02*
X0013500D01*
X0013000Y0021850D01*
Y0023000D01*
X0012000D01*
X0013778Y0038973D02*
X0014250Y0039445D01*
Y0041750D01*
X0014500Y0042000D01*
X0015025D01*
X0019000Y0006000D03*
X0021000Y0017500D02*
X0022245D01*
X0022819Y0016937D01*
X0023622D01*
X0026378D02*
X0023622D01*
X0015025Y0041500D02*
X0015500D01*
X0015750Y0041750D01*
Y0042250D01*
X0015500Y0042500D01*
X0014250D01*
X0013750Y0042000D01*
Y0041250D01*
X0013500Y0041000D01*
X0012975D01*
X0010000Y0043000D02*
X0016000D01*
X0016500Y0042500D01*
Y0041750D01*
X0015750Y0041000D01*
X0015025D01*
X0014250Y0013750D02*
X0016500Y0016000D01*
X0019000D01*
Y0010000D02*
X0022750D01*
X0023250Y0010500D01*
X0026379D01*
X0027500Y0011620D01*
Y0012750D01*
X0027250Y0013000D01*
X0026378D01*
Y0014181D02*
X0024723D01*
X0024347Y0013806D01*
Y0012579D01*
X0023750Y0012000D01*
X0021000D01*
Y0012500D01*
X0015025Y0040500D02*
X0016500D01*
X0017621Y0039379D01*
Y0019549D01*
X0018169Y0019000D01*
X0019000D01*
Y0013000D02*
X0020500D01*
X0021000Y0012500D01*
X0008130Y0027340D02*
X0008250Y0027460D01*
Y0030500D01*
X0008750Y0031000D01*
X0010000D01*
Y0038000D02*
X0009000D01*
X0008500Y0038500D01*
Y0045250D01*
X0009250Y0046000D01*
X0019750D01*
X0020500Y0045250D01*
Y0019500D01*
X0020075Y0019075D01*
Y0016175D01*
X0020500Y0015750D01*
X0021600D01*
X0022000Y0016150D01*
X0023622D01*
X0019000Y0016000D03*
X0021900Y0020440D02*
Y0020423D01*
X0022080Y0020243D01*
Y0019259D01*
X0022827Y0018512D01*
X0023622D01*
X0026378Y0016150D02*
X0027500D01*
X0027900Y0016549D01*
Y0037100D01*
X0022500Y0042500D01*
Y0045250D01*
X0021000Y0046750D01*
X0008500D01*
X0007500Y0045750D01*
Y0038250D01*
X0008750Y0037000D01*
X0010000D01*
X0012975Y0040500D02*
X0012000D01*
Y0041000D01*
X0012975D01*
X0014000Y0024350D02*
X0013000D01*
X0023622Y0018118D02*
X0021750D01*
X0021118Y0018750D01*
X0021000D01*
X0014000Y0023000D02*
X0013000D01*
X0012428Y0038973D02*
Y0040428D01*
X0012500Y0040500D01*
X0012975D01*
X0026378Y0013787D02*
X0027713D01*
X0012975Y0042000D02*
X0012713D01*
X0012213Y0042500D01*
X0011466D01*
X0010966Y0042000D01*
X0010000D01*
X0015560Y0010780D02*
X0015550Y0010770D01*
Y0006800D01*
X0013750Y0005000D01*
Y0004250D01*
X0014000Y0004000D01*
X0021750D01*
X0022000Y0004250D01*
Y0005500D01*
X0021750Y0016750D02*
X0021810Y0016690D01*
X0022060D01*
X0022207Y0016543D01*
X0023622D01*
X0012975Y0041500D02*
X0011849D01*
X0011690Y0041660D01*
X0019000Y0011000D02*
X0025475D01*
X0025724Y0011249D01*
Y0012469D01*
X0025370Y0012823D01*
Y0013334D01*
X0025449Y0013413D01*
X0026359D01*
X0026378Y0013394D01*
X0010000Y0030000D02*
X0009250D01*
X0009000Y0029750D01*
Y0026500D01*
X0008500Y0026000D01*
G54D28*
G01X0026948Y0006870D02*
X0026281D01*
X0026614Y0008786D02*
Y0009453D01*
X0026948Y0009120D02*
X0026281D01*
X0008750Y0008500D02*
Y0016000D01*
X0005750Y0019000D01*
Y0034750D01*
X0014000Y0024350D02*
X0015400D01*
X0016500Y0023250D01*
Y0019750D01*
X0012250Y0015500D01*
Y0007320D01*
X0012220Y0007290D01*
X0013000Y0024350D02*
Y0035000D01*
X0013778Y0035778D01*
Y0038973D01*
X0006000Y0009000D02*
Y0005250D01*
X0006750Y0004500D01*
X0012250D01*
X0014250Y0006500D01*
Y0013750D01*
X0010000Y0036000D02*
X0011250D01*
X0012000Y0035250D01*
Y0024350D01*
X0019000Y0018000D02*
X0016750D01*
X0013250Y0014500D01*
Y0006500D01*
X0011750Y0005000D01*
X0009239D01*
X0008000Y0006239D01*
Y0011000D01*
G54D29*
G01X0021826Y0026132D02*
Y0026320D01*
Y0026226D02*
X0022393D01*
Y0026132D02*
Y0026320D01*
X0022109Y0026857D02*
Y0027140D01*
X0021826D02*
X0022393D01*
Y0026762D01*
X0021826Y0027487D02*
Y0027676D01*
Y0027582D02*
X0022393D01*
Y0027487D02*
Y0027676D01*
Y0028118D02*
X0021920D01*
X0021826Y0028165D01*
X0022109Y0028307D01*
X0022204D02*
X0022109D01*
X0021826Y0028448D01*
X0021920Y0028495D01*
X0022393D01*
X0022109Y0029875D02*
Y0030158D01*
X0021826Y0029780D02*
Y0030158D01*
X0022393D01*
Y0029780D01*
X0021826Y0030694D02*
X0022393D01*
Y0030505D02*
Y0030883D01*
X0022109Y0031372D02*
X0021826Y0031230D01*
X0022109Y0031608D02*
Y0031325D01*
X0022204Y0031230D01*
X0022298D01*
X0022393Y0031325D01*
Y0031608D01*
X0021826D01*
X0022015Y0031955D02*
Y0032333D01*
X0021826Y0031955D02*
X0022109D01*
X0022393Y0032097D01*
Y0032191D01*
X0022109Y0032333D01*
X0021826D01*
X0021920Y0032680D02*
X0021826Y0032727D01*
Y0033011D01*
X0021920Y0033058D01*
X0022298D01*
X0022393Y0033011D01*
Y0032727D01*
X0022298Y0032680D01*
X0027542Y0006000D02*
X0028042D01*
X0027542Y0006042D02*
Y0005792D01*
X0027708Y0005708D01*
X0027875D01*
X0028042Y0005792D01*
Y0006042D01*
Y0006383D02*
X0027542D01*
X0027625Y0006467D01*
X0027958Y0006633D01*
X0028042Y0006717D01*
X0027542D01*
X0027792Y0007225D02*
Y0007058D01*
X0027625D01*
X0027542Y0007100D01*
Y0007350D01*
X0027625Y0007392D01*
X0027958D01*
X0028042Y0007350D01*
Y0007100D01*
X0027958Y0007058D01*
X0027792Y0008708D02*
X0027625D01*
X0027292Y0008875D01*
X0027625Y0009042D01*
X0027792D01*
X0027708Y0009550D02*
X0027375D01*
X0027542Y0009383D02*
Y0009717D01*
X0004782Y0032763D02*
X0004532Y0032638D01*
X0004782Y0032972D02*
Y0032722D01*
X0004865Y0032638D01*
X0004948D01*
X0005032Y0032722D01*
Y0032972D01*
X0004532D01*
Y0033313D02*
Y0033480D01*
Y0033397D02*
X0005032D01*
Y0033313D02*
Y0033480D01*
X0004532Y0034197D02*
X0005032D01*
X0004532Y0034238D02*
Y0033988D01*
X0004698Y0033905D01*
X0004865D01*
X0005032Y0033988D01*
Y0034238D01*
X0004865Y0034622D02*
Y0034872D01*
X0004782Y0034913D01*
X0004698Y0034872D01*
Y0034622D01*
X0004615Y0034580D01*
X0004532Y0034622D01*
Y0034872D01*
Y0035297D02*
Y0035547D01*
X0004615Y0035588D01*
X0004782D01*
X0004865Y0035547D01*
Y0035297D01*
X0004782Y0035255D01*
X0004698D01*
Y0035588D01*
X0004532Y0035930D02*
X0005032D01*
X0004948Y0036013D01*
X0004782Y0036097D01*
X0004948Y0036180D01*
X0005032Y0036263D01*
X0004532D01*
G54D10*
X0026378Y0013000D03*
X0023622D03*
X0026378Y0013394D03*
X0023622D03*
X0026378Y0013787D03*
X0023622D03*
X0026378Y0014181D03*
X0023622D03*
X0026378Y0014575D03*
X0023622D03*
X0026378Y0014968D03*
X0023622D03*
X0026378Y0015362D03*
X0023622D03*
X0026378Y0015756D03*
X0023622D03*
X0026378Y0016150D03*
X0023622D03*
X0026378Y0016543D03*
X0023622D03*
X0026378Y0016937D03*
X0023622D03*
X0026378Y0017331D03*
X0023622D03*
X0026378Y0017724D03*
X0023622D03*
X0026378Y0018118D03*
X0023622D03*
X0026378Y0018512D03*
X0023622D03*
X0026378Y0019299D03*
X0023622D03*
X0026378Y0019693D03*
X0023622D03*
X0026378Y0020087D03*
X0023622D03*
X0026378Y0020480D03*
X0023622D03*
X0026378Y0020874D03*
X0023622D03*
X0026378Y0021268D03*
X0023622D03*
X0026378Y0021661D03*
X0023622D03*
X0026378Y0022055D03*
X0023622D03*
X0026378Y0022449D03*
X0023622D03*
X0026378Y0022842D03*
X0023622D03*
X0026378Y0023236D03*
X0023622D03*
X0026378Y0023630D03*
X0023622D03*
X0026378Y0024024D03*
X0023622D03*
X0026378Y0024417D03*
X0023622D03*
X0026378Y0024811D03*
X0023622D03*
X0026378Y0025598D03*
X0023622D03*
X0026378Y0025992D03*
X0023622D03*
X0026378Y0026386D03*
X0023622D03*
X0026378Y0026779D03*
X0023622D03*
X0026378Y0027173D03*
X0023622D03*
X0026378Y0027567D03*
X0023622D03*
X0026378Y0027961D03*
X0023622D03*
X0026378Y0028354D03*
X0023622D03*
X0026378Y0028748D03*
X0023622D03*
X0026378Y0029142D03*
X0023622D03*
X0026378Y0029535D03*
X0023622D03*
X0026378Y0029929D03*
X0023622D03*
X0026378Y0030323D03*
X0023622D03*
X0026378Y0030716D03*
X0023622D03*
X0026378Y0031110D03*
X0023622D03*
X0026378Y0031504D03*
X0023622D03*
X0026378Y0031898D03*
X0023622D03*
X0026378Y0032291D03*
X0023622D03*
X0026378Y0032685D03*
X0023622D03*
X0026378Y0033079D03*
X0023622D03*
X0026378Y0033472D03*
X0023622D03*
X0026378Y0033866D03*
X0023622D03*
X0026378Y0034260D03*
X0023622D03*
X0026378Y0034653D03*
X0023622D03*
X0026378Y0035047D03*
X0023622D03*
X0026378Y0035441D03*
X0023622D03*
X0026378Y0035835D03*
X0023622D03*
X0026378Y0036228D03*
X0023622D03*
X0026673Y0013000D03*
X0023327D03*
X0026673Y0013394D03*
X0023327D03*
X0026673Y0013787D03*
X0023327D03*
X0026673Y0014181D03*
X0023327D03*
X0026673Y0014575D03*
X0023327D03*
X0026673Y0014968D03*
X0023327D03*
X0026673Y0015362D03*
X0023327D03*
X0026673Y0015756D03*
X0023327D03*
X0026673Y0016150D03*
X0023327D03*
X0026673Y0016543D03*
X0023327D03*
X0026673Y0016937D03*
X0023327D03*
X0026673Y0017331D03*
X0023327D03*
X0026673Y0017724D03*
X0023327D03*
X0026673Y0018118D03*
X0023327D03*
X0026673Y0018512D03*
X0023327D03*
X0026673Y0019299D03*
X0023327D03*
X0026673Y0019693D03*
X0023327D03*
X0026673Y0020087D03*
X0023327D03*
X0026673Y0020480D03*
X0023327D03*
X0026673Y0020874D03*
X0023327D03*
X0026673Y0021268D03*
X0023327D03*
X0026673Y0021661D03*
X0023327D03*
X0026673Y0022055D03*
X0023327D03*
X0026673Y0022449D03*
X0023327D03*
X0026673Y0022842D03*
X0023327D03*
X0026673Y0023236D03*
X0023327D03*
X0026673Y0023630D03*
X0023327D03*
X0026673Y0024024D03*
X0023327D03*
X0026673Y0024417D03*
X0023327D03*
X0026673Y0024811D03*
X0023327D03*
X0026673Y0025598D03*
X0023327D03*
X0026673Y0025992D03*
X0023327D03*
X0026673Y0026386D03*
X0023327D03*
X0026673Y0026779D03*
X0023327D03*
X0026673Y0027173D03*
X0023327D03*
X0026673Y0027567D03*
X0023327D03*
X0026673Y0027961D03*
X0023327D03*
X0026673Y0028354D03*
X0023327D03*
X0026673Y0028748D03*
X0023327D03*
X0026673Y0029142D03*
X0023327D03*
X0026673Y0029535D03*
X0023327D03*
X0026673Y0029929D03*
X0023327D03*
X0026673Y0030323D03*
X0023327D03*
X0026673Y0030716D03*
X0023327D03*
X0026673Y0031110D03*
X0023327D03*
X0026673Y0031504D03*
X0023327D03*
X0026673Y0031898D03*
X0023327D03*
X0026673Y0032291D03*
X0023327D03*
X0026673Y0032685D03*
X0023327D03*
X0026673Y0033079D03*
X0023327D03*
X0026673Y0033472D03*
X0023327D03*
X0026673Y0033866D03*
X0023327D03*
X0026673Y0034260D03*
X0023327D03*
X0026673Y0034653D03*
X0023327D03*
X0026673Y0035047D03*
X0023327D03*
X0026673Y0035441D03*
X0023327D03*
X0026673Y0035835D03*
X0023327D03*
X0026673Y0036228D03*
X0023327D03*
G54D11*
X0012428Y0038973D03*
X0013778D03*
G54D12*
X0012000Y0023000D03*
Y0024350D03*
X0013000Y0023000D03*
Y0024350D03*
X0014000Y0020000D03*
Y0021350D03*
Y0023000D03*
Y0024350D03*
G54D13*
X0019000Y0006000D03*
X0007000Y0011000D03*
Y0010000D03*
Y0009000D03*
Y0008000D03*
Y0007000D03*
X0017000Y0045000D03*
X0016000D03*
X0015000D03*
X0014000D03*
X0019000Y0027000D03*
Y0028000D03*
Y0029000D03*
Y0030000D03*
Y0031000D03*
Y0032000D03*
Y0033000D03*
Y0034000D03*
Y0035000D03*
Y0036000D03*
Y0037000D03*
Y0038000D03*
Y0039000D03*
Y0040000D03*
Y0041000D03*
Y0042000D03*
Y0043000D03*
Y0044000D03*
Y0045000D03*
Y0007000D03*
Y0008000D03*
Y0009000D03*
Y0010000D03*
Y0011000D03*
Y0012000D03*
Y0013000D03*
Y0014000D03*
Y0015000D03*
Y0016000D03*
Y0017000D03*
Y0018000D03*
Y0019000D03*
Y0020000D03*
Y0021000D03*
Y0022000D03*
Y0023000D03*
Y0024000D03*
Y0025000D03*
X0010000Y0024000D03*
Y0023000D03*
Y0022000D03*
Y0021000D03*
Y0020000D03*
Y0019000D03*
Y0018000D03*
Y0017000D03*
Y0016000D03*
Y0015000D03*
Y0014000D03*
Y0013000D03*
Y0012000D03*
Y0011000D03*
Y0010000D03*
Y0009000D03*
Y0008000D03*
Y0007000D03*
Y0006000D03*
Y0044000D03*
Y0043000D03*
Y0042000D03*
Y0041000D03*
Y0040000D03*
Y0039000D03*
Y0038000D03*
Y0037000D03*
Y0036000D03*
Y0035000D03*
Y0034000D03*
Y0033000D03*
Y0032000D03*
Y0031000D03*
Y0030000D03*
Y0029000D03*
Y0028000D03*
Y0027000D03*
Y0026000D03*
X0007000Y0027000D03*
Y0026000D03*
Y0025000D03*
Y0024000D03*
Y0023000D03*
Y0022000D03*
Y0021000D03*
Y0020000D03*
X0006500Y0015000D03*
G54D14*
X0007000Y0012000D03*
X0018000Y0045000D03*
X0019000Y0026000D03*
Y0006000D03*
X0010000Y0025000D03*
Y0045000D03*
X0007000Y0028000D03*
X0006500Y0014000D03*
G54D15*
X0026500Y0004750D03*
X0026000Y0044000D03*
X0005500D03*
X0002250Y0001250D03*
X0003000Y0002000D03*
X0005000Y0005000D03*
X0029250Y0049000D03*
G54D16*
X0024014Y0036808D03*
X0024998Y0012204D03*
G54D17*
X0021000Y0012500D03*
Y0017500D03*
X0008000Y0015000D03*
Y0020000D03*
X0011000Y0007000D03*
Y0006000D03*
X0021000Y0007000D03*
Y0006000D03*
X0012000Y0045000D03*
X0011000D03*
X0007000Y0034000D03*
Y0033000D03*
G54D18*
X0011000Y0008000D03*
X0021000D03*
X0013000Y0045000D03*
X0007000Y0035000D03*
G54D19*
X0016500Y0007000D03*
X0007000Y0030000D03*
G54D20*
X0017500Y0007000D03*
X0007000Y0031000D03*
G54D21*
X0025000Y0007000D03*
G54D22*
Y0009000D03*
G54D23*
X0015025Y0040500D03*
Y0041000D03*
Y0041500D03*
Y0042000D03*
X0012975D03*
Y0041500D03*
Y0041000D03*
Y0040500D03*
G54D25*
X0008500Y0026000D03*
G54D27*
X0021950Y0013910D03*
X0008750Y0008500D03*
X0005750Y0034750D03*
X0012250Y0037500D03*
X0015250Y0020000D03*
X0012220Y0007290D03*
X0020040Y0005100D03*
X0014810Y0004960D03*
X0006000Y0009000D03*
X0008130Y0027340D03*
X0021900Y0020440D03*
X0021000Y0018750D03*
X0008000Y0011000D03*
X0027713Y0013787D03*
X0015560Y0010780D03*
X0022000Y0005500D03*
X0021750Y0016750D03*
X0011690Y0041660D03*
G54D30*
%LPC*%
X0021950Y0013910D03*
X0008750Y0008500D03*
X0005750Y0034750D03*
X0012250Y0037500D03*
X0015250Y0020000D03*
X0012220Y0007290D03*
X0020040Y0005100D03*
X0014810Y0004960D03*
X0006000Y0009000D03*
X0008130Y0027340D03*
X0021900Y0020440D03*
X0021000Y0018750D03*
X0008000Y0011000D03*
X0027713Y0013787D03*
X0015560Y0010780D03*
X0022000Y0005500D03*
X0021750Y0016750D03*
X0011690Y0041660D03*
X0008500Y0026000D03*
%LPD*%
G54D31*
%LPC*%
X0019000Y0006000D03*
X0021000Y0012500D03*
Y0017500D03*
X0008000Y0015000D03*
Y0020000D03*
X0007000Y0012000D03*
Y0011000D03*
Y0010000D03*
Y0009000D03*
Y0008000D03*
Y0007000D03*
X0011000Y0008000D03*
Y0007000D03*
Y0006000D03*
X0021000Y0008000D03*
Y0007000D03*
Y0006000D03*
X0018000Y0045000D03*
X0017000D03*
X0016000D03*
X0015000D03*
X0014000D03*
X0013000D03*
X0012000D03*
X0011000D03*
X0017500Y0007000D03*
X0016500D03*
X0025000Y0009000D03*
Y0007000D03*
X0019000Y0026000D03*
Y0027000D03*
Y0028000D03*
Y0029000D03*
Y0030000D03*
Y0031000D03*
Y0032000D03*
Y0033000D03*
Y0034000D03*
Y0035000D03*
Y0036000D03*
Y0037000D03*
Y0038000D03*
Y0039000D03*
Y0040000D03*
Y0041000D03*
Y0042000D03*
Y0043000D03*
Y0044000D03*
Y0045000D03*
Y0006000D03*
Y0007000D03*
Y0008000D03*
Y0009000D03*
Y0010000D03*
Y0011000D03*
Y0012000D03*
Y0013000D03*
Y0014000D03*
Y0015000D03*
Y0016000D03*
Y0017000D03*
Y0018000D03*
Y0019000D03*
Y0020000D03*
Y0021000D03*
Y0022000D03*
Y0023000D03*
Y0024000D03*
Y0025000D03*
X0010000D03*
Y0024000D03*
Y0023000D03*
Y0022000D03*
Y0021000D03*
Y0020000D03*
Y0019000D03*
Y0018000D03*
Y0017000D03*
Y0016000D03*
Y0015000D03*
Y0014000D03*
Y0013000D03*
Y0012000D03*
Y0011000D03*
Y0010000D03*
Y0009000D03*
Y0008000D03*
Y0007000D03*
Y0006000D03*
Y0045000D03*
Y0044000D03*
Y0043000D03*
Y0042000D03*
Y0041000D03*
Y0040000D03*
Y0039000D03*
Y0038000D03*
Y0037000D03*
Y0036000D03*
Y0035000D03*
Y0034000D03*
Y0033000D03*
Y0032000D03*
Y0031000D03*
Y0030000D03*
Y0029000D03*
Y0028000D03*
Y0027000D03*
Y0026000D03*
X0007000Y0028000D03*
Y0027000D03*
Y0026000D03*
Y0025000D03*
Y0024000D03*
Y0023000D03*
Y0022000D03*
Y0021000D03*
Y0020000D03*
Y0031000D03*
Y0030000D03*
Y0035000D03*
Y0034000D03*
Y0033000D03*
X0024014Y0036808D03*
X0024998Y0012204D03*
X0026500Y0004750D03*
X0026000Y0044000D03*
X0005500D03*
X0002250Y0001250D03*
X0003000Y0002000D03*
X0005000Y0005000D03*
X0029250Y0049000D03*
X0006500Y0014000D03*
Y0015000D03*
%LPD*%
M02*
