*
G04 Mass Parameters ***
*
G04 Image ***
*
%IND:\ORCAD_G\PROJET_ORCAD9\HUGO\CARTE WIFI 2011\CARTE WIFI 2011.SST*%
%ICAS*%
%MOIN*%
%IPPOS*%
%ASAXBY*%
G74*%FSLAN2X34Y34*%
*
G04 Aperture Definitions ***
*
%ADD10R,0.0787X0.0236*%
%ADD11R,0.0640X0.0630*%
%ADD12R,0.0630X0.0640*%
%ADD13C,0.0800*%
%ADD14R,0.0800X0.0800*%
%ADD15C,0.1000*%
%ADD16C,0.0500*%
%ADD17C,0.0850*%
%ADD18R,0.0850X0.0850*%
%ADD19C,0.0750*%
%ADD20R,0.0750X0.0750*%
%ADD21C,0.1300*%
%ADD22R,0.1300X0.1300*%
%ADD23R,0.0700X0.0250*%
%ADD24C,0.0100*%
%ADD25C,0.0800*%
%ADD26C,0.0250*%
%ADD27C,0.0800*%
%ADD28C,0.0300*%
%ADD29C,0.0150*%
%ADD30C,0.0140*%
%ADD31C,0.0140*%
%ADD32C,0.0800*%
%ADD33R,0.0800X0.0800*%
%ADD34C,0.1000*%
%ADD35C,0.0500*%
%ADD36C,0.0850*%
%ADD37R,0.0850X0.0850*%
%ADD38C,0.0750*%
%ADD39R,0.0750X0.0750*%
%ADD40C,0.1300*%
%ADD41R,0.1300X0.1300*%
%ADD42R,0.0789X0.0236*%
%ADD43R,0.0640X0.0630*%
%ADD44R,0.0630X0.0640*%
%ADD45R,0.0750X0.0300*%
%ADD46C,0.0550*%
%ADD47C,0.0550*%
%ADD48C,0.0080*%
%ADD49C,0.0118*%
%ADD50C,0.0197*%
%ADD51C,0.0040*%
%ADD52C,0.0098*%
%ADD53C,0.0070*%
*
G04 Plot Data ***
*
G54D24*
G01X0027667Y0013093D02*
Y0012926D01*
Y0013010D02*
X0027167D01*
X0027251Y0012926D01*
X0022782Y0013176D02*
Y0012843D01*
X0022448Y0013176D01*
X0022365D01*
X0022282Y0013135D01*
Y0012885D01*
X0022365Y0012843D01*
X0027614Y0037344D02*
Y0037094D01*
X0027531Y0037053D01*
X0027448D01*
X0027364Y0037094D01*
Y0037344D01*
X0027448Y0037386D01*
X0027531D01*
X0027864Y0037219D01*
Y0036811D02*
Y0036644D01*
Y0036728D02*
X0027364D01*
X0027448Y0036644D01*
X0027864Y0036319D02*
Y0036153D01*
Y0036236D02*
X0027364D01*
X0027448Y0036153D01*
X0022550Y0037261D02*
X0022466Y0037178D01*
X0022383Y0037136D01*
X0022216D01*
X0022133Y0037178D01*
X0022050Y0037261D01*
Y0037344D01*
X0022133Y0037428D01*
X0022216Y0037469D01*
X0022383D01*
X0022466Y0037428D01*
X0022550Y0037344D01*
Y0037261D01*
Y0036894D02*
Y0036561D01*
X0022216Y0036894D01*
X0022133D01*
X0022050Y0036853D01*
Y0036603D01*
X0022133Y0036561D01*
X0022550Y0036319D02*
Y0036153D01*
Y0036236D02*
X0022050D01*
X0022133Y0036153D01*
X0017275Y0051875D02*
X0016942D01*
X0017108Y0052208D01*
X0017192D01*
Y0051708D01*
X0016492D02*
X0016408Y0051792D01*
X0016367Y0051875D01*
Y0052042D01*
X0016408Y0052125D01*
X0016492Y0052208D01*
X0016575D01*
X0016658Y0052125D01*
X0016700Y0052042D01*
Y0051875D01*
X0016658Y0051792D01*
X0016575Y0051708D01*
X0016492D01*
X0016042D02*
X0016125D01*
Y0051792D01*
X0016042D01*
Y0051708D01*
X0015425Y0051958D02*
X0015675D01*
X0015717Y0051875D01*
Y0051792D01*
X0015675Y0051708D01*
X0015425D01*
X0015383Y0051792D01*
Y0051875D01*
X0015550Y0052208D01*
X0014850Y0051958D02*
X0015100D01*
X0015142Y0051875D01*
Y0051792D01*
X0015100Y0051708D01*
X0014850D01*
X0014808Y0051792D01*
Y0051875D01*
X0014975Y0052208D01*
X0033708Y0023812D02*
Y0023979D01*
Y0023896D02*
X0034208D01*
X0034125Y0023979D01*
X0033708Y0024304D02*
Y0024471D01*
Y0024387D02*
X0034208D01*
X0034125Y0024471D01*
X0033708Y0024879D02*
Y0024796D01*
X0033792D01*
Y0024879D01*
X0033708D01*
X0033958Y0025246D02*
X0034042Y0025204D01*
X0034125D01*
X0034208Y0025246D01*
Y0025496D01*
X0034125Y0025537D01*
X0034042D01*
X0033958Y0025496D01*
Y0025246D01*
X0033875Y0025204D01*
X0033792D01*
X0033708Y0025246D01*
Y0025496D01*
X0033792Y0025537D01*
X0033875D01*
X0033958Y0025496D01*
X0033708Y0025779D02*
Y0025946D01*
Y0025862D02*
X0034208D01*
X0034125Y0025946D01*
X0033708Y0026271D02*
Y0026437D01*
Y0026354D02*
X0034208D01*
X0034125Y0026437D01*
X0027614Y0037344D02*
Y0037094D01*
X0027531Y0037053D01*
X0027448D01*
X0027364Y0037094D01*
Y0037344D01*
X0027448Y0037386D01*
X0027531D01*
X0027864Y0037219D01*
Y0036811D02*
Y0036644D01*
Y0036728D02*
X0027364D01*
X0027448Y0036644D01*
X0027864Y0036319D02*
Y0036153D01*
Y0036236D02*
X0027364D01*
X0027448Y0036153D01*
X0022550Y0037261D02*
X0022466Y0037178D01*
X0022383Y0037136D01*
X0022216D01*
X0022133Y0037178D01*
X0022050Y0037261D01*
Y0037344D01*
X0022133Y0037428D01*
X0022216Y0037469D01*
X0022383D01*
X0022466Y0037428D01*
X0022550Y0037344D01*
Y0037261D01*
Y0036894D02*
Y0036561D01*
X0022216Y0036894D01*
X0022133D01*
X0022050Y0036853D01*
Y0036603D01*
X0022133Y0036561D01*
X0022550Y0036319D02*
Y0036153D01*
Y0036236D02*
X0022050D01*
X0022133Y0036153D01*
X0027667Y0013093D02*
Y0012926D01*
Y0013010D02*
X0027167D01*
X0027251Y0012926D01*
X0022782Y0013176D02*
Y0012843D01*
X0022448Y0013176D01*
X0022365D01*
X0022282Y0013135D01*
Y0012885D01*
X0022365Y0012843D01*
X0032875Y0002000D02*
X0035125D01*
X0034000Y0023375D02*
Y0002000D01*
X0034187Y0002562D02*
X0034000Y0002000D01*
X0033812Y0002562D01*
X0032875Y0048500D02*
X0035125D01*
X0034000Y0027125D02*
Y0048500D01*
X0029000Y0050875D02*
Y0053125D01*
X0017796Y0052000D02*
X0029000D01*
X0028437Y0052187D02*
X0029000Y0052000D01*
X0028437Y0051812D01*
X0003000Y0050875D02*
Y0053125D01*
X0014204Y0052000D02*
X0003000D01*
X0003562Y0051812D02*
X0003000Y0052000D01*
X0003562Y0052187D01*
X0033812Y0047937D02*
X0034000Y0048500D01*
X0034187Y0047937D01*
X0029000Y0002000D02*
Y0048500D01*
X0003000D01*
Y0002000D01*
X0029000D01*
G54D48*
G01X0008363Y0010117D02*
X0008296Y0010049D01*
Y0009914D01*
X0008363Y0009846D01*
X0008431D01*
X0008567Y0009982D01*
X0008702Y0009846D01*
Y0010117D01*
X0008363Y0010582D02*
X0008296Y0010514D01*
Y0010379D01*
X0008363Y0010311D01*
X0008431D01*
X0008567Y0010447D01*
X0008702Y0010311D01*
Y0010582D01*
X0008431Y0011013D02*
X0008363D01*
X0008296Y0010979D01*
Y0010844D01*
X0008363Y0010810D01*
X0008702D01*
Y0010776D02*
Y0010912D01*
X0024306Y0036151D02*
X0024083D01*
X0024195Y0036373D01*
X0024250D01*
Y0036040D01*
X0023896D02*
X0023785D01*
X0023840D02*
Y0036373D01*
X0023785Y0036318D01*
X0023347Y0036151D02*
Y0036096D01*
X0023375Y0036040D01*
X0023486D01*
X0023514Y0036096D01*
Y0036373D01*
X0023541D02*
X0023430D01*
X0025067Y0011492D02*
X0025123Y0011436D01*
X0025234D01*
X0025290Y0011492D01*
Y0011547D01*
X0025179Y0011658D01*
X0025290Y0011769D01*
X0025067D01*
X0024880Y0011436D02*
X0024769D01*
X0024824D02*
Y0011769D01*
X0024769Y0011714D01*
X0024331Y0011547D02*
Y0011492D01*
X0024359Y0011436D01*
X0024470D01*
X0024498Y0011492D01*
Y0011769D01*
X0024525D02*
X0024414D01*
X0021796Y0007164D02*
Y0007299D01*
Y0007232D02*
X0022202D01*
X0022135Y0007299D01*
X0021863Y0007832D02*
X0021796Y0007764D01*
Y0007629D01*
X0021863Y0007561D01*
X0021931D01*
X0022067Y0007697D01*
X0022202Y0007561D01*
Y0007832D01*
X0021931Y0008263D02*
X0021863D01*
X0021796Y0008229D01*
Y0008094D01*
X0021863Y0008060D01*
X0022202D01*
Y0008026D02*
Y0008162D01*
X0012112Y0024993D02*
X0012167Y0025021D01*
Y0025188D01*
X0012112Y0025215D01*
X0012001D01*
X0011945Y0025160D01*
Y0024993D01*
X0011834D01*
Y0025215D01*
X0012001Y0024722D02*
X0012167Y0024805D01*
X0012001Y0024583D02*
Y0024750D01*
X0011945Y0024805D01*
X0011889D01*
X0011834Y0024750D01*
Y0024583D01*
X0012167D01*
X0011796Y0007096D02*
Y0007367D01*
X0012067Y0007096D01*
X0012135D01*
X0012202Y0007130D01*
Y0007333D01*
X0012135Y0007367D01*
X0011863Y0007832D02*
X0011796Y0007764D01*
Y0007629D01*
X0011863Y0007561D01*
X0011931D01*
X0012067Y0007697D01*
X0012202Y0007561D01*
Y0007832D01*
X0011931Y0008263D02*
X0011863D01*
X0011796Y0008229D01*
Y0008094D01*
X0011863Y0008060D01*
X0012202D01*
Y0008026D02*
Y0008162D01*
X0013056Y0025215D02*
Y0024993D01*
X0012834Y0025104D01*
Y0025160D01*
X0013167D01*
X0013001Y0024722D02*
X0013167Y0024805D01*
X0013001Y0024583D02*
Y0024750D01*
X0012945Y0024805D01*
X0012889D01*
X0012834Y0024750D01*
Y0024583D01*
X0013167D01*
X0014112Y0019993D02*
X0014167Y0020049D01*
Y0020160D01*
X0014112Y0020215D01*
X0014056D01*
X0013945Y0020104D01*
X0013834Y0020215D01*
Y0019993D01*
X0014001Y0019722D02*
X0014167Y0019805D01*
X0014001Y0019583D02*
Y0019750D01*
X0013945Y0019805D01*
X0013889D01*
X0013834Y0019750D01*
Y0019583D01*
X0014167D01*
Y0023215D02*
Y0022993D01*
X0013945Y0023215D01*
X0013889D01*
X0013834Y0023188D01*
Y0023021D01*
X0013889Y0022993D01*
X0014112Y0022805D02*
X0014167Y0022778D01*
Y0022611D01*
X0014112Y0022583D01*
X0013889D01*
X0013834Y0022611D01*
Y0022778D01*
X0013889Y0022805D01*
X0026182Y0008694D02*
X0026815Y0008377D01*
Y0008800D01*
X0026182Y0009012D02*
Y0009435D01*
X0026604Y0009012D01*
X0026710D01*
X0026815Y0009065D01*
Y0009382D01*
X0026710Y0009435D01*
X0026393Y0010017D02*
X0026288D01*
X0026182Y0009964D01*
Y0009753D01*
X0026288Y0009700D01*
X0026815D01*
Y0009647D02*
Y0009858D01*
X0016016Y0043704D02*
X0016083Y0043636D01*
X0016117Y0043569D01*
Y0043433D01*
X0016083Y0043365D01*
X0016016Y0043298D01*
X0015948D01*
X0015880Y0043365D01*
X0015846Y0043433D01*
Y0043569D01*
X0015880Y0043636D01*
X0015948Y0043704D01*
X0016016D01*
X0016582Y0043636D02*
X0016514Y0043704D01*
X0016379D01*
X0016311Y0043636D01*
Y0043569D01*
X0016447Y0043433D01*
X0016311Y0043298D01*
X0016582D01*
X0017013Y0043569D02*
Y0043636D01*
X0016979Y0043704D01*
X0016844D01*
X0016810Y0043636D01*
Y0043298D01*
X0016776D02*
X0016912D01*
X0012130Y0044001D02*
X0012333D01*
X0012367Y0043933D01*
Y0043865D01*
X0012333Y0043798D01*
X0012130D01*
X0012096Y0043865D01*
Y0043933D01*
X0012232Y0044204D01*
X0012561D02*
X0012832D01*
X0012561Y0043933D01*
Y0043865D01*
X0012595Y0043798D01*
X0012798D01*
X0012832Y0043865D01*
X0013263Y0044069D02*
Y0044136D01*
X0013229Y0044204D01*
X0013094D01*
X0013060Y0044136D01*
Y0043798D01*
X0013026D02*
X0013162D01*
X0017130Y0006001D02*
X0017096Y0005933D01*
Y0005865D01*
X0017130Y0005798D01*
X0017333D01*
X0017367Y0005865D01*
Y0005933D01*
X0017333Y0006001D01*
X0017130D01*
X0017096Y0006069D01*
Y0006136D01*
X0017130Y0006204D01*
X0017333D01*
X0017367Y0006136D01*
Y0006069D01*
X0017333Y0006001D01*
X0017561Y0006204D02*
X0017832D01*
X0017561Y0005933D01*
Y0005865D01*
X0017595Y0005798D01*
X0017798D01*
X0017832Y0005865D01*
X0018263Y0006069D02*
Y0006136D01*
X0018229Y0006204D01*
X0018094D01*
X0018060Y0006136D01*
Y0005798D01*
X0018026D02*
X0018162D01*
X0021204Y0014723D02*
Y0014452D01*
X0020933Y0014723D01*
X0020865D01*
X0020798Y0014689D01*
Y0014486D01*
X0020865Y0014452D01*
X0021001Y0014156D02*
X0021204Y0014258D01*
X0021001Y0013987D02*
Y0014190D01*
X0020933Y0014258D01*
X0020865D01*
X0020798Y0014190D01*
Y0013987D01*
X0021204D01*
X0018069Y0035154D02*
Y0034883D01*
X0017798Y0035018D01*
Y0035086D01*
X0018204D01*
Y0034689D02*
Y0034418D01*
X0017933Y0034689D01*
X0017865D01*
X0017798Y0034655D01*
Y0034452D01*
X0017865Y0034418D01*
X0018069Y0033987D02*
X0018136D01*
X0018204Y0034021D01*
Y0034156D01*
X0018136Y0034190D01*
X0017798D01*
Y0034224D02*
Y0034088D01*
X0018136Y0014883D02*
X0018204Y0014951D01*
Y0015086D01*
X0018136Y0015154D01*
X0018069D01*
X0017933Y0015018D01*
X0017798Y0015154D01*
Y0014883D01*
X0018204Y0014689D02*
Y0014418D01*
X0017933Y0014689D01*
X0017865D01*
X0017798Y0014655D01*
Y0014452D01*
X0017865Y0014418D01*
X0018069Y0013987D02*
X0018136D01*
X0018204Y0014021D01*
Y0014156D01*
X0018136Y0014190D01*
X0017798D01*
Y0014224D02*
Y0014088D01*
X0010846Y0036664D02*
Y0036799D01*
Y0036732D02*
X0011252D01*
X0011185Y0036799D01*
X0010846Y0037061D02*
Y0037332D01*
X0011117Y0037061D01*
X0011185D01*
X0011252Y0037095D01*
Y0037298D01*
X0011185Y0037332D01*
X0010981Y0037763D02*
X0010913D01*
X0010846Y0037729D01*
Y0037594D01*
X0010913Y0037560D01*
X0011252D01*
Y0037526D02*
Y0037662D01*
X0028993Y0048099D02*
X0029160D01*
X0029188Y0048044D01*
Y0047988D01*
X0029160Y0047932D01*
X0028993D01*
X0028965Y0047988D01*
Y0048044D01*
X0029076Y0048266D01*
X0028583Y0048044D02*
Y0047988D01*
X0028611Y0047932D01*
X0028722D01*
X0028750Y0047988D01*
Y0048266D01*
X0028778D02*
X0028667D01*
X0003771Y0005932D02*
X0003938Y0006266D01*
X0003715D01*
X0003333Y0006044D02*
Y0005988D01*
X0003361Y0005932D01*
X0003472D01*
X0003500Y0005988D01*
Y0006266D01*
X0003528D02*
X0003417D01*
X0001410Y0001599D02*
X0001438Y0001655D01*
Y0001710D01*
X0001410Y0001766D01*
X0001243D01*
X0001215Y0001710D01*
Y0001655D01*
X0001243Y0001599D01*
X0001410D01*
X0001438Y0001544D01*
Y0001488D01*
X0001410Y0001432D01*
X0001243D01*
X0001215Y0001488D01*
Y0001544D01*
X0001243Y0001599D01*
X0000833Y0001544D02*
Y0001488D01*
X0000861Y0001432D01*
X0000972D01*
X0001000Y0001488D01*
Y0001766D01*
X0001028D02*
X0000917D01*
X0026792Y0003682D02*
X0026570D01*
X0026792Y0003905D01*
Y0003960D01*
X0026764Y0004016D01*
X0026598D01*
X0026570Y0003960D01*
X0026382Y0003682D02*
X0026271D01*
X0026326D02*
Y0004016D01*
X0026271Y0003960D01*
X0025833Y0003794D02*
Y0003738D01*
X0025861Y0003682D01*
X0025972D01*
X0026000Y0003738D01*
Y0004016D01*
X0026028D02*
X0025917D01*
X0005204Y0015655D02*
Y0015519D01*
Y0015587D02*
X0004798D01*
X0004865Y0015519D01*
X0005204Y0015021D02*
X0004798D01*
X0005204Y0014987D02*
Y0015190D01*
X0005069Y0015258D01*
X0004933D01*
X0004798Y0015190D01*
Y0014987D01*
X0001160Y0002349D02*
X0000993D01*
X0000965Y0002405D01*
Y0002460D01*
X0000993Y0002516D01*
X0001160D01*
X0001188Y0002460D01*
Y0002405D01*
X0001076Y0002182D01*
X0000583Y0002294D02*
Y0002238D01*
X0000611Y0002182D01*
X0000722D01*
X0000750Y0002238D01*
Y0002516D01*
X0000778D02*
X0000667D01*
X0004903Y0044932D02*
X0004848Y0044988D01*
X0004820Y0045044D01*
Y0045155D01*
X0004848Y0045210D01*
X0004903Y0045266D01*
X0004959D01*
X0005014Y0045210D01*
X0005042Y0045155D01*
Y0045044D01*
X0005014Y0044988D01*
X0004959Y0044932D01*
X0004903D01*
X0004632D02*
X0004521D01*
X0004576D02*
Y0045266D01*
X0004521Y0045210D01*
X0004083Y0045044D02*
Y0044988D01*
X0004111Y0044932D01*
X0004222D01*
X0004250Y0044988D01*
Y0045266D01*
X0004278D02*
X0004167D01*
X0026236Y0042932D02*
X0026125D01*
X0026181D02*
Y0043266D01*
X0026125Y0043210D01*
X0025882Y0042932D02*
X0025771D01*
X0025826D02*
Y0043266D01*
X0025771Y0043210D01*
X0025333Y0043044D02*
Y0042988D01*
X0025361Y0042932D01*
X0025472D01*
X0025500Y0042988D01*
Y0043266D01*
X0025528D02*
X0025417D01*
X0010796Y0015846D02*
Y0016117D01*
X0011067Y0015846D01*
X0011135D01*
X0011202Y0015880D01*
Y0016083D01*
X0011135Y0016117D01*
X0010796Y0016311D02*
Y0016582D01*
X0011067Y0016311D01*
X0011135D01*
X0011202Y0016345D01*
Y0016548D01*
X0011135Y0016582D01*
X0010931Y0017013D02*
X0010863D01*
X0010796Y0016979D01*
Y0016844D01*
X0010863Y0016810D01*
X0011202D01*
Y0016776D02*
Y0016912D01*
X0012588Y0039806D02*
X0012477D01*
X0012532D02*
Y0040139D01*
X0012477Y0040083D01*
X0012234Y0039861D02*
X0012206Y0039806D01*
X0012039D01*
X0012011Y0039861D01*
Y0040083D01*
X0012039Y0040139D01*
X0012206D01*
X0012234Y0040083D01*
X0007796Y0034367D02*
X0008202Y0034164D01*
Y0034435D01*
X0007796Y0034629D02*
Y0034764D01*
Y0034697D02*
X0008202D01*
X0008135Y0034764D01*
X0007931Y0035263D02*
X0007863D01*
X0007796Y0035229D01*
Y0035094D01*
X0007863Y0035060D01*
X0008202D01*
Y0035026D02*
Y0035162D01*
X0008204Y0017155D02*
Y0017019D01*
Y0017087D02*
X0007798D01*
X0007865Y0017019D01*
X0008001Y0016656D02*
X0008204Y0016758D01*
X0008001Y0016487D02*
Y0016690D01*
X0007933Y0016758D01*
X0007865D01*
X0007798Y0016690D01*
Y0016487D01*
X0008204D01*
X0007999Y0030698D02*
X0008067Y0030664D01*
X0008135D01*
X0008202Y0030698D01*
Y0030901D01*
X0008135Y0030935D01*
X0008067D01*
X0007999Y0030901D01*
Y0030698D01*
X0007931Y0030664D01*
X0007863D01*
X0007796Y0030698D01*
Y0030901D01*
X0007863Y0030935D01*
X0007931D01*
X0007999Y0030901D01*
X0007796Y0031129D02*
Y0031264D01*
Y0031197D02*
X0008202D01*
X0008135Y0031264D01*
X0007931Y0031763D02*
X0007863D01*
X0007796Y0031729D01*
Y0031594D01*
X0007863Y0031560D01*
X0008202D01*
Y0031526D02*
Y0031662D01*
X0008499Y0025948D02*
Y0026151D01*
X0008567Y0026185D01*
X0008635D01*
X0008702Y0026151D01*
Y0025948D01*
X0008635Y0025914D01*
X0008567D01*
X0008296Y0026049D01*
Y0026379D02*
Y0026514D01*
Y0026447D02*
X0008702D01*
X0008635Y0026514D01*
X0008431Y0027013D02*
X0008363D01*
X0008296Y0026979D01*
Y0026844D01*
X0008363Y0026810D01*
X0008702D01*
Y0026776D02*
Y0026912D01*
X0007500Y0012500D03*
X0006500D01*
Y0006500D01*
X0007500D01*
Y0012500D01*
X0024014Y0036558D02*
Y0037058D01*
X0024274Y0036808D02*
X0023764D01*
X0025258Y0012204D02*
X0024748D01*
X0024998Y0011954D02*
Y0012454D01*
X0013358Y0038663D02*
X0012848D01*
Y0039283D01*
X0013358D01*
Y0038663D01*
X0013310Y0023930D02*
Y0023420D01*
X0012690D01*
Y0023930D01*
X0013310D01*
X0014310Y0020930D02*
Y0020420D01*
X0013690D01*
Y0020930D01*
X0014310D01*
X0021500Y0008500D02*
Y0005500D01*
X0020500D01*
Y0008500D01*
X0021500D01*
X0012310Y0023930D02*
Y0023420D01*
X0011690D01*
Y0023930D01*
X0012310D01*
X0011500Y0008500D02*
Y0005500D01*
X0010500D01*
Y0008500D01*
X0011500D01*
X0024000Y0006000D02*
X0026000D01*
Y0010000D01*
X0024000D01*
Y0006000D01*
Y0010000D03*
X0013500Y0044500D02*
Y0045500D01*
X0018500D01*
Y0044500D01*
X0013500D01*
X0012500Y0045500D03*
X0016000Y0007500D02*
Y0006500D01*
X0018000D01*
Y0007500D01*
X0016000D01*
X0014630Y0040250D02*
X0014180D01*
Y0040400D01*
X0013780D01*
Y0040250D01*
X0013380D01*
Y0042250D01*
X0014630D01*
Y0040250D01*
X0014310Y0023930D02*
Y0023420D01*
X0013690D01*
Y0023930D01*
X0014310D01*
X0007500Y0035500D02*
Y0032500D01*
X0006500D01*
Y0035500D01*
X0007500D01*
X0013500Y0044500D02*
X0010500D01*
Y0045500D01*
X0013500D01*
Y0044500D01*
X0008490Y0016100D02*
Y0018910D01*
X0007510D01*
Y0016100D01*
X0008490D01*
X0003000Y0002500D02*
Y0001500D01*
X0029750Y0049000D02*
X0028750D01*
X0021490Y0013600D02*
Y0016410D01*
X0020510D01*
Y0013600D01*
X0021490D01*
X0019500Y0005500D02*
Y0025500D01*
X0018500D01*
Y0005500D01*
X0019500D01*
X0029250Y0049500D02*
Y0048500D01*
X0002250Y0001750D02*
Y0000750D01*
X0006000Y0044000D02*
X0005000D01*
X0005500Y0044500D02*
Y0043500D01*
X0026500Y0044000D02*
X0025500D01*
X0026000Y0044500D02*
Y0043500D01*
X0019500Y0025500D02*
Y0045500D01*
X0018500D01*
Y0025500D01*
X0019500D01*
X0027000Y0004750D02*
X0026000D01*
X0026500Y0005250D02*
Y0004250D01*
X0007200Y0015200D02*
X0005800D01*
X0006900Y0015400D02*
X0006100D01*
X0005500Y0005000D02*
X0004500D01*
X0005000Y0005500D02*
Y0004500D01*
X0003500Y0002000D02*
X0002500D01*
X0007000Y0015300D02*
X0005900D01*
X0009500Y0045500D02*
Y0025500D01*
X0010500D01*
Y0045500D01*
X0009500D01*
X0007500Y0022500D02*
Y0028500D01*
X0006500D01*
Y0022500D01*
Y0019500D01*
X0007500D01*
Y0023000D01*
X0006500Y0029500D02*
X0007500D01*
Y0031500D01*
X0006500D01*
Y0029500D01*
X0007500Y0028500D03*
X0006500Y0022500D03*
X0002750Y0001250D02*
X0001750D01*
X0009500Y0025500D02*
Y0005500D01*
X0010500D01*
Y0025500D01*
X0009500D01*
G01X0014380Y0040388D02*
G03X0014492Y0040500I0000000J0000112D01*
G01X0014268D02*
G03X0014380Y0040388I0000112J0000000D01*
Y0040612D02*
G03X0014268Y0040500I0000000J0000112D01*
G01X0014492D02*
G03X0014380Y0040612I0000112J0000000D01*
G01X0006500Y0013439D02*
G03X0007561Y0014500I0000000J0001061D01*
G01X0005439D02*
G03X0006500Y0013439I0001061J0000000D01*
Y0015561D02*
G03X0005439Y0014500I0000000J0001061D01*
G01X0007561D02*
G03X0006500Y0015561I0001061J0000000D01*
G54D49*
G01X0024016Y0012130D02*
G03X0024295Y0012409I0000000J0000279D01*
G01X0023737D02*
G03X0024016Y0012130I0000279J0000000D01*
Y0012687D02*
G03X0023738Y0012409I0000000J0000278D01*
G01X0024294D02*
G03X0024016Y0012687I0000278J0000000D01*
Y0036538D02*
G03X0024295Y0036817I0000000J0000279D01*
G01X0023737D02*
G03X0024016Y0036538I0000279J0000000D01*
Y0037095D02*
G03X0023738Y0036817I0000000J0000278D01*
G01X0024294D02*
G03X0024016Y0037095I0000278J0000000D01*
Y0012130D02*
G03X0024295Y0012409I0000000J0000279D01*
G01X0023737D02*
G03X0024016Y0012130I0000279J0000000D01*
Y0012687D02*
G03X0023738Y0012409I0000000J0000278D01*
G01X0024294D02*
G03X0024016Y0012687I0000278J0000000D01*
Y0036538D02*
G03X0024295Y0036817I0000000J0000279D01*
G01X0023737D02*
G03X0024016Y0036538I0000279J0000000D01*
Y0037095D02*
G03X0023738Y0036817I0000000J0000278D01*
G01X0024294D02*
G03X0024016Y0037095I0000278J0000000D01*
G54D50*
G01X0026378Y0012016D02*
Y0037210D01*
X0023622D01*
Y0012016D01*
X0026378D01*
Y0037210D01*
X0023622D01*
Y0012016D01*
X0026378D01*
G54D51*
G01X0014850Y0040100D02*
X0015000Y0040250D01*
X0015150Y0040100D01*
X0014850D01*
G54D52*
G01X0025235Y0015088D02*
X0025323Y0015132D01*
Y0015394D01*
X0025235Y0015438D01*
X0025060D01*
X0024973Y0015351D01*
Y0015088D01*
X0024798D01*
Y0015438D01*
X0025235Y0014498D02*
X0025323Y0014585D01*
Y0014760D01*
X0025235Y0014848D01*
X0025148D01*
X0024973Y0014673D01*
X0024798Y0014848D01*
Y0014498D01*
X0025323Y0015766D02*
X0025235Y0015678D01*
X0025148Y0015635D01*
X0024973D01*
X0024885Y0015678D01*
X0024798Y0015766D01*
Y0015853D01*
X0024885Y0015941D01*
X0024973Y0015985D01*
X0025148D01*
X0025235Y0015941D01*
X0025323Y0015853D01*
Y0015766D01*
Y0015394D02*
Y0015044D01*
X0024973Y0015394D01*
X0024885D01*
X0024798Y0015351D01*
Y0015088D01*
X0024885Y0015044D01*
X0025148Y0014498D02*
X0025235D01*
X0025323Y0014542D01*
Y0014717D01*
X0025235Y0014760D01*
X0024798D01*
Y0014804D02*
Y0014629D01*
G54D53*
G01X0015883Y0041073D02*
Y0040940D01*
Y0041007D02*
X0015483D01*
X0015550Y0040940D01*
X0015483Y0040700D02*
X0015817D01*
X0015883Y0040667D01*
Y0040467D01*
X0015817Y0040433D01*
X0015483D01*
M02*
