*
G04 Mass Parameters ***
*
G04 Image ***
*
%IND:\ORCAD_G\PROJET_ORCAD9\HUGO\CARTE WIFI 2011\CARTE WIFI 2011-5.SMT*%
%ICAS*%
%MOIN*%
%IPPOS*%
%ASAXBY*%
G74*%FSLAN2X34Y34*%
*
G04 Aperture Definitions ***
*
%ADD10C,0.0850*%
%ADD11C,0.0800*%
%ADD12R,0.0800X0.0800*%
%ADD13C,0.1000*%
%ADD14R,0.0850X0.0850*%
%ADD15C,0.0750*%
%ADD16R,0.0750X0.0750*%
%ADD17R,0.0787X0.0236*%
%ADD18C,0.1300*%
%ADD19R,0.1300X0.1300*%
%ADD20R,0.0700X0.0250*%
%ADD21C,0.0700*%
%ADD22C,0.0500*%
%ADD23C,0.0700*%
%ADD24C,0.0250*%
%ADD25C,0.0700*%
%ADD26C,0.0100*%
%ADD27C,0.0300*%
%ADD28C,0.0150*%
%ADD29C,0.0200*%
%ADD30C,0.0140*%
%ADD31C,0.0140*%
%ADD32C,0.0850*%
%ADD33C,0.0800*%
%ADD34R,0.0800X0.0800*%
%ADD35C,0.1000*%
%ADD36R,0.0850X0.0850*%
%ADD37C,0.0750*%
%ADD38R,0.0750X0.0750*%
%ADD39C,0.1300*%
%ADD40R,0.1300X0.1300*%
%ADD41C,0.0700*%
%ADD42C,0.0400*%
%ADD43R,0.0789X0.0236*%
%ADD44R,0.0750X0.0300*%
%ADD45C,0.0550*%
%ADD46C,0.0550*%
*
G04 Plot Data ***
*
G54D22*
G01X0007000Y0047000D02*
X0044000D01*
Y-0002000D01*
X0007000D01*
Y0047000D01*
G54D32*
X0026000Y0012000D03*
Y0007000D03*
X0017000Y0013000D03*
Y0018000D03*
X0021000Y0043000D03*
X0020000D03*
X0016000Y0032000D03*
Y0031000D03*
X0014000Y0043000D03*
X0016000D03*
G54D33*
X0026000D03*
X0025000D03*
X0024000D03*
X0023000D03*
X0028000Y0025000D03*
Y0026000D03*
Y0027000D03*
Y0028000D03*
Y0029000D03*
Y0030000D03*
Y0031000D03*
Y0032000D03*
Y0033000D03*
Y0034000D03*
Y0035000D03*
Y0036000D03*
Y0037000D03*
Y0038000D03*
Y0039000D03*
Y0040000D03*
Y0041000D03*
Y0042000D03*
Y0043000D03*
Y0005000D03*
Y0006000D03*
Y0007000D03*
Y0008000D03*
Y0009000D03*
Y0010000D03*
Y0011000D03*
Y0012000D03*
Y0013000D03*
Y0014000D03*
Y0015000D03*
Y0016000D03*
Y0017000D03*
Y0018000D03*
Y0019000D03*
Y0020000D03*
Y0021000D03*
Y0022000D03*
Y0023000D03*
X0019000Y0022000D03*
Y0021000D03*
Y0020000D03*
Y0019000D03*
Y0018000D03*
Y0017000D03*
Y0016000D03*
Y0015000D03*
Y0014000D03*
Y0013000D03*
Y0012000D03*
Y0011000D03*
Y0010000D03*
Y0009000D03*
Y0008000D03*
Y0007000D03*
Y0006000D03*
Y0005000D03*
Y0004000D03*
Y0042000D03*
Y0041000D03*
Y0040000D03*
Y0039000D03*
Y0038000D03*
Y0037000D03*
Y0036000D03*
Y0035000D03*
Y0034000D03*
Y0033000D03*
Y0032000D03*
Y0031000D03*
Y0030000D03*
Y0029000D03*
Y0028000D03*
Y0027000D03*
Y0026000D03*
Y0025000D03*
Y0024000D03*
X0016000Y0025000D03*
Y0024000D03*
Y0023000D03*
Y0022000D03*
Y0021000D03*
Y0020000D03*
Y0019000D03*
Y0018000D03*
Y0009000D03*
Y0008000D03*
Y0007000D03*
Y0006000D03*
X0015500Y0013000D03*
G54D34*
X0027000Y0043000D03*
X0028000Y0024000D03*
Y0004000D03*
X0019000Y0023000D03*
Y0043000D03*
X0016000Y0026000D03*
Y0010000D03*
X0015500Y0012000D03*
G54D35*
X0038500Y0003500D03*
Y0046000D03*
X0038250Y0054500D03*
X0037000Y0053500D03*
X0007500Y0004000D03*
X0037500Y0040500D03*
X0008500Y0047000D03*
G54D36*
X0022000Y0043000D03*
X0016000Y0033000D03*
G54D37*
X0025000Y0005000D03*
X0016000Y0028000D03*
G54D38*
X0026000Y0005000D03*
X0016000Y0029000D03*
G54D39*
X0024000Y0001000D03*
G54D40*
X0026000D03*
G54D43*
X0035878Y0005772D03*
X0033122D03*
X0035878Y0006165D03*
X0033122D03*
X0035878Y0006559D03*
X0033122D03*
X0035878Y0006953D03*
X0033122D03*
X0035878Y0007346D03*
X0033122D03*
X0035878Y0007740D03*
X0033122D03*
X0035878Y0008134D03*
X0033122D03*
X0035878Y0008527D03*
X0033122D03*
X0035878Y0008921D03*
X0033122D03*
X0035878Y0009315D03*
X0033122D03*
X0035878Y0009709D03*
X0033122D03*
X0035878Y0010102D03*
X0033122D03*
X0035878Y0010496D03*
X0033122D03*
X0035878Y0010890D03*
X0033122D03*
X0035878Y0011283D03*
X0033122D03*
X0035878Y0012071D03*
X0033122D03*
X0035878Y0012464D03*
X0033122D03*
X0035878Y0012858D03*
X0033122D03*
X0035878Y0013252D03*
X0033122D03*
X0035878Y0013646D03*
X0033122D03*
X0035878Y0014039D03*
X0033122D03*
X0035878Y0014433D03*
X0033122D03*
X0035878Y0014827D03*
X0033122D03*
X0035878Y0015220D03*
X0033122D03*
X0035878Y0015614D03*
X0033122D03*
X0035878Y0016008D03*
X0033122D03*
X0035878Y0016402D03*
X0033122D03*
X0035878Y0016795D03*
X0033122D03*
X0035878Y0017189D03*
X0033122D03*
X0035878Y0017583D03*
X0033122D03*
X0035878Y0018370D03*
X0033122D03*
X0035878Y0018764D03*
X0033122D03*
X0035878Y0019157D03*
X0033122D03*
X0035878Y0019551D03*
X0033122D03*
X0035878Y0019945D03*
X0033122D03*
X0035878Y0020339D03*
X0033122D03*
X0035878Y0020732D03*
X0033122D03*
X0035878Y0021126D03*
X0033122D03*
X0035878Y0021520D03*
X0033122D03*
X0035878Y0021913D03*
X0033122D03*
X0035878Y0022307D03*
X0033122D03*
X0035878Y0022701D03*
X0033122D03*
X0035878Y0023094D03*
X0033122D03*
X0035878Y0023488D03*
X0033122D03*
X0035878Y0023882D03*
X0033122D03*
X0035878Y0024276D03*
X0033122D03*
X0035878Y0024669D03*
X0033122D03*
X0035878Y0025063D03*
X0033122D03*
X0035878Y0025457D03*
X0033122D03*
X0035878Y0025850D03*
X0033122D03*
X0035878Y0026244D03*
X0033122D03*
X0035878Y0026638D03*
X0033122D03*
X0035878Y0027032D03*
X0033122D03*
X0035878Y0027425D03*
X0033122D03*
X0035878Y0027819D03*
X0033122D03*
X0035878Y0028213D03*
X0033122D03*
X0035878Y0028606D03*
X0033122D03*
X0035878Y0029000D03*
X0033122D03*
G54D44*
X0013975Y0041750D03*
Y0041250D03*
Y0040750D03*
Y0040250D03*
X0016025D03*
Y0040750D03*
Y0041250D03*
Y0041750D03*
G54D45*
X0028000Y0004000D03*
G54D46*
X0013975Y0039025D03*
X0016500Y0039250D03*
X0014750Y0033000D03*
X0015000Y0007000D03*
X0017000Y0025000D03*
Y0024000D03*
Y0009000D03*
M02*
