*
G04 Mass Parameters ***
*
G04 Image ***
*
%IND:\ORCAD_G\PROJET_ORCAD9\HUGO\CARTE WIFI 2011\CARTE WIFI 2011-5.BOT*%
%ICAS*%
%MOIN*%
%IPPOS*%
%ASAXBY*%
G74*%FSLAN2X34Y34*%
*
G04 Aperture Definitions ***
*
%ADD10C,0.0850*%
%ADD11C,0.0800*%
%ADD12R,0.0800X0.0800*%
%ADD13C,0.1000*%
%ADD14R,0.0850X0.0850*%
%ADD15C,0.0750*%
%ADD16R,0.0750X0.0750*%
%ADD17R,0.0787X0.0236*%
%ADD18C,0.1300*%
%ADD19R,0.1300X0.1300*%
%ADD20R,0.0700X0.0250*%
%ADD21C,0.0700*%
%ADD22C,0.0500*%
%ADD23C,0.0700*%
%ADD24C,0.0250*%
%ADD25C,0.0700*%
%ADD26C,0.0100*%
%ADD27C,0.0300*%
%ADD28C,0.0150*%
%ADD29C,0.0200*%
%ADD30C,0.0140*%
%ADD31C,0.0140*%
%ADD32C,0.0850*%
%ADD33C,0.0800*%
%ADD34R,0.0800X0.0800*%
%ADD35C,0.1000*%
%ADD36R,0.0850X0.0850*%
%ADD37C,0.0750*%
%ADD38R,0.0750X0.0750*%
%ADD39C,0.1300*%
%ADD40R,0.1300X0.1300*%
%ADD41C,0.0700*%
%ADD42C,0.0400*%
*
G04 Plot Data ***
*
G54D22*
G01X0007000Y0047000D02*
X0044000D01*
Y-0002000D01*
X0007000D01*
Y0047000D01*
G54D24*
G01X0016000Y0028000D02*
X0015000D01*
Y0018000D01*
X0016000D01*
Y0031000D02*
X0015250D01*
X0015200D01*
X0015000D01*
Y0028000D01*
X0016000D01*
X0013975Y0039025D02*
Y0032225D01*
X0015200Y0031000D01*
X0016000D01*
X0017000Y0018000D02*
X0016000D01*
X0014750D01*
X0014500Y0017750D01*
Y0006250D01*
X0014750Y0006000D01*
X0016000D01*
X0016500Y0039250D02*
X0017250D01*
X0018000Y0040000D01*
Y0040750D01*
X0018250Y0041000D01*
X0019000D01*
X0016000Y0008000D02*
X0017000D01*
X0018000Y0009000D01*
X0019000D01*
X0016000Y0033000D02*
X0014750D01*
X0015000Y0007000D02*
X0016000D01*
X0017000Y0025000D02*
X0016000D01*
Y0024000D02*
X0017000D01*
X0019000Y0011000D02*
X0017750D01*
X0016750Y0012000D01*
X0015500D01*
X0017000Y0013000D02*
X0015500D01*
X0016000Y0009000D02*
X0017000D01*
X0019000Y0010000D02*
X0016000D01*
G54D26*
G01X0046237Y0056208D02*
X0046404D01*
X0046321D02*
Y0056708D01*
X0046404Y0056625D01*
X0046729Y0056208D02*
X0046896D01*
X0046812D02*
Y0056708D01*
X0046896Y0056625D01*
X0047429Y0056208D02*
X0047512Y0056292D01*
X0047554Y0056375D01*
Y0056542D01*
X0047512Y0056625D01*
X0047429Y0056708D01*
X0047346D01*
X0047262Y0056625D01*
X0047221Y0056542D01*
Y0056375D01*
X0047262Y0056292D01*
X0047346Y0056208D01*
X0047429D01*
X0047796D02*
X0048129D01*
X0047796Y0056542D01*
Y0056625D01*
X0047837Y0056708D01*
X0048087D01*
X0048129Y0056625D01*
X0049133Y0056708D02*
Y0056208D01*
X0049217Y0056292D01*
X0049383Y0056625D01*
X0049467Y0056708D01*
Y0056208D01*
X0049792Y0056458D02*
X0050042D01*
X0049708Y0056208D02*
X0050042D01*
Y0056708D01*
X0049708D01*
X0050283Y0056375D02*
X0050617D01*
X0050283Y0056208D02*
Y0056458D01*
X0050408Y0056708D01*
X0050492D01*
X0050617Y0056458D01*
Y0056208D01*
X0050858Y0056292D02*
X0050900Y0056208D01*
X0051150D01*
X0051192Y0056292D01*
Y0056625D01*
X0051150Y0056708D01*
X0050900D01*
X0050858Y0056625D01*
X0051433Y0056208D02*
X0051600D01*
X0051517D02*
Y0056708D01*
X0051433D02*
X0051600D01*
X0051925Y0056625D02*
X0051967Y0056708D01*
X0052217D01*
X0052258Y0056625D01*
Y0056542D01*
X0052217Y0056458D01*
X0051967D01*
X0051925Y0056375D01*
Y0056292D01*
X0051967Y0056208D01*
X0052217D01*
X0052258Y0056292D01*
X0052500Y0056708D02*
Y0056208D01*
X0052583Y0056292D01*
X0052750Y0056625D01*
X0052833Y0056708D01*
Y0056208D01*
X0053158Y0056458D02*
X0053408D01*
X0053075Y0056208D02*
X0053408D01*
Y0056708D01*
X0053075D01*
X0047062Y0042687D02*
X0047104Y0042604D01*
X0047354D01*
X0047395Y0042687D01*
Y0043021D01*
X0047354Y0043104D01*
X0047104D01*
X0047062Y0043021D01*
X0047637Y0042687D02*
X0047679Y0042604D01*
X0047929D01*
X0047970Y0042687D01*
Y0043021D01*
X0047929Y0043104D01*
X0047679D01*
X0047637Y0043021D01*
X0048212Y0042771D02*
X0048545D01*
X0048212Y0042604D02*
Y0042854D01*
X0048337Y0043104D01*
X0048420D01*
X0048545Y0042854D01*
Y0042604D01*
X0049633Y0042854D02*
X0049883D01*
X0049550Y0042604D02*
X0049883D01*
Y0043104D01*
X0049550D01*
X0050250Y0042854D02*
X0050125Y0042604D01*
X0050458Y0042854D02*
X0050208D01*
X0050125Y0042937D01*
Y0043021D01*
X0050208Y0043104D01*
X0050458D01*
Y0042604D01*
X0050700Y0043104D02*
Y0042687D01*
X0050741Y0042604D01*
X0050991D01*
X0051033Y0042687D01*
Y0043104D01*
X0051275Y0043021D02*
X0051316Y0043104D01*
X0051566D01*
X0051608Y0043021D01*
Y0042937D01*
X0051566Y0042854D01*
X0051316D01*
X0051275Y0042771D01*
Y0042687D01*
X0051316Y0042604D01*
X0051566D01*
X0051608Y0042687D01*
X0051933Y0042854D02*
X0052183D01*
X0051850Y0042604D02*
X0052183D01*
Y0043104D01*
X0051850D01*
X0052425Y0042604D02*
Y0043104D01*
X0052508Y0043021D01*
X0052591Y0042854D01*
X0052675Y0043021D01*
X0052758Y0043104D01*
Y0042604D01*
G54D42*
G01X0016000Y0006000D02*
X0018000Y0004000D01*
X0019000D01*
Y0019000D02*
X0016000D01*
X0019000Y0022000D02*
X0016000D01*
X0019000Y0026000D02*
X0017500D01*
X0017000Y0026500D01*
Y0028000D01*
X0016000Y0029000D01*
X0019000Y0021000D02*
X0016000D01*
X0019000Y0020000D02*
X0016000D01*
X0019000Y0027000D02*
X0017500Y0028500D01*
Y0030500D01*
X0016000Y0032000D01*
G54D25*
X0013975Y0039025D03*
X0016500Y0039250D03*
X0014750Y0033000D03*
X0015000Y0007000D03*
X0017000Y0025000D03*
Y0024000D03*
Y0009000D03*
G54D32*
X0026000Y0012000D03*
Y0007000D03*
X0017000Y0013000D03*
Y0018000D03*
X0021000Y0043000D03*
X0020000D03*
X0016000Y0032000D03*
Y0031000D03*
X0014000Y0043000D03*
X0016000D03*
G54D33*
X0026000D03*
X0025000D03*
X0024000D03*
X0023000D03*
X0028000Y0025000D03*
Y0026000D03*
Y0027000D03*
Y0028000D03*
Y0029000D03*
Y0030000D03*
Y0031000D03*
Y0032000D03*
Y0033000D03*
Y0034000D03*
Y0035000D03*
Y0036000D03*
Y0037000D03*
Y0038000D03*
Y0039000D03*
Y0040000D03*
Y0041000D03*
Y0042000D03*
Y0043000D03*
Y0005000D03*
Y0006000D03*
Y0007000D03*
Y0008000D03*
Y0009000D03*
Y0010000D03*
Y0011000D03*
Y0012000D03*
Y0013000D03*
Y0014000D03*
Y0015000D03*
Y0016000D03*
Y0017000D03*
Y0018000D03*
Y0019000D03*
Y0020000D03*
Y0021000D03*
Y0022000D03*
Y0023000D03*
X0019000Y0022000D03*
Y0021000D03*
Y0020000D03*
Y0019000D03*
Y0018000D03*
Y0017000D03*
Y0016000D03*
Y0015000D03*
Y0014000D03*
Y0013000D03*
Y0012000D03*
Y0011000D03*
Y0010000D03*
Y0009000D03*
Y0008000D03*
Y0007000D03*
Y0006000D03*
Y0005000D03*
Y0004000D03*
Y0042000D03*
Y0041000D03*
Y0040000D03*
Y0039000D03*
Y0038000D03*
Y0037000D03*
Y0036000D03*
Y0035000D03*
Y0034000D03*
Y0033000D03*
Y0032000D03*
Y0031000D03*
Y0030000D03*
Y0029000D03*
Y0028000D03*
Y0027000D03*
Y0026000D03*
Y0025000D03*
Y0024000D03*
X0016000Y0025000D03*
Y0024000D03*
Y0023000D03*
Y0022000D03*
Y0021000D03*
Y0020000D03*
Y0019000D03*
Y0018000D03*
Y0009000D03*
Y0008000D03*
Y0007000D03*
Y0006000D03*
X0015500Y0013000D03*
G54D34*
X0027000Y0043000D03*
X0028000Y0024000D03*
Y0004000D03*
X0019000Y0023000D03*
Y0043000D03*
X0016000Y0026000D03*
Y0010000D03*
X0015500Y0012000D03*
G54D35*
X0038500Y0003500D03*
Y0046000D03*
X0038250Y0054500D03*
X0037000Y0053500D03*
X0007500Y0004000D03*
X0037500Y0040500D03*
X0008500Y0047000D03*
G54D36*
X0022000Y0043000D03*
X0016000Y0033000D03*
G54D37*
X0025000Y0005000D03*
X0016000Y0028000D03*
G54D38*
X0026000Y0005000D03*
X0016000Y0029000D03*
G54D39*
X0024000Y0001000D03*
G54D40*
X0026000D03*
G54D41*
X0028000Y0004000D03*
G54D30*
%LPC*%
X0013975Y0039025D03*
X0016500Y0039250D03*
X0014750Y0033000D03*
X0015000Y0007000D03*
X0017000Y0025000D03*
Y0024000D03*
Y0009000D03*
%LPD*%
G54D31*
%LPC*%
X0028000Y0004000D03*
X0026000Y0012000D03*
Y0007000D03*
X0017000Y0013000D03*
Y0018000D03*
X0027000Y0043000D03*
X0026000D03*
X0025000D03*
X0024000D03*
X0023000D03*
X0022000D03*
X0021000D03*
X0020000D03*
X0026000Y0005000D03*
X0025000D03*
X0026000Y0001000D03*
X0024000D03*
X0028000Y0024000D03*
Y0025000D03*
Y0026000D03*
Y0027000D03*
Y0028000D03*
Y0029000D03*
Y0030000D03*
Y0031000D03*
Y0032000D03*
Y0033000D03*
Y0034000D03*
Y0035000D03*
Y0036000D03*
Y0037000D03*
Y0038000D03*
Y0039000D03*
Y0040000D03*
Y0041000D03*
Y0042000D03*
Y0043000D03*
Y0004000D03*
Y0005000D03*
Y0006000D03*
Y0007000D03*
Y0008000D03*
Y0009000D03*
Y0010000D03*
Y0011000D03*
Y0012000D03*
Y0013000D03*
Y0014000D03*
Y0015000D03*
Y0016000D03*
Y0017000D03*
Y0018000D03*
Y0019000D03*
Y0020000D03*
Y0021000D03*
Y0022000D03*
Y0023000D03*
X0019000D03*
Y0022000D03*
Y0021000D03*
Y0020000D03*
Y0019000D03*
Y0018000D03*
Y0017000D03*
Y0016000D03*
Y0015000D03*
Y0014000D03*
Y0013000D03*
Y0012000D03*
Y0011000D03*
Y0010000D03*
Y0009000D03*
Y0008000D03*
Y0007000D03*
Y0006000D03*
Y0005000D03*
Y0004000D03*
Y0043000D03*
Y0042000D03*
Y0041000D03*
Y0040000D03*
Y0039000D03*
Y0038000D03*
Y0037000D03*
Y0036000D03*
Y0035000D03*
Y0034000D03*
Y0033000D03*
Y0032000D03*
Y0031000D03*
Y0030000D03*
Y0029000D03*
Y0028000D03*
Y0027000D03*
Y0026000D03*
Y0025000D03*
Y0024000D03*
X0016000Y0026000D03*
Y0025000D03*
Y0024000D03*
Y0023000D03*
Y0022000D03*
Y0021000D03*
Y0020000D03*
Y0019000D03*
Y0018000D03*
Y0029000D03*
Y0028000D03*
Y0033000D03*
Y0032000D03*
Y0031000D03*
Y0010000D03*
Y0009000D03*
Y0008000D03*
Y0007000D03*
Y0006000D03*
X0038500Y0003500D03*
Y0046000D03*
X0038250Y0054500D03*
X0037000Y0053500D03*
X0007500Y0004000D03*
X0037500Y0040500D03*
X0008500Y0047000D03*
X0015500Y0012000D03*
Y0013000D03*
X0014000Y0043000D03*
X0016000D03*
%LPD*%
M02*
