*
G04 Mass Parameters ***
*
G04 Image ***
*
%IND:\ORCAD_G\PROJET_ORCAD9\HUGO\CARTE WIFI 2011\CARTE WIFI 2011-5.AST*%
%ICAS*%
%MOIN*%
%IPPOS*%
%ASAXBY*%
G74*%FSLAN2X34Y34*%
*
G04 Aperture Definitions ***
*
%ADD10C,0.0850*%
%ADD11C,0.0800*%
%ADD12R,0.0800X0.0800*%
%ADD13C,0.1000*%
%ADD14R,0.0850X0.0850*%
%ADD15C,0.0750*%
%ADD16R,0.0750X0.0750*%
%ADD17R,0.0787X0.0236*%
%ADD18C,0.1300*%
%ADD19R,0.1300X0.1300*%
%ADD20R,0.0700X0.0250*%
%ADD21C,0.0700*%
%ADD22C,0.0500*%
%ADD23C,0.0700*%
%ADD24C,0.0250*%
%ADD25C,0.0700*%
%ADD26C,0.0100*%
%ADD27C,0.0300*%
%ADD28C,0.0150*%
%ADD29C,0.0200*%
%ADD30C,0.0140*%
%ADD31C,0.0140*%
%ADD32C,0.0850*%
%ADD33C,0.0800*%
%ADD34R,0.0800X0.0800*%
%ADD35C,0.1000*%
%ADD36R,0.0850X0.0850*%
%ADD37C,0.0750*%
%ADD38R,0.0750X0.0750*%
%ADD39C,0.1300*%
%ADD40R,0.1300X0.1300*%
%ADD41C,0.0700*%
%ADD42C,0.0400*%
%ADD43R,0.0789X0.0236*%
%ADD44R,0.0750X0.0300*%
%ADD45C,0.0550*%
%ADD46C,0.0550*%
%ADD47C,0.0080*%
%ADD48C,0.0118*%
%ADD49C,0.0197*%
%ADD50C,0.0040*%
%ADD51C,0.0098*%
%ADD52C,0.0070*%
*
G04 Plot Data ***
*
G54D22*
G01X0007000Y0047000D02*
X0044000D01*
Y-0002000D01*
X0007000D01*
Y0047000D01*
G54D47*
G01X0015030Y0043181D02*
X0015150D01*
X0015090D02*
Y0042821D01*
X0015150Y0042881D01*
X0015400Y0043121D02*
X0015430Y0043181D01*
X0015610D01*
X0015640Y0043121D01*
Y0042881D01*
X0015610Y0042821D01*
X0015430D01*
X0015400Y0042881D01*
X0015777Y0044366D02*
X0015806Y0044424D01*
X0015979D01*
X0016008Y0044366D01*
Y0044135D01*
X0015979Y0044077D01*
X0015806D01*
X0015777Y0044135D01*
X0024453Y0002818D02*
X0024876D01*
X0024453Y0002396D01*
Y0002290D01*
X0024506Y0002185D01*
X0024823D01*
X0024876Y0002290D01*
X0025088Y0002185D02*
Y0002818D01*
X0025194Y0002712D01*
X0025405Y0002290D01*
X0025511Y0002185D01*
Y0002818D01*
X0026093D02*
X0026146Y0002712D01*
Y0002290D01*
X0026093Y0002185D01*
X0025776D01*
X0025723Y0002290D01*
Y0002712D01*
X0025776Y0002818D01*
X0026093D01*
X0026358Y0002712D02*
X0026411Y0002818D01*
X0026728D01*
X0026781Y0002712D01*
Y0002290D01*
X0026728Y0002185D01*
X0026411D01*
X0026358Y0002290D01*
X0025016Y0041704D02*
X0025083Y0041636D01*
X0025117Y0041569D01*
Y0041433D01*
X0025083Y0041365D01*
X0025016Y0041298D01*
X0024948D01*
X0024880Y0041365D01*
X0024846Y0041433D01*
Y0041569D01*
X0024880Y0041636D01*
X0024948Y0041704D01*
X0025016D01*
X0025582Y0041636D02*
X0025514Y0041704D01*
X0025379D01*
X0025311Y0041636D01*
Y0041569D01*
X0025447Y0041433D01*
X0025311Y0041298D01*
X0025582D01*
X0026013Y0041569D02*
Y0041636D01*
X0025979Y0041704D01*
X0025844D01*
X0025810Y0041636D01*
Y0041298D01*
X0025776D02*
X0025912D01*
X0024788Y0044636D02*
X0024754Y0044704D01*
X0024551D01*
X0024517Y0044636D01*
Y0044501D01*
X0024584Y0044433D01*
X0024788D01*
Y0044298D01*
X0024517D01*
X0024982D02*
Y0044704D01*
X0025049Y0044636D01*
X0025185Y0044365D01*
X0025253Y0044298D01*
Y0044704D01*
X0025684D02*
X0025718Y0044636D01*
Y0044365D01*
X0025684Y0044298D01*
X0025481D01*
X0025447Y0044365D01*
Y0044636D01*
X0025481Y0044704D01*
X0025684D01*
X0025912Y0044636D02*
X0025946Y0044704D01*
X0026149D01*
X0026183Y0044636D01*
Y0044365D01*
X0026149Y0044298D01*
X0025946D01*
X0025912Y0044365D01*
X0021130Y0042001D02*
X0021333D01*
X0021367Y0041933D01*
Y0041865D01*
X0021333Y0041798D01*
X0021130D01*
X0021096Y0041865D01*
Y0041933D01*
X0021232Y0042204D01*
X0021561D02*
X0021832D01*
X0021561Y0041933D01*
Y0041865D01*
X0021595Y0041798D01*
X0021798D01*
X0021832Y0041865D01*
X0022263Y0042069D02*
Y0042136D01*
X0022229Y0042204D01*
X0022094D01*
X0022060Y0042136D01*
Y0041798D01*
X0022026D02*
X0022162D01*
X0020708Y0044231D02*
X0020660Y0044279D01*
X0020564D01*
X0020517Y0044231D01*
Y0044183D01*
X0020612Y0044088D01*
X0020517Y0043992D01*
X0020708D01*
X0020892D02*
Y0044279D01*
X0020939Y0044231D01*
X0021035Y0044040D01*
X0021083Y0043992D01*
Y0044279D01*
X0021434D02*
X0021458Y0044231D01*
Y0044040D01*
X0021434Y0043992D01*
X0021291D01*
X0021267Y0044040D01*
Y0044231D01*
X0021291Y0044279D01*
X0021434D01*
X0021642Y0044231D02*
X0021666Y0044279D01*
X0021809D01*
X0021833Y0044231D01*
Y0044040D01*
X0021809Y0043992D01*
X0021666D01*
X0021642Y0044040D01*
X0025796Y0009777D02*
Y0010048D01*
X0026067Y0009777D01*
X0026135D01*
X0026202Y0009811D01*
Y0010014D01*
X0026135Y0010048D01*
X0025999Y0010344D02*
X0025796Y0010242D01*
X0025999Y0010513D02*
Y0010310D01*
X0026067Y0010242D01*
X0026135D01*
X0026202Y0010310D01*
Y0010513D01*
X0025796D01*
X0025267Y0006204D02*
X0025538D01*
X0025267Y0005933D01*
Y0005865D01*
X0025301Y0005798D01*
X0025504D01*
X0025538Y0005865D01*
X0025732Y0005798D02*
Y0006204D01*
X0025799Y0006136D01*
X0025935Y0005865D01*
X0026003Y0005798D01*
Y0006204D01*
X0026434D02*
X0026468Y0006136D01*
Y0005865D01*
X0026434Y0005798D01*
X0026231D01*
X0026197Y0005865D01*
Y0006136D01*
X0026231Y0006204D01*
X0026434D01*
X0026662Y0006136D02*
X0026696Y0006204D01*
X0026899D01*
X0026933Y0006136D01*
Y0005865D01*
X0026899Y0005798D01*
X0026696D01*
X0026662Y0005865D01*
X0025630Y0004001D02*
X0025596Y0003933D01*
Y0003865D01*
X0025630Y0003798D01*
X0025833D01*
X0025867Y0003865D01*
Y0003933D01*
X0025833Y0004001D01*
X0025630D01*
X0025596Y0004069D01*
Y0004136D01*
X0025630Y0004204D01*
X0025833D01*
X0025867Y0004136D01*
Y0004069D01*
X0025833Y0004001D01*
X0026061Y0004204D02*
X0026332D01*
X0026061Y0003933D01*
Y0003865D01*
X0026095Y0003798D01*
X0026298D01*
X0026332Y0003865D01*
X0026763Y0004069D02*
Y0004136D01*
X0026729Y0004204D01*
X0026594D01*
X0026560Y0004136D01*
Y0003798D01*
X0026526D02*
X0026662D01*
X0024999Y0009651D02*
X0024796Y0009549D01*
X0024999Y0009821D02*
Y0009617D01*
X0025067Y0009549D01*
X0025135D01*
X0025202Y0009617D01*
Y0009821D01*
X0024796D01*
Y0010184D02*
X0024863Y0010252D01*
X0024931Y0010286D01*
X0025067D01*
X0025135Y0010252D01*
X0025202Y0010184D01*
Y0010116D01*
X0025135Y0010048D01*
X0025067Y0010014D01*
X0024931D01*
X0024863Y0010048D01*
X0024796Y0010116D01*
Y0010184D01*
Y0010479D02*
Y0010615D01*
Y0010547D02*
X0025202D01*
X0025135Y0010615D01*
X0029204Y0012779D02*
X0029136Y0012711D01*
X0029069Y0012677D01*
X0028933D01*
X0028865Y0012711D01*
X0028798Y0012779D01*
Y0012847D01*
X0028865Y0012914D01*
X0028933Y0012948D01*
X0029069D01*
X0029136Y0012914D01*
X0029204Y0012847D01*
Y0012779D01*
Y0012483D02*
Y0012212D01*
X0028933Y0012483D01*
X0028865D01*
X0028798Y0012449D01*
Y0012246D01*
X0028865Y0012212D01*
X0028798Y0012018D02*
X0029204D01*
X0029136Y0011950D01*
X0028865Y0011815D01*
X0028798Y0011747D01*
X0029204D01*
Y0011316D02*
X0029136Y0011282D01*
X0028865D01*
X0028798Y0011316D01*
Y0011519D01*
X0028865Y0011553D01*
X0029136D01*
X0029204Y0011519D01*
Y0011316D01*
X0029136Y0011088D02*
X0029204Y0011054D01*
Y0010851D01*
X0029136Y0010817D01*
X0028865D01*
X0028798Y0010851D01*
Y0011054D01*
X0028865Y0011088D01*
X0027069Y0033154D02*
Y0032883D01*
X0026798Y0033018D01*
Y0033086D01*
X0027204D01*
Y0032689D02*
Y0032418D01*
X0026933Y0032689D01*
X0026865D01*
X0026798Y0032655D01*
Y0032452D01*
X0026865Y0032418D01*
X0027069Y0031987D02*
X0027136D01*
X0027204Y0032021D01*
Y0032156D01*
X0027136Y0032190D01*
X0026798D01*
Y0032224D02*
Y0032088D01*
X0029204Y0032779D02*
X0029136Y0032711D01*
X0029069Y0032677D01*
X0028933D01*
X0028865Y0032711D01*
X0028798Y0032779D01*
Y0032847D01*
X0028865Y0032914D01*
X0028933Y0032948D01*
X0029069D01*
X0029136Y0032914D01*
X0029204Y0032847D01*
Y0032779D01*
Y0032483D02*
Y0032212D01*
X0028933Y0032483D01*
X0028865D01*
X0028798Y0032449D01*
Y0032246D01*
X0028865Y0032212D01*
X0028798Y0032018D02*
X0029204D01*
X0029136Y0031950D01*
X0028865Y0031815D01*
X0028798Y0031747D01*
X0029204D01*
Y0031316D02*
X0029136Y0031282D01*
X0028865D01*
X0028798Y0031316D01*
Y0031519D01*
X0028865Y0031553D01*
X0029136D01*
X0029204Y0031519D01*
Y0031316D01*
X0029136Y0031088D02*
X0029204Y0031054D01*
Y0030851D01*
X0029136Y0030817D01*
X0028865D01*
X0028798Y0030851D01*
Y0031054D01*
X0028865Y0031088D01*
X0027136Y0012883D02*
X0027204Y0012951D01*
Y0013086D01*
X0027136Y0013154D01*
X0027069D01*
X0026933Y0013018D01*
X0026798Y0013154D01*
Y0012883D01*
X0027204Y0012689D02*
Y0012418D01*
X0026933Y0012689D01*
X0026865D01*
X0026798Y0012655D01*
Y0012452D01*
X0026865Y0012418D01*
X0027069Y0011987D02*
X0027136D01*
X0027204Y0012021D01*
Y0012156D01*
X0027136Y0012190D01*
X0026798D01*
Y0012224D02*
Y0012088D01*
X0019796Y0033914D02*
Y0034049D01*
Y0033982D02*
X0020202D01*
X0020135Y0034049D01*
X0019796Y0034311D02*
Y0034582D01*
X0020067Y0034311D01*
X0020135D01*
X0020202Y0034345D01*
Y0034548D01*
X0020135Y0034582D01*
X0019931Y0035013D02*
X0019863D01*
X0019796Y0034979D01*
Y0034844D01*
X0019863Y0034810D01*
X0020202D01*
Y0034776D02*
Y0034912D01*
X0014204Y0013655D02*
Y0013519D01*
Y0013587D02*
X0013798D01*
X0013865Y0013519D01*
X0014204Y0013021D02*
X0013798D01*
X0014204Y0012987D02*
Y0013190D01*
X0014069Y0013258D01*
X0013933D01*
X0013798Y0013190D01*
Y0012987D01*
X0008243Y0046099D02*
X0008410D01*
X0008438Y0046044D01*
Y0045988D01*
X0008410Y0045932D01*
X0008243D01*
X0008215Y0045988D01*
Y0046044D01*
X0008326Y0046266D01*
X0007833Y0046044D02*
Y0045988D01*
X0007861Y0045932D01*
X0007972D01*
X0008000Y0045988D01*
Y0046266D01*
X0008028D02*
X0007917D01*
X0009091Y0045932D02*
X0008980D01*
X0009035D02*
Y0046266D01*
X0008980Y0046210D01*
X0008737Y0046266D02*
Y0045932D01*
X0008681Y0045988D01*
X0008570Y0046210D01*
X0008514Y0046266D01*
Y0045932D01*
X0008132D02*
X0008104Y0045988D01*
Y0046210D01*
X0008132Y0046266D01*
X0008299D01*
X0008327Y0046210D01*
Y0045988D01*
X0008299Y0045932D01*
X0008132D01*
X0007917Y0045988D02*
X0007889Y0045932D01*
X0007722D01*
X0007694Y0045988D01*
Y0046210D01*
X0007722Y0046266D01*
X0007889D01*
X0007917Y0046210D01*
X0037271Y0039432D02*
X0037438Y0039766D01*
X0037215D01*
X0036833Y0039544D02*
Y0039488D01*
X0036861Y0039432D01*
X0036972D01*
X0037000Y0039488D01*
Y0039766D01*
X0037028D02*
X0036917D01*
X0038091Y0039432D02*
X0037980D01*
X0038035D02*
Y0039766D01*
X0037980Y0039710D01*
X0037737Y0039766D02*
Y0039432D01*
X0037681Y0039488D01*
X0037570Y0039710D01*
X0037514Y0039766D01*
Y0039432D01*
X0037132D02*
X0037104Y0039488D01*
Y0039710D01*
X0037132Y0039766D01*
X0037299D01*
X0037327Y0039710D01*
Y0039488D01*
X0037299Y0039432D01*
X0037132D01*
X0036917Y0039488D02*
X0036889Y0039432D01*
X0036722D01*
X0036694Y0039488D01*
Y0039710D01*
X0036722Y0039766D01*
X0036889D01*
X0036917Y0039710D01*
X0007410Y0003099D02*
X0007438Y0003155D01*
Y0003210D01*
X0007410Y0003266D01*
X0007243D01*
X0007215Y0003210D01*
Y0003155D01*
X0007243Y0003099D01*
X0007410D01*
X0007438Y0003044D01*
Y0002988D01*
X0007410Y0002932D01*
X0007243D01*
X0007215Y0002988D01*
Y0003044D01*
X0007243Y0003099D01*
X0006833Y0003044D02*
Y0002988D01*
X0006861Y0002932D01*
X0006972D01*
X0007000Y0002988D01*
Y0003266D01*
X0007028D02*
X0006917D01*
X0008091Y0002932D02*
X0007980D01*
X0008035D02*
Y0003266D01*
X0007980Y0003210D01*
X0007737Y0003266D02*
Y0002932D01*
X0007681Y0002988D01*
X0007570Y0003210D01*
X0007514Y0003266D01*
Y0002932D01*
X0007132D02*
X0007104Y0002988D01*
Y0003210D01*
X0007132Y0003266D01*
X0007299D01*
X0007327Y0003210D01*
Y0002988D01*
X0007299Y0002932D01*
X0007132D01*
X0006917Y0002988D02*
X0006889Y0002932D01*
X0006722D01*
X0006694Y0002988D01*
Y0003210D01*
X0006722Y0003266D01*
X0006889D01*
X0006917Y0003210D01*
X0038792Y0002432D02*
X0038570D01*
X0038792Y0002655D01*
Y0002710D01*
X0038764Y0002766D01*
X0038598D01*
X0038570Y0002710D01*
X0038382Y0002432D02*
X0038271D01*
X0038326D02*
Y0002766D01*
X0038271Y0002710D01*
X0037833Y0002544D02*
Y0002488D01*
X0037861Y0002432D01*
X0037972D01*
X0038000Y0002488D01*
Y0002766D01*
X0038028D02*
X0037917D01*
X0039091Y0002432D02*
X0038980D01*
X0039035D02*
Y0002766D01*
X0038980Y0002710D01*
X0038737Y0002766D02*
Y0002432D01*
X0038681Y0002488D01*
X0038570Y0002710D01*
X0038514Y0002766D01*
Y0002432D01*
X0038132D02*
X0038104Y0002488D01*
Y0002710D01*
X0038132Y0002766D01*
X0038299D01*
X0038327Y0002710D01*
Y0002488D01*
X0038299Y0002432D01*
X0038132D01*
X0037917Y0002488D02*
X0037889Y0002432D01*
X0037722D01*
X0037694Y0002488D01*
Y0002710D01*
X0037722Y0002766D01*
X0037889D01*
X0037917Y0002710D01*
X0036910Y0052599D02*
X0036743D01*
X0036715Y0052655D01*
Y0052710D01*
X0036743Y0052766D01*
X0036910D01*
X0036938Y0052710D01*
Y0052655D01*
X0036826Y0052432D01*
X0036333Y0052544D02*
Y0052488D01*
X0036361Y0052432D01*
X0036472D01*
X0036500Y0052488D01*
Y0052766D01*
X0036528D02*
X0036417D01*
X0037591Y0052432D02*
X0037480D01*
X0037535D02*
Y0052766D01*
X0037480Y0052710D01*
X0037237Y0052766D02*
Y0052432D01*
X0037181Y0052488D01*
X0037070Y0052710D01*
X0037014Y0052766D01*
Y0052432D01*
X0036632D02*
X0036604Y0052488D01*
Y0052710D01*
X0036632Y0052766D01*
X0036799D01*
X0036827Y0052710D01*
Y0052488D01*
X0036799Y0052432D01*
X0036632D01*
X0036417Y0052488D02*
X0036389Y0052432D01*
X0036222D01*
X0036194Y0052488D01*
Y0052710D01*
X0036222Y0052766D01*
X0036389D01*
X0036417Y0052710D01*
X0038403Y0053432D02*
X0038348Y0053488D01*
X0038320Y0053544D01*
Y0053655D01*
X0038348Y0053710D01*
X0038403Y0053766D01*
X0038459D01*
X0038514Y0053710D01*
X0038542Y0053655D01*
Y0053544D01*
X0038514Y0053488D01*
X0038459Y0053432D01*
X0038403D01*
X0038132D02*
X0038021D01*
X0038076D02*
Y0053766D01*
X0038021Y0053710D01*
X0037583Y0053544D02*
Y0053488D01*
X0037611Y0053432D01*
X0037722D01*
X0037750Y0053488D01*
Y0053766D01*
X0037778D02*
X0037667D01*
X0038841Y0053432D02*
X0038730D01*
X0038785D02*
Y0053766D01*
X0038730Y0053710D01*
X0038487Y0053766D02*
Y0053432D01*
X0038431Y0053488D01*
X0038320Y0053710D01*
X0038264Y0053766D01*
Y0053432D01*
X0037882D02*
X0037854Y0053488D01*
Y0053710D01*
X0037882Y0053766D01*
X0038049D01*
X0038077Y0053710D01*
Y0053488D01*
X0038049Y0053432D01*
X0037882D01*
X0037667Y0053488D02*
X0037639Y0053432D01*
X0037472D01*
X0037444Y0053488D01*
Y0053710D01*
X0037472Y0053766D01*
X0037639D01*
X0037667Y0053710D01*
X0038736Y0044932D02*
X0038625D01*
X0038681D02*
Y0045266D01*
X0038625Y0045210D01*
X0038382Y0044932D02*
X0038271D01*
X0038326D02*
Y0045266D01*
X0038271Y0045210D01*
X0037833Y0045044D02*
Y0044988D01*
X0037861Y0044932D01*
X0037972D01*
X0038000Y0044988D01*
Y0045266D01*
X0038028D02*
X0037917D01*
X0019796Y0013846D02*
Y0014117D01*
X0020067Y0013846D01*
X0020135D01*
X0020202Y0013880D01*
Y0014083D01*
X0020135Y0014117D01*
X0019796Y0014311D02*
Y0014582D01*
X0020067Y0014311D01*
X0020135D01*
X0020202Y0014345D01*
Y0014548D01*
X0020135Y0014582D01*
X0019931Y0015013D02*
X0019863D01*
X0019796Y0014979D01*
Y0014844D01*
X0019863Y0014810D01*
X0020202D01*
Y0014776D02*
Y0014912D01*
X0014796Y0028267D02*
Y0028538D01*
X0015067Y0028267D01*
X0015135D01*
X0015202Y0028301D01*
Y0028504D01*
X0015135Y0028538D01*
X0015202Y0028732D02*
X0014796D01*
X0014863Y0028799D01*
X0015135Y0028935D01*
X0015202Y0029003D01*
X0014796D01*
Y0029434D02*
X0014863Y0029468D01*
X0015135D01*
X0015202Y0029434D01*
Y0029231D01*
X0015135Y0029197D01*
X0014863D01*
X0014796Y0029231D01*
Y0029434D01*
X0014863Y0029662D02*
X0014796Y0029696D01*
Y0029899D01*
X0014863Y0029933D01*
X0015135D01*
X0015202Y0029899D01*
Y0029696D01*
X0015135Y0029662D01*
X0017796Y0014221D02*
X0017863Y0014289D01*
X0017931Y0014323D01*
X0018067D01*
X0018135Y0014289D01*
X0018202Y0014221D01*
Y0014153D01*
X0018135Y0014086D01*
X0018067Y0014052D01*
X0017931D01*
X0017863Y0014086D01*
X0017796Y0014153D01*
Y0014221D01*
Y0014517D02*
Y0014788D01*
X0018067Y0014517D01*
X0018135D01*
X0018202Y0014551D01*
Y0014754D01*
X0018135Y0014788D01*
X0018202Y0014982D02*
X0017796D01*
X0017863Y0015049D01*
X0018135Y0015185D01*
X0018202Y0015253D01*
X0017796D01*
Y0015684D02*
X0017863Y0015718D01*
X0018135D01*
X0018202Y0015684D01*
Y0015481D01*
X0018135Y0015447D01*
X0017863D01*
X0017796Y0015481D01*
Y0015684D01*
X0017863Y0015912D02*
X0017796Y0015946D01*
Y0016149D01*
X0017863Y0016183D01*
X0018135D01*
X0018202Y0016149D01*
Y0015946D01*
X0018135Y0015912D01*
X0017499Y0008151D02*
Y0007948D01*
X0017431Y0007914D01*
X0017363D01*
X0017296Y0007948D01*
Y0008151D01*
X0017363Y0008185D01*
X0017431D01*
X0017702Y0008049D01*
X0017296Y0008379D02*
Y0008514D01*
Y0008447D02*
X0017702D01*
X0017635Y0008514D01*
X0017431Y0009013D02*
X0017363D01*
X0017296Y0008979D01*
Y0008844D01*
X0017363Y0008810D01*
X0017702D01*
Y0008776D02*
Y0008912D01*
X0014363Y0007788D02*
X0014296Y0007754D01*
Y0007551D01*
X0014363Y0007517D01*
X0014499D01*
X0014567Y0007584D01*
Y0007788D01*
X0014702D01*
Y0007517D01*
Y0007982D02*
X0014296D01*
X0014363Y0008049D01*
X0014635Y0008185D01*
X0014702Y0008253D01*
X0014296D01*
Y0008684D02*
X0014363Y0008718D01*
X0014635D01*
X0014702Y0008684D01*
Y0008481D01*
X0014635Y0008447D01*
X0014363D01*
X0014296Y0008481D01*
Y0008684D01*
X0014363Y0008912D02*
X0014296Y0008946D01*
Y0009149D01*
X0014363Y0009183D01*
X0014635D01*
X0014702Y0009149D01*
Y0008946D01*
X0014635Y0008912D01*
X0016954Y0013497D02*
X0016548D01*
X0016954Y0013463D02*
Y0013667D01*
X0016819Y0013734D01*
X0016683D01*
X0016548Y0013667D01*
Y0013463D01*
X0016751Y0013202D02*
Y0012998D01*
X0016954Y0013269D02*
Y0012998D01*
X0016548D01*
Y0013269D01*
X0016954Y0012804D02*
Y0012567D01*
X0016548D01*
X0017796Y0034221D02*
X0017863Y0034289D01*
X0017931Y0034323D01*
X0018067D01*
X0018135Y0034289D01*
X0018202Y0034221D01*
Y0034153D01*
X0018135Y0034086D01*
X0018067Y0034052D01*
X0017931D01*
X0017863Y0034086D01*
X0017796Y0034153D01*
Y0034221D01*
Y0034517D02*
Y0034788D01*
X0018067Y0034517D01*
X0018135D01*
X0018202Y0034551D01*
Y0034754D01*
X0018135Y0034788D01*
X0018202Y0034982D02*
X0017796D01*
X0017863Y0035049D01*
X0018135Y0035185D01*
X0018202Y0035253D01*
X0017796D01*
Y0035684D02*
X0017863Y0035718D01*
X0018135D01*
X0018202Y0035684D01*
Y0035481D01*
X0018135Y0035447D01*
X0017863D01*
X0017796Y0035481D01*
Y0035684D01*
X0017863Y0035912D02*
X0017796Y0035946D01*
Y0036149D01*
X0017863Y0036183D01*
X0018135D01*
X0018202Y0036149D01*
Y0035946D01*
X0018135Y0035912D01*
X0018001Y0015882D02*
X0018204Y0015983D01*
X0018001Y0015712D02*
Y0015915D01*
X0017933Y0015983D01*
X0017865D01*
X0017798Y0015915D01*
Y0015712D01*
X0018204D01*
Y0015349D02*
X0018136Y0015281D01*
X0018069Y0015247D01*
X0017933D01*
X0017865Y0015281D01*
X0017798Y0015349D01*
Y0015417D01*
X0017865Y0015484D01*
X0017933Y0015518D01*
X0018069D01*
X0018136Y0015484D01*
X0018204Y0015417D01*
Y0015349D01*
Y0014850D02*
X0017798Y0015053D01*
Y0014782D01*
X0018069Y0014588D02*
Y0014317D01*
X0017798Y0014453D01*
Y0014520D01*
X0018204D01*
X0014769Y0031708D02*
X0014721Y0031660D01*
Y0031564D01*
X0014769Y0031517D01*
X0014817D01*
X0014912Y0031612D01*
X0015008Y0031517D01*
Y0031708D01*
Y0031892D02*
X0014721D01*
X0014769Y0031939D01*
X0014960Y0032035D01*
X0015008Y0032083D01*
X0014721D01*
Y0032434D02*
X0014769Y0032458D01*
X0014960D01*
X0015008Y0032434D01*
Y0032291D01*
X0014960Y0032267D01*
X0014769D01*
X0014721Y0032291D01*
Y0032434D01*
X0014769Y0032642D02*
X0014721Y0032666D01*
Y0032809D01*
X0014769Y0032833D01*
X0014960D01*
X0015008Y0032809D01*
Y0032666D01*
X0014960Y0032642D01*
X0016999Y0028698D02*
X0017067Y0028664D01*
X0017135D01*
X0017202Y0028698D01*
Y0028901D01*
X0017135Y0028935D01*
X0017067D01*
X0016999Y0028901D01*
Y0028698D01*
X0016931Y0028664D01*
X0016863D01*
X0016796Y0028698D01*
Y0028901D01*
X0016863Y0028935D01*
X0016931D01*
X0016999Y0028901D01*
X0016796Y0029129D02*
Y0029264D01*
Y0029197D02*
X0017202D01*
X0017135Y0029264D01*
X0016931Y0029763D02*
X0016863D01*
X0016796Y0029729D01*
Y0029594D01*
X0016863Y0029560D01*
X0017202D01*
Y0029526D02*
Y0029662D01*
X0017204Y0015155D02*
Y0015019D01*
Y0015087D02*
X0016798D01*
X0016865Y0015019D01*
X0017001Y0014656D02*
X0017204Y0014758D01*
X0017001Y0014487D02*
Y0014690D01*
X0016933Y0014758D01*
X0016865D01*
X0016798Y0014690D01*
Y0014487D01*
X0017204D01*
X0025694Y-0000182D02*
X0025377Y-0000815D01*
X0025800D01*
X0026012Y-0000182D02*
X0026435D01*
X0026012Y-0000604D01*
Y-0000710D01*
X0026065Y-0000815D01*
X0026382D01*
X0026435Y-0000710D01*
X0027017Y-0000393D02*
Y-0000288D01*
X0026964Y-0000182D01*
X0026753D01*
X0026700Y-0000288D01*
Y-0000815D01*
X0026647D02*
X0026858D01*
X0039091Y0044932D02*
X0038980D01*
X0039035D02*
Y0045266D01*
X0038980Y0045210D01*
X0038737Y0045266D02*
Y0044932D01*
X0038681Y0044988D01*
X0038570Y0045210D01*
X0038514Y0045266D01*
Y0044932D01*
X0038132D02*
X0038104Y0044988D01*
Y0045210D01*
X0038132Y0045266D01*
X0038299D01*
X0038327Y0045210D01*
Y0044988D01*
X0038299Y0044932D01*
X0038132D01*
X0037917Y0044988D02*
X0037889Y0044932D01*
X0037722D01*
X0037694Y0044988D01*
Y0045210D01*
X0037722Y0045266D01*
X0037889D01*
X0037917Y0045210D01*
X0017499Y0023948D02*
Y0024151D01*
X0017567Y0024185D01*
X0017635D01*
X0017702Y0024151D01*
Y0023948D01*
X0017635Y0023914D01*
X0017567D01*
X0017296Y0024049D01*
Y0024379D02*
Y0024514D01*
Y0024447D02*
X0017702D01*
X0017635Y0024514D01*
X0017431Y0025013D02*
X0017363D01*
X0017296Y0024979D01*
Y0024844D01*
X0017363Y0024810D01*
X0017702D01*
Y0024776D02*
Y0024912D01*
X0014499Y0023551D02*
Y0023754D01*
X0014567Y0023788D01*
X0014635D01*
X0014702Y0023754D01*
Y0023551D01*
X0014635Y0023517D01*
X0014567D01*
X0014296Y0023652D01*
X0014702Y0023982D02*
X0014296D01*
X0014363Y0024049D01*
X0014635Y0024185D01*
X0014702Y0024253D01*
X0014296D01*
Y0024684D02*
X0014363Y0024718D01*
X0014635D01*
X0014702Y0024684D01*
Y0024481D01*
X0014635Y0024447D01*
X0014363D01*
X0014296Y0024481D01*
Y0024684D01*
X0014363Y0024912D02*
X0014296Y0024946D01*
Y0025149D01*
X0014363Y0025183D01*
X0014635D01*
X0014702Y0025149D01*
Y0024946D01*
X0014635Y0024912D01*
X0016796Y0032367D02*
X0017202Y0032164D01*
Y0032435D01*
X0016796Y0032629D02*
Y0032764D01*
Y0032697D02*
X0017202D01*
X0017135Y0032764D01*
X0016931Y0033263D02*
X0016863D01*
X0016796Y0033229D01*
Y0033094D01*
X0016863Y0033060D01*
X0017202D01*
Y0033026D02*
Y0033162D01*
X0023000Y0002000D02*
Y0000000D01*
X0027000D01*
Y0002000D01*
X0023000D01*
X0027000D03*
X0022500Y0042500D02*
Y0043500D01*
X0027500D01*
Y0042500D01*
X0022500D01*
X0021500Y0043500D03*
X0024500Y0005500D02*
Y0004500D01*
X0026500D01*
Y0005500D01*
X0024500D01*
X0014200Y0042000D02*
Y0040000D01*
X0015800D01*
Y0042000D01*
X0014200D01*
X0022500Y0043500D03*
X0018500Y0023500D02*
Y0003500D01*
X0019500D01*
Y0023500D01*
X0018500D01*
X0025510Y0010900D02*
Y0008090D01*
X0026490D01*
Y0010900D01*
X0025510D01*
X0007500Y0004500D02*
Y0003500D01*
X0009000Y0047000D02*
X0008000D01*
X0008500Y0047500D02*
Y0046500D01*
X0028500Y0003500D02*
Y0023500D01*
X0027500D01*
Y0003500D01*
X0028500D01*
X0037000Y0054000D02*
Y0053000D01*
X0038750Y0054500D02*
X0037750D01*
X0038250Y0055000D02*
Y0054000D01*
X0039000Y0046000D02*
X0038000D01*
X0038500Y0046500D02*
Y0045500D01*
X0028500Y0023500D02*
Y0043500D01*
X0027500D01*
Y0023500D01*
X0028500D01*
X0039000Y0003500D02*
X0038000D01*
X0038500Y0004000D02*
Y0003000D01*
X0016200Y0013200D02*
X0014800D01*
X0038000Y0040500D02*
X0037000D01*
X0037500Y0041000D02*
Y0040000D01*
X0008000Y0004000D02*
X0007000D01*
X0016500Y0005500D02*
X0015500D01*
Y0010500D01*
X0016500D01*
Y0005500D01*
X0015500Y0004500D03*
Y0033500D03*
X0016500Y0020500D02*
Y0026500D01*
X0015500D01*
Y0020500D01*
Y0017500D01*
X0016500D01*
Y0021000D01*
X0016000Y0013300D02*
X0014900D01*
X0015900Y0013400D02*
X0015100D01*
X0018500Y0043500D02*
Y0023500D01*
X0019500D01*
Y0043500D01*
X0018500D01*
X0016500Y0026500D03*
X0015500Y0027500D02*
X0016500D01*
Y0029500D01*
X0015500D01*
Y0027500D01*
X0017490Y0014100D02*
Y0016910D01*
X0016510D01*
Y0014100D01*
X0017490D01*
X0015500Y0020500D03*
X0037500Y0053500D02*
X0036500D01*
G01X0014670Y0041588D02*
G03X0014782Y0041700I0000000J0000112D01*
G01X0014558D02*
G03X0014670Y0041588I0000112J0000000D01*
Y0041812D02*
G03X0014558Y0041700I0000000J0000112D01*
G01X0014782D02*
G03X0014670Y0041812I0000112J0000000D01*
G54D50*
G01X0014450Y0041900D02*
Y0040100D01*
X0015700D01*
Y0041900D01*
X0015200D01*
Y0041850D01*
X0014850D02*
Y0041900D01*
X0014450D01*
X0015800Y0042000D02*
X0015700Y0041900D01*
Y0040100D01*
X0015800Y0040000D01*
Y0042000D01*
X0014450Y0041900D02*
Y0040100D01*
X0014200Y0040000D01*
Y0042000D01*
X0014450Y0041900D01*
X0014200Y0041850D02*
Y0041650D01*
X0013850D01*
Y0041850D01*
X0014200D01*
Y0041350D02*
X0013850D01*
Y0041150D01*
X0014200D01*
Y0041350D01*
Y0040850D02*
Y0040650D01*
X0013750D01*
Y0040850D01*
X0014200D01*
Y0040350D02*
Y0040150D01*
X0013750D01*
Y0040350D01*
X0014200D01*
X0016150Y0041850D02*
Y0041650D01*
X0015800D01*
Y0041850D01*
X0016150D01*
Y0041350D02*
Y0041150D01*
X0015800D01*
Y0041350D01*
X0016150D01*
X0016250Y0040850D02*
Y0040650D01*
X0015800D01*
Y0040850D01*
X0016250D01*
Y0040350D02*
Y0040150D01*
X0015800D01*
Y0040350D01*
X0016250D01*
G01X0015025Y0041698D02*
G03X0015200Y0041850I0000000J0000177D01*
G01X0014850D02*
G03X0015025Y0041698I0000175J0000025D01*
G54D51*
G01X0034823Y0019799D02*
Y0019449D01*
X0034473Y0019799D01*
X0034385D01*
X0034298Y0019755D01*
Y0019493D01*
X0034385Y0019449D01*
X0034473Y0019209D02*
X0034560Y0019165D01*
X0034735Y0018990D01*
X0034823Y0018946D01*
Y0019209D02*
X0034735Y0019165D01*
X0034560Y0018990D01*
X0034473Y0018946D01*
X0034735Y0018356D02*
X0034823Y0018400D01*
Y0018662D01*
X0034735Y0018706D01*
X0034560D01*
X0034473Y0018618D01*
Y0018356D01*
X0034298D01*
Y0018706D01*
X0034823Y0018116D02*
Y0017941D01*
Y0018028D02*
X0034298D01*
X0034385Y0017941D01*
X0034560Y0016651D02*
Y0016826D01*
X0034735D01*
X0034823Y0016782D01*
Y0016519D01*
X0034735Y0016476D01*
X0034385D01*
X0034298Y0016519D01*
Y0016782D01*
X0034385Y0016826D01*
X0034298Y0016235D02*
X0034735D01*
X0034823Y0016191D01*
Y0015929D01*
X0034735Y0015885D01*
X0034298D01*
X0034823Y0015645D02*
Y0015339D01*
X0034298D01*
X0034560Y0014748D02*
Y0015011D01*
X0034473Y0015098D01*
X0034385D01*
X0034298Y0015011D01*
Y0014748D01*
X0034823D01*
X0034298Y0013721D02*
X0034823D01*
X0034735Y0013633D01*
X0034385Y0013458D01*
X0034298Y0013371D01*
X0034823D01*
X0034298Y0013130D02*
X0034823D01*
X0034735Y0013043D01*
X0034385Y0012868D01*
X0034298Y0012780D01*
X0034823D01*
Y0012234D02*
X0034735Y0012190D01*
X0034385D01*
X0034298Y0012234D01*
Y0012496D01*
X0034385Y0012540D01*
X0034735D01*
X0034823Y0012496D01*
Y0012234D01*
X0034735Y0011950D02*
X0034823Y0011906D01*
Y0011644D01*
X0034735Y0011600D01*
X0034385D01*
X0034298Y0011644D01*
Y0011906D01*
X0034385Y0011950D01*
X0034823Y0008538D02*
X0034735Y0008450D01*
X0034648Y0008406D01*
X0034473D01*
X0034385Y0008450D01*
X0034298Y0008538D01*
Y0008625D01*
X0034385Y0008713D01*
X0034473Y0008756D01*
X0034648D01*
X0034735Y0008713D01*
X0034823Y0008625D01*
Y0008538D01*
Y0008166D02*
Y0007816D01*
X0034473Y0008166D01*
X0034385D01*
X0034298Y0008122D01*
Y0007860D01*
X0034385Y0007816D01*
X0034648Y0007269D02*
X0034735D01*
X0034823Y0007313D01*
Y0007488D01*
X0034735Y0007532D01*
X0034298D01*
Y0007576D02*
Y0007401D01*
G54D52*
G01X0014917Y0041177D02*
Y0041310D01*
Y0041243D02*
X0015317D01*
X0015250Y0041310D01*
X0015317Y0041550D02*
X0014983D01*
X0014917Y0041583D01*
Y0041783D01*
X0014983Y0041817D01*
X0015317D01*
X0014617Y0039177D02*
Y0038977D01*
X0014550Y0038943D01*
X0014483D01*
X0014417Y0038977D01*
Y0039177D01*
X0014483Y0039210D01*
X0014550D01*
X0014817Y0039077D01*
X0014483Y0039650D02*
X0014417Y0039617D01*
Y0039417D01*
X0014483Y0039383D01*
X0014617D01*
X0014683Y0039450D01*
Y0039650D01*
X0014817D01*
Y0039383D01*
X0014417Y0039823D02*
Y0040090D01*
X0014683Y0039823D01*
X0014750D01*
X0014817Y0039857D01*
Y0040057D01*
X0014750Y0040090D01*
X0014483Y0040263D02*
X0014417Y0040297D01*
Y0040497D01*
X0014483Y0040530D01*
X0014750D01*
X0014817Y0040497D01*
Y0040297D01*
X0014750Y0040263D01*
X0014417Y0040703D02*
Y0040937D01*
X0014817D01*
X0014550Y0041110D02*
Y0041377D01*
X0014817Y0041243D01*
Y0041177D01*
X0014417D01*
Y0041550D02*
Y0041817D01*
X0014683Y0041550D01*
X0014750D01*
X0014817Y0041583D01*
Y0041783D01*
X0014750Y0041817D01*
G54D32*
X0026000Y0012000D03*
Y0007000D03*
X0017000Y0013000D03*
Y0018000D03*
X0021000Y0043000D03*
X0020000D03*
X0016000Y0032000D03*
Y0031000D03*
X0014000Y0043000D03*
X0016000D03*
G54D33*
X0026000D03*
X0025000D03*
X0024000D03*
X0023000D03*
X0028000Y0025000D03*
Y0026000D03*
Y0027000D03*
Y0028000D03*
Y0029000D03*
Y0030000D03*
Y0031000D03*
Y0032000D03*
Y0033000D03*
Y0034000D03*
Y0035000D03*
Y0036000D03*
Y0037000D03*
Y0038000D03*
Y0039000D03*
Y0040000D03*
Y0041000D03*
Y0042000D03*
Y0043000D03*
Y0005000D03*
Y0006000D03*
Y0007000D03*
Y0008000D03*
Y0009000D03*
Y0010000D03*
Y0011000D03*
Y0012000D03*
Y0013000D03*
Y0014000D03*
Y0015000D03*
Y0016000D03*
Y0017000D03*
Y0018000D03*
Y0019000D03*
Y0020000D03*
Y0021000D03*
Y0022000D03*
Y0023000D03*
X0019000Y0022000D03*
Y0021000D03*
Y0020000D03*
Y0019000D03*
Y0018000D03*
Y0017000D03*
Y0016000D03*
Y0015000D03*
Y0014000D03*
Y0013000D03*
Y0012000D03*
Y0011000D03*
Y0010000D03*
Y0009000D03*
Y0008000D03*
Y0007000D03*
Y0006000D03*
Y0005000D03*
Y0004000D03*
Y0042000D03*
Y0041000D03*
Y0040000D03*
Y0039000D03*
Y0038000D03*
Y0037000D03*
Y0036000D03*
Y0035000D03*
Y0034000D03*
Y0033000D03*
Y0032000D03*
Y0031000D03*
Y0030000D03*
Y0029000D03*
Y0028000D03*
Y0027000D03*
Y0026000D03*
Y0025000D03*
Y0024000D03*
X0016000Y0025000D03*
Y0024000D03*
Y0023000D03*
Y0022000D03*
Y0021000D03*
Y0020000D03*
Y0019000D03*
Y0018000D03*
Y0009000D03*
Y0008000D03*
Y0007000D03*
Y0006000D03*
X0015500Y0013000D03*
G54D34*
X0027000Y0043000D03*
X0028000Y0024000D03*
Y0004000D03*
X0019000Y0023000D03*
Y0043000D03*
X0016000Y0026000D03*
Y0010000D03*
X0015500Y0012000D03*
G54D35*
X0038500Y0003500D03*
Y0046000D03*
X0038250Y0054500D03*
X0037000Y0053500D03*
X0007500Y0004000D03*
X0037500Y0040500D03*
X0008500Y0047000D03*
G54D36*
X0022000Y0043000D03*
X0016000Y0033000D03*
G54D37*
X0025000Y0005000D03*
X0016000Y0028000D03*
G54D38*
X0026000Y0005000D03*
X0016000Y0029000D03*
G54D39*
X0024000Y0001000D03*
G54D40*
X0026000D03*
M02*
