*
G04 Mass Parameters ***
*
G04 Image ***
*
%IND:\ORCAD_G\PROJET_ORCAD9\HUGO\CARTE WIFI 2011\CARTE WIFI 2011-5.SST*%
%ICAS*%
%MOIN*%
%IPPOS*%
%ASAXBY*%
G74*%FSLAN2X34Y34*%
*
G04 Aperture Definitions ***
*
%ADD10C,0.0850*%
%ADD11C,0.0800*%
%ADD12R,0.0800X0.0800*%
%ADD13C,0.1000*%
%ADD14R,0.0850X0.0850*%
%ADD15C,0.0750*%
%ADD16R,0.0750X0.0750*%
%ADD17R,0.0787X0.0236*%
%ADD18C,0.1300*%
%ADD19R,0.1300X0.1300*%
%ADD20R,0.0700X0.0250*%
%ADD21C,0.0700*%
%ADD22C,0.0500*%
%ADD23C,0.0700*%
%ADD24C,0.0250*%
%ADD25C,0.0700*%
%ADD26C,0.0100*%
%ADD27C,0.0300*%
%ADD28C,0.0150*%
%ADD29C,0.0200*%
%ADD30C,0.0140*%
%ADD31C,0.0140*%
%ADD32C,0.0850*%
%ADD33C,0.0800*%
%ADD34R,0.0800X0.0800*%
%ADD35C,0.1000*%
%ADD36R,0.0850X0.0850*%
%ADD37C,0.0750*%
%ADD38R,0.0750X0.0750*%
%ADD39C,0.1300*%
%ADD40R,0.1300X0.1300*%
%ADD41C,0.0700*%
%ADD42C,0.0400*%
%ADD43R,0.0789X0.0236*%
%ADD44R,0.0750X0.0300*%
%ADD45C,0.0550*%
%ADD46C,0.0550*%
%ADD47C,0.0080*%
%ADD48C,0.0118*%
%ADD49C,0.0197*%
%ADD50C,0.0040*%
%ADD51C,0.0098*%
%ADD52C,0.0070*%
*
G04 Plot Data ***
*
G54D22*
G01X0007000Y0047000D02*
X0044000D01*
Y-0002000D01*
X0007000D01*
Y0047000D01*
G54D26*
G01X0037114Y0030116D02*
Y0029866D01*
X0037031Y0029824D01*
X0036948D01*
X0036864Y0029866D01*
Y0030116D01*
X0036948Y0030158D01*
X0037031D01*
X0037364Y0029991D01*
Y0029583D02*
Y0029416D01*
Y0029499D02*
X0036864D01*
X0036948Y0029416D01*
X0037364Y0029091D02*
Y0028924D01*
Y0029008D02*
X0036864D01*
X0036948Y0028924D01*
X0032050Y0030033D02*
X0031966Y0029949D01*
X0031883Y0029908D01*
X0031716D01*
X0031633Y0029949D01*
X0031550Y0030033D01*
Y0030116D01*
X0031633Y0030199D01*
X0031716Y0030241D01*
X0031883D01*
X0031966Y0030199D01*
X0032050Y0030116D01*
Y0030033D01*
Y0029666D02*
Y0029333D01*
X0031716Y0029666D01*
X0031633D01*
X0031550Y0029624D01*
Y0029374D01*
X0031633Y0029333D01*
X0032050Y0029091D02*
Y0028924D01*
Y0029008D02*
X0031550D01*
X0031633Y0028924D01*
X0037167Y0005865D02*
Y0005698D01*
Y0005781D02*
X0036667D01*
X0036751Y0005698D01*
X0032282Y0005948D02*
Y0005615D01*
X0031948Y0005948D01*
X0031865D01*
X0031782Y0005906D01*
Y0005656D01*
X0031865Y0005615D01*
G54D47*
G01X0015030Y0043181D02*
X0015150D01*
X0015090D02*
Y0042821D01*
X0015150Y0042881D01*
X0015400Y0043121D02*
X0015430Y0043181D01*
X0015610D01*
X0015640Y0043121D01*
Y0042881D01*
X0015610Y0042821D01*
X0015430D01*
X0015400Y0042881D01*
X0025694Y-0000182D02*
X0025377Y-0000815D01*
X0025800D01*
X0026012Y-0000182D02*
X0026435D01*
X0026012Y-0000604D01*
Y-0000710D01*
X0026065Y-0000815D01*
X0026382D01*
X0026435Y-0000710D01*
X0027017Y-0000393D02*
Y-0000288D01*
X0026964Y-0000182D01*
X0026753D01*
X0026700Y-0000288D01*
Y-0000815D01*
X0026647D02*
X0026858D01*
X0025016Y0041704D02*
X0025083Y0041636D01*
X0025117Y0041569D01*
Y0041433D01*
X0025083Y0041365D01*
X0025016Y0041298D01*
X0024948D01*
X0024880Y0041365D01*
X0024846Y0041433D01*
Y0041569D01*
X0024880Y0041636D01*
X0024948Y0041704D01*
X0025016D01*
X0025582Y0041636D02*
X0025514Y0041704D01*
X0025379D01*
X0025311Y0041636D01*
Y0041569D01*
X0025447Y0041433D01*
X0025311Y0041298D01*
X0025582D01*
X0026013Y0041569D02*
Y0041636D01*
X0025979Y0041704D01*
X0025844D01*
X0025810Y0041636D01*
Y0041298D01*
X0025776D02*
X0025912D01*
X0021130Y0042001D02*
X0021333D01*
X0021367Y0041933D01*
Y0041865D01*
X0021333Y0041798D01*
X0021130D01*
X0021096Y0041865D01*
Y0041933D01*
X0021232Y0042204D01*
X0021561D02*
X0021832D01*
X0021561Y0041933D01*
Y0041865D01*
X0021595Y0041798D01*
X0021798D01*
X0021832Y0041865D01*
X0022263Y0042069D02*
Y0042136D01*
X0022229Y0042204D01*
X0022094D01*
X0022060Y0042136D01*
Y0041798D01*
X0022026D02*
X0022162D01*
X0025630Y0004001D02*
X0025596Y0003933D01*
Y0003865D01*
X0025630Y0003798D01*
X0025833D01*
X0025867Y0003865D01*
Y0003933D01*
X0025833Y0004001D01*
X0025630D01*
X0025596Y0004069D01*
Y0004136D01*
X0025630Y0004204D01*
X0025833D01*
X0025867Y0004136D01*
Y0004069D01*
X0025833Y0004001D01*
X0026061Y0004204D02*
X0026332D01*
X0026061Y0003933D01*
Y0003865D01*
X0026095Y0003798D01*
X0026298D01*
X0026332Y0003865D01*
X0026763Y0004069D02*
Y0004136D01*
X0026729Y0004204D01*
X0026594D01*
X0026560Y0004136D01*
Y0003798D01*
X0026526D02*
X0026662D01*
X0025796Y0009777D02*
Y0010048D01*
X0026067Y0009777D01*
X0026135D01*
X0026202Y0009811D01*
Y0010014D01*
X0026135Y0010048D01*
X0025999Y0010344D02*
X0025796Y0010242D01*
X0025999Y0010513D02*
Y0010310D01*
X0026067Y0010242D01*
X0026135D01*
X0026202Y0010310D01*
Y0010513D01*
X0025796D01*
X0027069Y0033154D02*
Y0032883D01*
X0026798Y0033018D01*
Y0033086D01*
X0027204D01*
Y0032689D02*
Y0032418D01*
X0026933Y0032689D01*
X0026865D01*
X0026798Y0032655D01*
Y0032452D01*
X0026865Y0032418D01*
X0027069Y0031987D02*
X0027136D01*
X0027204Y0032021D01*
Y0032156D01*
X0027136Y0032190D01*
X0026798D01*
Y0032224D02*
Y0032088D01*
X0027136Y0012883D02*
X0027204Y0012951D01*
Y0013086D01*
X0027136Y0013154D01*
X0027069D01*
X0026933Y0013018D01*
X0026798Y0013154D01*
Y0012883D01*
X0027204Y0012689D02*
Y0012418D01*
X0026933Y0012689D01*
X0026865D01*
X0026798Y0012655D01*
Y0012452D01*
X0026865Y0012418D01*
X0027069Y0011987D02*
X0027136D01*
X0027204Y0012021D01*
Y0012156D01*
X0027136Y0012190D01*
X0026798D01*
Y0012224D02*
Y0012088D01*
X0019796Y0033914D02*
Y0034049D01*
Y0033982D02*
X0020202D01*
X0020135Y0034049D01*
X0019796Y0034311D02*
Y0034582D01*
X0020067Y0034311D01*
X0020135D01*
X0020202Y0034345D01*
Y0034548D01*
X0020135Y0034582D01*
X0019931Y0035013D02*
X0019863D01*
X0019796Y0034979D01*
Y0034844D01*
X0019863Y0034810D01*
X0020202D01*
Y0034776D02*
Y0034912D01*
X0008243Y0046099D02*
X0008410D01*
X0008438Y0046044D01*
Y0045988D01*
X0008410Y0045932D01*
X0008243D01*
X0008215Y0045988D01*
Y0046044D01*
X0008326Y0046266D01*
X0007833Y0046044D02*
Y0045988D01*
X0007861Y0045932D01*
X0007972D01*
X0008000Y0045988D01*
Y0046266D01*
X0008028D02*
X0007917D01*
X0036271Y0041432D02*
X0036438Y0041766D01*
X0036215D01*
X0035833Y0041544D02*
Y0041488D01*
X0035861Y0041432D01*
X0035972D01*
X0036000Y0041488D01*
Y0041766D01*
X0036028D02*
X0035917D01*
X0007410Y0003099D02*
X0007438Y0003155D01*
Y0003210D01*
X0007410Y0003266D01*
X0007243D01*
X0007215Y0003210D01*
Y0003155D01*
X0007243Y0003099D01*
X0007410D01*
X0007438Y0003044D01*
Y0002988D01*
X0007410Y0002932D01*
X0007243D01*
X0007215Y0002988D01*
Y0003044D01*
X0007243Y0003099D01*
X0006833Y0003044D02*
Y0002988D01*
X0006861Y0002932D01*
X0006972D01*
X0007000Y0002988D01*
Y0003266D01*
X0007028D02*
X0006917D01*
X0038792Y0002432D02*
X0038570D01*
X0038792Y0002655D01*
Y0002710D01*
X0038764Y0002766D01*
X0038598D01*
X0038570Y0002710D01*
X0038382Y0002432D02*
X0038271D01*
X0038326D02*
Y0002766D01*
X0038271Y0002710D01*
X0037833Y0002544D02*
Y0002488D01*
X0037861Y0002432D01*
X0037972D01*
X0038000Y0002488D01*
Y0002766D01*
X0038028D02*
X0037917D01*
X0014204Y0013655D02*
Y0013519D01*
Y0013587D02*
X0013798D01*
X0013865Y0013519D01*
X0014204Y0013021D02*
X0013798D01*
X0014204Y0012987D02*
Y0013190D01*
X0014069Y0013258D01*
X0013933D01*
X0013798Y0013190D01*
Y0012987D01*
X0035910Y0054599D02*
X0035743D01*
X0035715Y0054655D01*
Y0054710D01*
X0035743Y0054766D01*
X0035910D01*
X0035938Y0054710D01*
Y0054655D01*
X0035826Y0054432D01*
X0035333Y0054544D02*
Y0054488D01*
X0035361Y0054432D01*
X0035472D01*
X0035500Y0054488D01*
Y0054766D01*
X0035528D02*
X0035417D01*
X0037653Y0055432D02*
X0037598Y0055488D01*
X0037570Y0055544D01*
Y0055655D01*
X0037598Y0055710D01*
X0037653Y0055766D01*
X0037709D01*
X0037764Y0055710D01*
X0037792Y0055655D01*
Y0055544D01*
X0037764Y0055488D01*
X0037709Y0055432D01*
X0037653D01*
X0037382D02*
X0037271D01*
X0037326D02*
Y0055766D01*
X0037271Y0055710D01*
X0036833Y0055544D02*
Y0055488D01*
X0036861Y0055432D01*
X0036972D01*
X0037000Y0055488D01*
Y0055766D01*
X0037028D02*
X0036917D01*
X0038736Y0044932D02*
X0038625D01*
X0038681D02*
Y0045266D01*
X0038625Y0045210D01*
X0038382Y0044932D02*
X0038271D01*
X0038326D02*
Y0045266D01*
X0038271Y0045210D01*
X0037833Y0045044D02*
Y0044988D01*
X0037861Y0044932D01*
X0037972D01*
X0038000Y0044988D01*
Y0045266D01*
X0038028D02*
X0037917D01*
X0019796Y0013846D02*
Y0014117D01*
X0020067Y0013846D01*
X0020135D01*
X0020202Y0013880D01*
Y0014083D01*
X0020135Y0014117D01*
X0019796Y0014311D02*
Y0014582D01*
X0020067Y0014311D01*
X0020135D01*
X0020202Y0014345D01*
Y0014548D01*
X0020135Y0014582D01*
X0019931Y0015013D02*
X0019863D01*
X0019796Y0014979D01*
Y0014844D01*
X0019863Y0014810D01*
X0020202D01*
Y0014776D02*
Y0014912D01*
X0017499Y0008151D02*
Y0007948D01*
X0017431Y0007914D01*
X0017363D01*
X0017296Y0007948D01*
Y0008151D01*
X0017363Y0008185D01*
X0017431D01*
X0017702Y0008049D01*
X0017296Y0008379D02*
Y0008514D01*
Y0008447D02*
X0017702D01*
X0017635Y0008514D01*
X0017431Y0009013D02*
X0017363D01*
X0017296Y0008979D01*
Y0008844D01*
X0017363Y0008810D01*
X0017702D01*
Y0008776D02*
Y0008912D01*
X0016796Y0032367D02*
X0017202Y0032164D01*
Y0032435D01*
X0016796Y0032629D02*
Y0032764D01*
Y0032697D02*
X0017202D01*
X0017135Y0032764D01*
X0016931Y0033263D02*
X0016863D01*
X0016796Y0033229D01*
Y0033094D01*
X0016863Y0033060D01*
X0017202D01*
Y0033026D02*
Y0033162D01*
X0017204Y0015155D02*
Y0015019D01*
Y0015087D02*
X0016798D01*
X0016865Y0015019D01*
X0017001Y0014656D02*
X0017204Y0014758D01*
X0017001Y0014487D02*
Y0014690D01*
X0016933Y0014758D01*
X0016865D01*
X0016798Y0014690D01*
Y0014487D01*
X0017204D01*
X0016999Y0028698D02*
X0017067Y0028664D01*
X0017135D01*
X0017202Y0028698D01*
Y0028901D01*
X0017135Y0028935D01*
X0017067D01*
X0016999Y0028901D01*
Y0028698D01*
X0016931Y0028664D01*
X0016863D01*
X0016796Y0028698D01*
Y0028901D01*
X0016863Y0028935D01*
X0016931D01*
X0016999Y0028901D01*
X0016796Y0029129D02*
Y0029264D01*
Y0029197D02*
X0017202D01*
X0017135Y0029264D01*
X0016931Y0029763D02*
X0016863D01*
X0016796Y0029729D01*
Y0029594D01*
X0016863Y0029560D01*
X0017202D01*
Y0029526D02*
Y0029662D01*
X0017499Y0023948D02*
Y0024151D01*
X0017567Y0024185D01*
X0017635D01*
X0017702Y0024151D01*
Y0023948D01*
X0017635Y0023914D01*
X0017567D01*
X0017296Y0024049D01*
Y0024379D02*
Y0024514D01*
Y0024447D02*
X0017702D01*
X0017635Y0024514D01*
X0017431Y0025013D02*
X0017363D01*
X0017296Y0024979D01*
Y0024844D01*
X0017363Y0024810D01*
X0017702D01*
Y0024776D02*
Y0024912D01*
X0023000Y0002000D02*
Y0000000D01*
X0027000D01*
Y0002000D01*
X0023000D01*
X0027000D03*
X0022500Y0042500D02*
Y0043500D01*
X0027500D01*
Y0042500D01*
X0022500D01*
X0021500Y0043500D03*
X0024500Y0005500D02*
Y0004500D01*
X0026500D01*
Y0005500D01*
X0024500D01*
X0014370Y0042000D02*
X0014820D01*
Y0041850D01*
X0015220D01*
Y0042000D01*
X0015620D01*
Y0040000D01*
X0014370D01*
Y0042000D01*
X0016500Y0042500D02*
X0013500D01*
Y0043500D01*
X0016500D01*
Y0042500D01*
Y0033500D02*
Y0030500D01*
X0015500D01*
Y0033500D01*
X0016500D01*
X0022500Y0042500D02*
X0019500D01*
Y0043500D01*
X0022500D01*
Y0042500D01*
X0017490Y0014100D02*
Y0016910D01*
X0016510D01*
Y0014100D01*
X0017490D01*
X0007500Y0004500D02*
Y0003500D01*
X0009000Y0047000D02*
X0008000D01*
X0025510Y0010900D02*
Y0008090D01*
X0026490D01*
Y0010900D01*
X0025510D01*
X0028500Y0003500D02*
Y0023500D01*
X0027500D01*
Y0003500D01*
X0028500D01*
X0008500Y0047500D02*
Y0046500D01*
X0037000Y0054000D02*
Y0053000D01*
X0038750Y0054500D02*
X0037750D01*
X0038250Y0055000D02*
Y0054000D01*
X0039000Y0046000D02*
X0038000D01*
X0038500Y0046500D02*
Y0045500D01*
X0028500Y0023500D02*
Y0043500D01*
X0027500D01*
Y0023500D01*
X0028500D01*
X0039000Y0003500D02*
X0038000D01*
X0038500Y0004000D02*
Y0003000D01*
X0016200Y0013200D02*
X0014800D01*
X0015900Y0013400D02*
X0015100D01*
X0038000Y0040500D02*
X0037000D01*
X0037500Y0041000D02*
Y0040000D01*
X0008000Y0004000D02*
X0007000D01*
X0016500Y0005500D02*
X0015500D01*
Y0010500D01*
X0016500D01*
Y0005500D01*
X0015500Y0004500D03*
X0016000Y0013300D02*
X0014900D01*
X0018500Y0043500D02*
Y0023500D01*
X0019500D01*
Y0043500D01*
X0018500D01*
X0016500Y0020500D02*
Y0026500D01*
X0015500D01*
Y0020500D01*
Y0017500D01*
X0016500D01*
Y0021000D01*
X0015500Y0027500D02*
X0016500D01*
Y0029500D01*
X0015500D01*
Y0027500D01*
X0016500Y0026500D03*
X0015500Y0020500D03*
X0037500Y0053500D02*
X0036500D01*
X0018500Y0023500D02*
Y0003500D01*
X0019500D01*
Y0023500D01*
X0018500D01*
G01X0014620Y0041638D02*
G03X0014732Y0041750I0000000J0000112D01*
G01X0014508D02*
G03X0014620Y0041638I0000112J0000000D01*
Y0041862D02*
G03X0014508Y0041750I0000000J0000112D01*
G01X0014732D02*
G03X0014620Y0041862I0000112J0000000D01*
G01X0015500Y0011439D02*
G03X0016561Y0012500I0000000J0001061D01*
G01X0014439D02*
G03X0015500Y0011439I0001061J0000000D01*
Y0013561D02*
G03X0014439Y0012500I0000000J0001061D01*
G01X0016561D02*
G03X0015500Y0013561I0001061J0000000D01*
G54D48*
G01X0033516Y0004902D02*
G03X0033795Y0005181I0000000J0000279D01*
G01X0033237D02*
G03X0033516Y0004902I0000279J0000000D01*
Y0005459D02*
G03X0033238Y0005181I0000000J0000278D01*
G01X0033794D02*
G03X0033516Y0005459I0000278J0000000D01*
Y0029309D02*
G03X0033795Y0029588I0000000J0000279D01*
G01X0033237D02*
G03X0033516Y0029309I0000279J0000000D01*
Y0029866D02*
G03X0033238Y0029588I0000000J0000278D01*
G01X0033794D02*
G03X0033516Y0029866I0000278J0000000D01*
G54D49*
G01X0035878Y0004787D02*
Y0029982D01*
X0033122D01*
Y0004787D01*
X0035878D01*
G54D50*
G01X0014150Y0042150D02*
X0014000Y0042000D01*
X0013850Y0042150D01*
X0014150D01*
G54D51*
G01X0034823Y0008538D02*
X0034735Y0008450D01*
X0034648Y0008406D01*
X0034473D01*
X0034385Y0008450D01*
X0034298Y0008538D01*
Y0008625D01*
X0034385Y0008713D01*
X0034473Y0008756D01*
X0034648D01*
X0034735Y0008713D01*
X0034823Y0008625D01*
Y0008538D01*
Y0008166D02*
Y0007816D01*
X0034473Y0008166D01*
X0034385D01*
X0034298Y0008122D01*
Y0007860D01*
X0034385Y0007816D01*
X0034648Y0007269D02*
X0034735D01*
X0034823Y0007313D01*
Y0007488D01*
X0034735Y0007532D01*
X0034298D01*
Y0007576D02*
Y0007401D01*
G54D52*
G01X0013117Y0041177D02*
Y0041310D01*
Y0041243D02*
X0013517D01*
X0013450Y0041310D01*
X0013517Y0041550D02*
X0013183D01*
X0013117Y0041583D01*
Y0041783D01*
X0013183Y0041817D01*
X0013517D01*
M02*
