*
G04 Mass Parameters ***
*
G04 Image ***
*
%IND:\ORCAD_G\PROJET_ORCAD9\HUGO\CARTE PUISSANCE\CARTE PUISSANCEV3.SST*%
%ICAS*%
%MOIN*%
%IPPOS*%
%ASAXBY*%
G74*%FSLAN2X34Y34*%
*
G04 Aperture Definitions ***
*
%ADD10C,0.0800*%
%ADD11R,0.0800X0.0800*%
%ADD12R,0.0850X0.0850*%
%ADD13C,0.0850*%
%ADD14C,0.1800*%
%ADD15C,0.1000*%
%ADD16C,0.0750*%
%ADD17R,0.0750X0.0750*%
%ADD18R,0.1800X0.1800*%
%ADD19O,0.0750X0.1100*%
%ADD20R,0.0750X0.1100*%
%ADD21O,0.1100X0.0550*%
%ADD22C,0.0050*%
%ADD23C,0.0100*%
%ADD24C,0.1500*%
%ADD25C,0.0800*%
%ADD26C,0.0400*%
%ADD27C,0.0800*%
%ADD28C,0.0200*%
%ADD29C,0.0118*%
%ADD30C,0.0170*%
%ADD31C,0.0140*%
%ADD32C,0.0140*%
%ADD33C,0.0800*%
%ADD34R,0.0800X0.0800*%
%ADD35R,0.0850X0.0850*%
%ADD36C,0.0850*%
%ADD37C,0.1800*%
%ADD38C,0.1000*%
%ADD39C,0.0750*%
%ADD40R,0.0750X0.0750*%
%ADD41R,0.1800X0.1800*%
%ADD42O,0.0750X0.1100*%
%ADD43R,0.0750X0.1100*%
%ADD44R,0.0630X0.0640*%
%ADD45O,0.1100X0.0550*%
%ADD46C,0.0150*%
%ADD47C,0.0140*%
%ADD48C,0.1500*%
%ADD49C,0.1300*%
%ADD50R,0.1300X0.1300*%
%ADD51C,0.0550*%
%ADD52C,0.0080*%
*
G04 Plot Data ***
*
G54D22*
G01X0003000Y0021000D02*
Y0022000D01*
X0025000D01*
Y0003000D01*
X0003000D01*
Y0021000D01*
G54D23*
G01X0015275Y0023708D02*
X0014942D01*
X0015275Y0024042D01*
Y0024125D01*
X0015233Y0024208D01*
X0014983D01*
X0014942Y0024125D01*
X0014450Y0023708D02*
X0014700Y0024208D01*
X0014367D01*
X0014042Y0023708D02*
X0014125D01*
Y0023792D01*
X0014042D01*
Y0023708D01*
X0013383Y0023792D02*
X0013425Y0023708D01*
X0013675D01*
X0013717Y0023792D01*
Y0023958D01*
X0013633Y0024042D01*
X0013383D01*
Y0024208D01*
X0013717D01*
X0013142Y0023875D02*
X0012808D01*
X0012975Y0024208D01*
X0013058D01*
Y0023708D01*
X-0000292Y0013192D02*
X-0000208Y0013275D01*
Y0013442D01*
X-0000292Y0013525D01*
X-0000375D01*
X-0000542Y0013358D01*
X-0000708Y0013525D01*
Y0013192D01*
X-0000458Y0012908D02*
X-0000542Y0012950D01*
X-0000625D01*
X-0000708Y0012908D01*
Y0012658D01*
X-0000625Y0012617D01*
X-0000542D01*
X-0000458Y0012658D01*
Y0012908D01*
X-0000375Y0012950D01*
X-0000292D01*
X-0000208Y0012908D01*
Y0012658D01*
X-0000292Y0012617D01*
X-0000375D01*
X-0000458Y0012658D01*
X-0000208Y0012292D02*
Y0012375D01*
X-0000292D01*
Y0012292D01*
X-0000208D01*
X-0000458Y0011675D02*
Y0011925D01*
X-0000375Y0011967D01*
X-0000292D01*
X-0000208Y0011925D01*
Y0011675D01*
X-0000292Y0011633D01*
X-0000375D01*
X-0000708Y0011800D01*
X-0000292Y0011058D02*
X-0000208Y0011142D01*
Y0011308D01*
X-0000292Y0011392D01*
X-0000375D01*
X-0000542Y0011225D01*
X-0000708Y0011392D01*
Y0011058D01*
X0001042Y0013483D02*
Y0013733D01*
X0001125Y0013775D01*
X0001208D01*
X0001292Y0013733D01*
Y0013483D01*
X0001208Y0013442D01*
X0001125D01*
X0000792Y0013608D01*
X0001292Y0013200D02*
Y0012867D01*
X0000958Y0013200D01*
X0000875D01*
X0000792Y0013158D01*
Y0012908D01*
X0000875Y0012867D01*
X0001292Y0012542D02*
Y0012625D01*
X0001208D01*
Y0012542D01*
X0001292D01*
X0001042Y0012175D02*
X0000958Y0012217D01*
X0000875D01*
X0000792Y0012175D01*
Y0011925D01*
X0000875Y0011883D01*
X0000958D01*
X0001042Y0011925D01*
Y0012175D01*
X0001125Y0012217D01*
X0001208D01*
X0001292Y0012175D01*
Y0011925D01*
X0001208Y0011883D01*
X0001125D01*
X0001042Y0011925D01*
X0001125Y0011642D02*
Y0011308D01*
X0000792Y0011475D01*
Y0011558D01*
X0001292D01*
X0015233Y0022958D02*
X0015275Y0023042D01*
Y0023125D01*
X0015233Y0023208D01*
X0014983D01*
X0014942Y0023125D01*
Y0023042D01*
X0014983Y0022958D01*
X0015233D01*
X0015275Y0022875D01*
Y0022792D01*
X0015233Y0022708D01*
X0014983D01*
X0014942Y0022792D01*
Y0022875D01*
X0014983Y0022958D01*
X0014658D02*
X0014700Y0023042D01*
Y0023125D01*
X0014658Y0023208D01*
X0014408D01*
X0014367Y0023125D01*
Y0023042D01*
X0014408Y0022958D01*
X0014658D01*
X0014700Y0022875D01*
Y0022792D01*
X0014658Y0022708D01*
X0014408D01*
X0014367Y0022792D01*
Y0022875D01*
X0014408Y0022958D01*
X0014042Y0022708D02*
X0014125D01*
Y0022792D01*
X0014042D01*
Y0022708D01*
X0013383Y0022792D02*
X0013425Y0022708D01*
X0013675D01*
X0013717Y0022792D01*
Y0022958D01*
X0013633Y0023042D01*
X0013383D01*
Y0023208D01*
X0013717D01*
X0012808Y0022792D02*
X0012850Y0022708D01*
X0013100D01*
X0013142Y0022792D01*
Y0022958D01*
X0013058Y0023042D01*
X0012808D01*
Y0023208D01*
X0013142D01*
X-0000687Y0018937D02*
X-0000500Y0019500D01*
X-0000312Y0018937D01*
X0000625Y0005000D02*
X-0001625D01*
X-0000500Y0010454D02*
Y0005000D01*
X-0000312Y0005562D02*
X-0000500Y0005000D01*
X-0000687Y0005562D01*
X0002125Y0022000D02*
X-0000125D01*
X0001000Y0014296D02*
Y0022000D01*
X0000812Y0021437D02*
X0001000Y0022000D01*
X0001187Y0021437D01*
X0002125Y0003000D02*
X-0000125D01*
X0001000Y0010704D02*
Y0003000D01*
X0001187Y0003562D02*
X0001000Y0003000D01*
X0000812Y0003562D01*
X0005000Y0025125D02*
Y0022875D01*
X0012204Y0024000D02*
X0005000D01*
X0005562Y0023812D02*
X0005000Y0024000D01*
X0005562Y0024187D01*
X0023000Y0025125D02*
Y0022875D01*
X0015796Y0024000D02*
X0023000D01*
X0022437Y0024187D02*
X0023000Y0024000D01*
X0022437Y0023812D01*
X0000625Y0019500D02*
X-0001625D01*
X0025000Y0021875D02*
Y0024125D01*
X0015796Y0023000D02*
X0025000D01*
X0024437Y0023187D02*
X0025000Y0023000D01*
X0024437Y0022812D01*
X0003000Y0021875D02*
Y0024125D01*
X0012204Y0023000D02*
X0003000D01*
X0003562Y0022812D02*
X0003000Y0023000D01*
X0003562Y0023187D01*
X-0000500Y0014046D02*
Y0019500D01*
G54D52*
G01X0015287Y0006382D02*
X0015182Y0006276D01*
Y0006065D01*
X0015287Y0005959D01*
X0015393D01*
X0015604Y0006171D01*
X0015815Y0005959D01*
Y0006382D01*
X0015499Y0006753D02*
X0015182Y0006594D01*
X0015499Y0007017D02*
Y0006700D01*
X0015604Y0006594D01*
X0015710D01*
X0015815Y0006700D01*
Y0007017D01*
X0015182D01*
X0004764Y0005799D02*
X0004597D01*
X0004570Y0005855D01*
Y0005910D01*
X0004597Y0005966D01*
X0004764D01*
X0004792Y0005910D01*
Y0005855D01*
X0004681Y0005632D01*
X0004382D02*
X0004271D01*
X0004326D02*
Y0005966D01*
X0004271Y0005910D01*
X0003833Y0005744D02*
Y0005688D01*
X0003861Y0005632D01*
X0003972D01*
X0004000Y0005688D01*
Y0005966D01*
X0004028D02*
X0003916D01*
X0024264Y0008799D02*
X0024292Y0008855D01*
Y0008910D01*
X0024264Y0008966D01*
X0024097D01*
X0024070Y0008910D01*
Y0008855D01*
X0024097Y0008799D01*
X0024264D01*
X0024292Y0008744D01*
Y0008688D01*
X0024264Y0008632D01*
X0024097D01*
X0024070Y0008688D01*
Y0008744D01*
X0024097Y0008799D01*
X0023882Y0008632D02*
X0023771D01*
X0023826D02*
Y0008966D01*
X0023771Y0008910D01*
X0023333Y0008744D02*
Y0008688D01*
X0023361Y0008632D01*
X0023472D01*
X0023500Y0008688D01*
Y0008966D01*
X0023528D02*
X0023416D01*
X0024125Y0011632D02*
X0024292Y0011966D01*
X0024070D01*
X0023882Y0011632D02*
X0023771D01*
X0023826D02*
Y0011966D01*
X0023771Y0011910D01*
X0023333Y0011744D02*
Y0011688D01*
X0023361Y0011632D01*
X0023472D01*
X0023500Y0011688D01*
Y0011966D01*
X0023528D02*
X0023416D01*
X0025271Y0021932D02*
X0025438Y0022266D01*
X0025215D01*
X0024833Y0022044D02*
Y0021988D01*
X0024861Y0021932D01*
X0024972D01*
X0025000Y0021988D01*
Y0022266D01*
X0025028D02*
X0024916D01*
X0016548Y0015636D02*
X0016514Y0015704D01*
X0016311D01*
X0016277Y0015636D01*
Y0015501D01*
X0016345Y0015433D01*
X0016548D01*
Y0015298D01*
X0016277D01*
X0016979Y0015704D02*
Y0015298D01*
X0017013Y0015704D02*
X0016810D01*
X0016742Y0015569D01*
Y0015433D01*
X0016810Y0015298D01*
X0017013D01*
X0020430Y0012818D02*
X0020641D01*
X0020536D02*
Y0012185D01*
X0020641Y0012290D01*
X0020959Y0012185D02*
Y0012712D01*
X0021012Y0012818D01*
X0021171Y0012501D01*
Y0012396D02*
Y0012501D01*
X0021329Y0012818D01*
X0021382Y0012712D01*
Y0012185D01*
X0021594Y0012290D02*
X0021647Y0012185D01*
X0021964D01*
X0022017Y0012290D01*
Y0012396D01*
X0021964Y0012501D01*
X0021647D01*
X0021594Y0012607D01*
Y0012712D01*
X0021647Y0012818D01*
X0021964D01*
X0022017Y0012712D01*
X0022910Y0013799D02*
X0022938Y0013855D01*
Y0013910D01*
X0022910Y0013966D01*
X0022743D01*
X0022715Y0013910D01*
Y0013855D01*
X0022743Y0013799D01*
X0022910D01*
X0022938Y0013744D01*
Y0013688D01*
X0022910Y0013632D01*
X0022743D01*
X0022715Y0013688D01*
Y0013744D01*
X0022743Y0013799D01*
X0022333Y0013744D02*
Y0013688D01*
X0022361Y0013632D01*
X0022472D01*
X0022500Y0013688D01*
Y0013966D01*
X0022528D02*
X0022416D01*
X0009768Y0018796D02*
X0009633D01*
X0009700D02*
Y0019202D01*
X0009633Y0019135D01*
X0009371Y0018796D02*
X0009235D01*
X0009303D02*
Y0019202D01*
X0009235Y0019135D01*
X0008737Y0018931D02*
Y0018863D01*
X0008770Y0018796D01*
X0008906D01*
X0008940Y0018863D01*
Y0019202D01*
X0008974D02*
X0008838D01*
X0004715Y0003688D02*
X0004743Y0003632D01*
X0004910D01*
X0004938Y0003688D01*
Y0003799D01*
X0004882Y0003855D01*
X0004715D01*
Y0003966D01*
X0004938D01*
X0004333Y0003744D02*
Y0003688D01*
X0004361Y0003632D01*
X0004472D01*
X0004500Y0003688D01*
Y0003966D01*
X0004528D02*
X0004416D01*
X0022938Y0003632D02*
X0022715D01*
X0022938Y0003855D01*
Y0003910D01*
X0022910Y0003966D01*
X0022743D01*
X0022715Y0003910D01*
X0022333Y0003744D02*
Y0003688D01*
X0022361Y0003632D01*
X0022472D01*
X0022500Y0003688D01*
Y0003966D01*
X0022528D02*
X0022416D01*
X0023070Y0006688D02*
X0023125Y0006632D01*
X0023236D01*
X0023292Y0006688D01*
Y0006744D01*
X0023181Y0006855D01*
X0023292Y0006966D01*
X0023070D01*
X0022882Y0006632D02*
X0022771D01*
X0022826D02*
Y0006966D01*
X0022771Y0006910D01*
X0022333Y0006744D02*
Y0006688D01*
X0022361Y0006632D01*
X0022472D01*
X0022500Y0006688D01*
Y0006966D01*
X0022528D02*
X0022416D01*
X0008916Y0020796D02*
X0008849Y0020863D01*
X0008815Y0020931D01*
Y0021067D01*
X0008849Y0021135D01*
X0008916Y0021202D01*
X0008984D01*
X0009052Y0021135D01*
X0009086Y0021067D01*
Y0020931D01*
X0009052Y0020863D01*
X0008984Y0020796D01*
X0008916D01*
X0008621D02*
X0008485D01*
X0008553D02*
Y0021202D01*
X0008485Y0021135D01*
X0007987Y0020931D02*
Y0020863D01*
X0008020Y0020796D01*
X0008156D01*
X0008190Y0020863D01*
Y0021202D01*
X0008224D02*
X0008088D01*
X0019431Y0006164D02*
Y0006435D01*
X0019702Y0006300D01*
Y0006232D01*
X0019296D01*
Y0006629D02*
Y0006764D01*
Y0006697D02*
X0019702D01*
X0019635Y0006764D01*
X0019431Y0007263D02*
X0019363D01*
X0019296Y0007229D01*
Y0007094D01*
X0019363Y0007060D01*
X0019702D01*
Y0007026D02*
Y0007162D01*
X0002243Y0001599D02*
X0002410D01*
X0002438Y0001544D01*
Y0001488D01*
X0002410Y0001432D01*
X0002243D01*
X0002215Y0001488D01*
Y0001544D01*
X0002326Y0001766D01*
X0001833Y0001544D02*
Y0001488D01*
X0001861Y0001432D01*
X0001972D01*
X0002000Y0001488D01*
Y0001766D01*
X0002028D02*
X0001916D01*
X0022938Y0017744D02*
X0022715D01*
X0022826Y0017966D01*
X0022882D01*
Y0017632D01*
X0022333Y0017744D02*
Y0017688D01*
X0022361Y0017632D01*
X0022472D01*
X0022500Y0017688D01*
Y0017966D01*
X0022528D02*
X0022416D01*
X0013099Y0017999D02*
X0013302D01*
X0013336Y0017931D01*
Y0017863D01*
X0013302Y0017796D01*
X0013099D01*
X0013065Y0017863D01*
Y0017931D01*
X0013200Y0018202D01*
X0012871Y0017796D02*
X0012735D01*
X0012803D02*
Y0018202D01*
X0012735Y0018135D01*
X0012237Y0017931D02*
Y0017863D01*
X0012270Y0017796D01*
X0012406D01*
X0012440Y0017863D01*
Y0018202D01*
X0012474D02*
X0012338D01*
X0021292Y0014632D02*
X0021070D01*
X0021292Y0014855D01*
Y0014910D01*
X0021264Y0014966D01*
X0021097D01*
X0021070Y0014910D01*
X0020882Y0014632D02*
X0020771D01*
X0020826D02*
Y0014966D01*
X0020771Y0014910D01*
X0020333Y0014744D02*
Y0014688D01*
X0020361Y0014632D01*
X0020472D01*
X0020500Y0014688D01*
Y0014966D01*
X0020528D02*
X0020416D01*
X0004715Y0017688D02*
X0004771Y0017632D01*
X0004882D01*
X0004938Y0017688D01*
Y0017744D01*
X0004826Y0017855D01*
X0004938Y0017966D01*
X0004715D01*
X0004333Y0017744D02*
Y0017688D01*
X0004361Y0017632D01*
X0004472D01*
X0004500Y0017688D01*
Y0017966D01*
X0004528D02*
X0004416D01*
X0013565Y0020363D02*
X0013599Y0020296D01*
X0013802D01*
X0013836Y0020363D01*
Y0020499D01*
X0013768Y0020567D01*
X0013565D01*
Y0020702D01*
X0013836D01*
X0013371Y0020296D02*
X0013235D01*
X0013303D02*
Y0020702D01*
X0013235Y0020635D01*
X0012737Y0020431D02*
Y0020363D01*
X0012770Y0020296D01*
X0012906D01*
X0012940Y0020363D01*
Y0020702D01*
X0012974D02*
X0012838D01*
X0006777Y0016069D02*
X0007048D01*
X0006913Y0015798D01*
X0006845D01*
Y0016204D01*
X0007344Y0016001D02*
X0007242Y0016204D01*
X0007513Y0016001D02*
X0007310D01*
X0007242Y0015933D01*
Y0015865D01*
X0007310Y0015798D01*
X0007513D01*
Y0016204D01*
X0022431Y0011377D02*
Y0011648D01*
X0022702Y0011513D01*
Y0011445D01*
X0022296D01*
Y0012079D02*
X0022702D01*
X0022296Y0012113D02*
Y0011910D01*
X0022431Y0011842D01*
X0022567D01*
X0022702Y0011910D01*
Y0012113D01*
X0017431Y0014877D02*
Y0015148D01*
X0017702Y0015013D01*
Y0014945D01*
X0017296D01*
X0017431Y0015478D02*
X0017296Y0015342D01*
X0017363Y0015613D02*
X0017296Y0015579D01*
Y0015444D01*
X0017363Y0015410D01*
X0017431Y0015342D01*
X0017635D01*
X0017702Y0015376D01*
Y0015579D01*
X0017635Y0015613D01*
X0017363D01*
X0018604Y0018755D02*
Y0018619D01*
Y0018687D02*
X0018198D01*
X0018265Y0018619D01*
X0018536Y0018358D02*
X0018604Y0018324D01*
Y0018120D01*
X0018536Y0018087D01*
X0018265D01*
X0018198Y0018120D01*
Y0018324D01*
X0018265Y0018358D01*
X0012204Y0014223D02*
Y0013952D01*
X0011933Y0014223D01*
X0011865D01*
X0011798Y0014189D01*
Y0013985D01*
X0011865Y0013952D01*
X0012001Y0013656D02*
X0012204Y0013758D01*
X0012001Y0013487D02*
Y0013690D01*
X0011933Y0013758D01*
X0011865D01*
X0011798Y0013690D01*
Y0013487D01*
X0012204D01*
X0017296Y0011945D02*
Y0012080D01*
Y0012013D02*
X0017702D01*
X0017635Y0012080D01*
X0017431Y0012478D02*
X0017296Y0012342D01*
X0017363Y0012613D02*
X0017296Y0012579D01*
Y0012444D01*
X0017363Y0012410D01*
X0017431Y0012342D01*
X0017635D01*
X0017702Y0012376D01*
Y0012579D01*
X0017635Y0012613D01*
X0017363D01*
X0020910Y0005799D02*
X0020743D01*
X0020715Y0005855D01*
Y0005910D01*
X0020743Y0005966D01*
X0020910D01*
X0020938Y0005910D01*
Y0005855D01*
X0020826Y0005632D01*
X0020333Y0005744D02*
Y0005688D01*
X0020361Y0005632D01*
X0020472D01*
X0020500Y0005688D01*
Y0005966D01*
X0020528D02*
X0020416D01*
X0011796Y0008877D02*
Y0009148D01*
X0012067Y0008877D01*
X0012135D01*
X0012202Y0008911D01*
Y0009114D01*
X0012135Y0009148D01*
X0011796Y0009579D02*
X0012202D01*
X0011796Y0009613D02*
Y0009410D01*
X0011931Y0009342D01*
X0012067D01*
X0012202Y0009410D01*
Y0009613D01*
X0017296Y0007877D02*
Y0008148D01*
X0017567Y0007877D01*
X0017635D01*
X0017702Y0007911D01*
Y0008114D01*
X0017635Y0008148D01*
X0017431Y0008478D02*
X0017296Y0008342D01*
X0017363Y0008613D02*
X0017296Y0008579D01*
Y0008444D01*
X0017363Y0008410D01*
X0017431Y0008342D01*
X0017635D01*
X0017702Y0008376D01*
Y0008579D01*
X0017635Y0008613D01*
X0017363D01*
X0007383Y0011540D02*
Y0011651D01*
Y0011596D02*
X0007716D01*
X0007660Y0011651D01*
X0007716Y0011894D02*
X0007438D01*
X0007383Y0011922D01*
Y0012089D01*
X0007438Y0012117D01*
X0007716D01*
X0018935Y0011182D02*
X0018724D01*
X0018829D02*
Y0011815D01*
X0018724Y0011710D01*
X0018405Y0011182D02*
Y0011815D01*
X0018300Y0011710D01*
X0018194Y0011499D01*
X0018089Y0011710D01*
X0017983Y0011815D01*
Y0011182D01*
X0011204Y0008155D02*
Y0008019D01*
Y0008087D02*
X0010798D01*
X0010865Y0008019D01*
X0011001Y0007656D02*
X0011204Y0007758D01*
X0011001Y0007487D02*
Y0007690D01*
X0010933Y0007758D01*
X0010865D01*
X0010798Y0007690D01*
Y0007487D01*
X0011204D01*
X0017363Y0010148D02*
X0017296Y0010080D01*
Y0009945D01*
X0017363Y0009877D01*
X0017431D01*
X0017567Y0010013D01*
X0017702Y0009877D01*
Y0010148D01*
X0017431Y0010478D02*
X0017296Y0010342D01*
X0017363Y0010613D02*
X0017296Y0010579D01*
Y0010444D01*
X0017363Y0010410D01*
X0017431Y0010342D01*
X0017635D01*
X0017702Y0010376D01*
Y0010579D01*
X0017635Y0010613D01*
X0017363D01*
X0010863Y0014148D02*
X0010796Y0014080D01*
Y0013945D01*
X0010863Y0013877D01*
X0010931D01*
X0011067Y0014013D01*
X0011202Y0013877D01*
Y0014148D01*
X0010796Y0014579D02*
X0011202D01*
X0010796Y0014613D02*
Y0014410D01*
X0010931Y0014342D01*
X0011067D01*
X0011202Y0014410D01*
Y0014613D01*
X0013000Y0003000D02*
X0015000D01*
Y0007000D01*
X0013000D01*
Y0003000D01*
Y0007000D03*
X0004500Y0006500D02*
Y0007500D01*
X0024500Y0010000D02*
X0023500D01*
X0024500Y0013000D02*
X0023500D01*
X0024000Y0012500D02*
Y0013500D01*
Y0009500D02*
Y0010500D01*
X0005000Y0007000D02*
X0004000D01*
X0016600Y0017400D02*
Y0016600D01*
X0016800Y0017700D02*
Y0016300D01*
X0016700Y0017500D02*
Y0016400D01*
X0022000Y0009000D02*
Y0011000D01*
X0018000D01*
Y0009000D01*
X0022000D01*
X0018000Y0015000D02*
Y0013000D01*
X0022000D01*
Y0015000D01*
X0018000D01*
X0022000D03*
X0005000Y0004500D02*
Y0005500D01*
X0023500Y0005000D02*
X0022500D01*
X0023000Y0004500D02*
Y0005500D01*
X0023500Y0008000D02*
X0022500D01*
X0023000Y0007500D02*
Y0008500D01*
X0011500Y0020000D02*
Y0019000D01*
X0006500D01*
Y0020000D01*
X0011500D01*
X0012500Y0019000D03*
X0018000Y0004000D02*
X0019000D01*
Y0006000D01*
X0018000D01*
Y0004000D01*
X0003000Y0002500D02*
X0002000D01*
X0002500Y0003000D02*
Y0002000D01*
X0023500Y0019000D02*
X0022500D01*
X0023000Y0018500D02*
Y0019500D01*
X0021000Y0006500D02*
Y0007500D01*
X0014500Y0016500D02*
Y0017500D01*
X0012500D01*
Y0016500D01*
X0014500D01*
X0021500Y0016000D02*
X0020500D01*
X0021000Y0015500D02*
Y0016500D01*
X0005500Y0019000D02*
X0004500D01*
X0005000Y0018500D02*
Y0019500D01*
X0012500Y0020000D02*
X0015500D01*
Y0019000D01*
X0012500D01*
Y0020000D01*
X0023500Y0015000D02*
X0022500D01*
X0023000Y0014500D02*
Y0015500D01*
X0008500Y0018500D02*
X0011500D01*
Y0017500D01*
X0008500D01*
Y0018500D01*
X0005500Y0005000D02*
X0004500D01*
X0026000Y0023000D02*
X0025000D01*
X0025500Y0023500D02*
Y0022500D01*
X0007900Y0016490D02*
X0005090D01*
Y0015510D01*
X0007900D01*
Y0016490D01*
X0023000Y0010500D02*
X0022000D01*
Y0012500D01*
X0023000D01*
Y0010500D01*
X0022500Y0013000D02*
Y0012500D01*
Y0010000D02*
Y0010500D01*
X0022000Y0012000D02*
X0023000D01*
X0017100Y0014800D02*
X0012900D01*
X0017100Y0015200D02*
Y0015400D01*
X0012900D01*
Y0015300D01*
X0017100Y0015400D03*
X0018900Y0018600D03*
Y0018400D01*
Y0018500D01*
X0019000D01*
X0018800D01*
X0012900Y0013350D02*
Y0011450D01*
X0017100D01*
Y0013350D01*
Y0012800D02*
X0012900D01*
X0017100Y0013200D02*
Y0013400D01*
X0012900D01*
Y0013300D01*
X0017100Y0013400D03*
X0012900Y0009350D02*
Y0007450D01*
X0017100D01*
Y0009350D01*
Y0008800D02*
X0012900D01*
X0017100Y0009200D02*
Y0009400D01*
X0012900D01*
Y0009300D01*
X0017100Y0009400D03*
X0012490Y0013100D02*
Y0015910D01*
X0011510D01*
Y0013100D01*
X0012490D01*
X0012900Y0011350D02*
Y0009450D01*
X0017100D01*
Y0011350D01*
X0021500Y0007000D02*
X0020500D01*
X0012500Y0008000D02*
X0011500D01*
Y0010000D01*
X0012500D01*
Y0008000D01*
X0012000Y0010500D02*
Y0010000D01*
Y0007500D02*
Y0008000D01*
X0011500Y0009500D02*
X0012500D01*
X0017100Y0010800D02*
X0012900D01*
X0017100Y0011200D02*
Y0011400D01*
X0012900D01*
Y0011300D01*
X0006500Y0007000D02*
X0008500D01*
Y0015000D01*
X0006500D01*
Y0007000D01*
X0007000Y0015000D02*
Y0014500D01*
X0008000D01*
Y0015000D01*
X0018000Y0009000D03*
X0011490Y0007100D02*
Y0009910D01*
X0010510D01*
Y0007100D01*
X0011490D01*
X0017100Y0011400D03*
X0012900Y0015350D02*
Y0013450D01*
X0017100D01*
Y0015350D01*
X0011500Y0013000D02*
X0010500D01*
Y0015000D01*
X0011500D01*
Y0013000D01*
X0011000Y0015500D02*
Y0015000D01*
Y0012500D02*
Y0013000D01*
X0010500Y0014500D02*
X0011500D01*
G01X0017500Y0015939D02*
G03X0018561Y0017000I0000000J0001061D01*
G01X0016439D02*
G03X0017500Y0015939I0001061J0000000D01*
Y0018061D02*
G03X0016439Y0017000I0000000J0001061D01*
G01X0018561D02*
G03X0017500Y0018061I0001061J0000000D01*
G01X0019500Y0017500D02*
G03X0021000Y0019000I0000000J0001500D01*
G01X0018000D02*
G03X0019500Y0017500I0001500J0000000D01*
Y0020500D02*
G03X0018000Y0019000I0000000J0001500D01*
G01X0021000D02*
G03X0019500Y0020500I0001500J0000000D01*
M02*
