*
G04 Mass Parameters ***
*
G04 Image ***
*
%IND:\ORCAD_G\PROJET_ORCAD9\HUGO\CARTE PUISSANCE\CARTE PUISSANCEV3.DRD*%
%ICAS*%
%MOIN*%
%IPPOS*%
%ASAXBY*%
G74*%FSLAN2X34Y34*%
*
G04 Aperture Definitions ***
*
%ADD10C,0.0800*%
%ADD11R,0.0800X0.0800*%
%ADD12R,0.0850X0.0850*%
%ADD13C,0.0850*%
%ADD14C,0.1800*%
%ADD15C,0.1000*%
%ADD16C,0.0750*%
%ADD17R,0.0750X0.0750*%
%ADD18R,0.1800X0.1800*%
%ADD19O,0.0750X0.1100*%
%ADD20R,0.0750X0.1100*%
%ADD21O,0.1100X0.0550*%
%ADD22C,0.0050*%
%ADD23C,0.0100*%
%ADD24C,0.1500*%
%ADD25C,0.0800*%
%ADD26C,0.0400*%
%ADD27C,0.0800*%
%ADD28C,0.0200*%
%ADD29C,0.0118*%
%ADD30C,0.0170*%
%ADD31C,0.0140*%
%ADD32C,0.0140*%
%ADD33C,0.0800*%
%ADD34R,0.0800X0.0800*%
%ADD35R,0.0850X0.0850*%
%ADD36C,0.0850*%
%ADD37C,0.1800*%
%ADD38C,0.1000*%
%ADD39C,0.0750*%
%ADD40R,0.0750X0.0750*%
%ADD41R,0.1800X0.1800*%
%ADD42O,0.0750X0.1100*%
%ADD43R,0.0750X0.1100*%
%ADD44R,0.0630X0.0640*%
%ADD45O,0.1100X0.0550*%
%ADD46C,0.0150*%
%ADD47C,0.0140*%
%ADD48C,0.1500*%
%ADD49C,0.1300*%
%ADD50R,0.1300X0.1300*%
%ADD51C,0.0550*%
%ADD52C,0.0080*%
*
G04 Plot Data ***
*
G54D22*
G01X0003000Y0021000D02*
Y0022000D01*
X0025000D01*
Y0003000D01*
X0003000D01*
Y0021000D01*
G54D23*
G01X0068708Y-0017333D02*
X0068375D01*
X0068542D02*
Y-0016333D01*
X0068375Y-0016500D01*
X0067842Y-0016833D02*
X0067925Y-0016667D01*
Y-0016500D01*
X0067842Y-0016333D01*
X0067342D01*
X0067258Y-0016500D01*
Y-0016667D01*
X0067342Y-0016833D01*
X0067842D01*
X0067925Y-0017000D01*
Y-0017167D01*
X0067842Y-0017333D01*
X0067342D01*
X0067258Y-0017167D01*
Y-0017000D01*
X0067342Y-0016833D01*
X0056312Y-0017333D02*
X0055729D01*
Y-0016333D01*
X0055446Y-0017000D02*
X0054779D01*
X0055446Y-0017333D02*
Y-0016833D01*
X0055196Y-0016333D01*
X0055029D01*
X0054779Y-0016833D01*
Y-0017333D01*
X0054162D02*
Y-0016333D01*
X0054496D02*
X0053829D01*
X0052962Y-0017333D02*
X0052879Y-0017167D01*
Y-0016500D01*
X0052962Y-0016333D01*
X0053462D01*
X0053546Y-0016500D01*
Y-0017167D01*
X0053462Y-0017333D01*
X0052962D01*
X0052262D02*
Y-0016333D01*
X0052596D02*
X0051929D01*
X0068708Y-0015472D02*
X0068486D01*
X0068597D02*
Y-0014806D01*
X0068486Y-0014917D01*
X0068119Y-0015472D02*
X0067897D01*
X0068008D02*
Y-0014806D01*
X0067897Y-0014917D01*
X0054814Y-0015472D02*
X0054703Y-0015361D01*
X0054647Y-0015250D01*
Y-0015028D01*
X0054703Y-0014917D01*
X0054814Y-0014806D01*
X0054925D01*
X0055036Y-0014917D01*
X0055092Y-0015028D01*
Y-0015250D01*
X0055036Y-0015361D01*
X0054925Y-0015472D01*
X0054814D01*
X0053947Y-0015361D02*
X0054058Y-0015472D01*
X0054280D01*
X0054392Y-0015361D01*
Y-0015250D01*
X0054169Y-0015028D01*
X0054392Y-0014806D01*
X0053947D01*
X0053692Y-0015472D02*
X0053469D01*
X0053580D02*
Y-0014806D01*
X0053469Y-0014917D01*
X0052992Y-0015472D02*
X0053103D01*
Y-0015361D01*
X0052992D01*
Y-0015472D01*
X0052347D02*
X0052236Y-0015361D01*
X0052181Y-0015250D01*
Y-0015028D01*
X0052236Y-0014917D01*
X0052347Y-0014806D01*
X0052458D01*
X0052569Y-0014917D01*
X0052625Y-0015028D01*
Y-0015250D01*
X0052569Y-0015361D01*
X0052458Y-0015472D01*
X0052347D01*
X0068708Y-0013972D02*
X0068264D01*
X0068708Y-0013528D01*
Y-0013417D01*
X0068653Y-0013306D01*
X0068319D01*
X0068264Y-0013417D01*
X0054814Y-0013972D02*
X0054703Y-0013861D01*
X0054647Y-0013750D01*
Y-0013528D01*
X0054703Y-0013417D01*
X0054814Y-0013306D01*
X0054925D01*
X0055036Y-0013417D01*
X0055092Y-0013528D01*
Y-0013750D01*
X0055036Y-0013861D01*
X0054925Y-0013972D01*
X0054814D01*
X0054336Y-0013639D02*
X0054392Y-0013528D01*
Y-0013417D01*
X0054336Y-0013306D01*
X0054003D01*
X0053947Y-0013417D01*
Y-0013528D01*
X0054003Y-0013639D01*
X0054336D01*
X0054392Y-0013750D01*
Y-0013861D01*
X0054336Y-0013972D01*
X0054003D01*
X0053947Y-0013861D01*
Y-0013750D01*
X0054003Y-0013639D01*
X0053414Y-0013972D02*
X0053303Y-0013861D01*
X0053247Y-0013750D01*
Y-0013528D01*
X0053303Y-0013417D01*
X0053414Y-0013306D01*
X0053525D01*
X0053636Y-0013417D01*
X0053692Y-0013528D01*
Y-0013750D01*
X0053636Y-0013861D01*
X0053525Y-0013972D01*
X0053414D01*
X0052881D02*
X0052992D01*
Y-0013861D01*
X0052881D01*
Y-0013972D01*
X0052236D02*
X0052125Y-0013861D01*
X0052069Y-0013750D01*
Y-0013528D01*
X0052125Y-0013417D01*
X0052236Y-0013306D01*
X0052347D01*
X0052458Y-0013417D01*
X0052514Y-0013528D01*
Y-0013750D01*
X0052458Y-0013861D01*
X0052347Y-0013972D01*
X0052236D01*
X0068708Y-0012472D02*
X0068264D01*
X0068708Y-0012028D01*
Y-0011917D01*
X0068653Y-0011806D01*
X0068319D01*
X0068264Y-0011917D01*
X0068008Y-0012472D02*
X0067786D01*
X0067897D02*
Y-0011806D01*
X0067786Y-0011917D01*
X0055092Y-0012250D02*
X0054647D01*
X0054869Y-0011806D01*
X0054980D01*
Y-0012472D01*
X0053947Y-0012361D02*
X0054003Y-0012472D01*
X0054336D01*
X0054392Y-0012361D01*
Y-0012139D01*
X0054280Y-0012028D01*
X0053947D01*
Y-0011806D01*
X0054392D01*
X0053414Y-0012472D02*
X0053303Y-0012361D01*
X0053247Y-0012250D01*
Y-0012028D01*
X0053303Y-0011917D01*
X0053414Y-0011806D01*
X0053525D01*
X0053636Y-0011917D01*
X0053692Y-0012028D01*
Y-0012250D01*
X0053636Y-0012361D01*
X0053525Y-0012472D01*
X0053414D01*
X0052881D02*
X0052992D01*
Y-0012361D01*
X0052881D01*
Y-0012472D01*
X0052236D02*
X0052125Y-0012361D01*
X0052069Y-0012250D01*
Y-0012028D01*
X0052125Y-0011917D01*
X0052236Y-0011806D01*
X0052347D01*
X0052458Y-0011917D01*
X0052514Y-0012028D01*
Y-0012250D01*
X0052458Y-0012361D01*
X0052347Y-0012472D01*
X0052236D01*
X0068319Y-0010639D02*
X0068653D01*
X0068708Y-0010750D01*
Y-0010861D01*
X0068653Y-0010972D01*
X0068319D01*
X0068264Y-0010861D01*
Y-0010750D01*
X0068486Y-0010306D01*
X0054647Y-0010861D02*
X0054703Y-0010972D01*
X0055036D01*
X0055092Y-0010861D01*
Y-0010639D01*
X0054980Y-0010528D01*
X0054647D01*
Y-0010306D01*
X0055092D01*
X0054392Y-0010750D02*
X0053947D01*
X0054169Y-0010306D01*
X0054280D01*
Y-0010972D01*
X0053414D02*
X0053303Y-0010861D01*
X0053247Y-0010750D01*
Y-0010528D01*
X0053303Y-0010417D01*
X0053414Y-0010306D01*
X0053525D01*
X0053636Y-0010417D01*
X0053692Y-0010528D01*
Y-0010750D01*
X0053636Y-0010861D01*
X0053525Y-0010972D01*
X0053414D01*
X0052881D02*
X0052992D01*
Y-0010861D01*
X0052881D01*
Y-0010972D01*
X0052236D02*
X0052125Y-0010861D01*
X0052069Y-0010750D01*
Y-0010528D01*
X0052125Y-0010417D01*
X0052236Y-0010306D01*
X0052347D01*
X0052458Y-0010417D01*
X0052514Y-0010528D01*
Y-0010750D01*
X0052458Y-0010861D01*
X0052347Y-0010972D01*
X0052236D01*
X0068375Y-0009472D02*
X0068708Y-0008806D01*
X0068264D01*
X0068008Y-0009472D02*
X0067564D01*
X0068008Y-0009028D01*
Y-0008917D01*
X0067953Y-0008806D01*
X0067619D01*
X0067564Y-0008917D01*
X0054814Y-0009472D02*
X0054703Y-0009361D01*
X0054647Y-0009250D01*
Y-0009028D01*
X0054703Y-0008917D01*
X0054814Y-0008806D01*
X0054925D01*
X0055036Y-0008917D01*
X0055092Y-0009028D01*
Y-0009250D01*
X0055036Y-0009361D01*
X0054925Y-0009472D01*
X0054814D01*
X0054392Y-0009250D02*
X0053947D01*
X0054169Y-0008806D01*
X0054280D01*
Y-0009472D01*
X0053414D02*
X0053303Y-0009361D01*
X0053247Y-0009250D01*
Y-0009028D01*
X0053303Y-0008917D01*
X0053414Y-0008806D01*
X0053525D01*
X0053636Y-0008917D01*
X0053692Y-0009028D01*
Y-0009250D01*
X0053636Y-0009361D01*
X0053525Y-0009472D01*
X0053414D01*
X0052881D02*
X0052992D01*
Y-0009361D01*
X0052881D01*
Y-0009472D01*
X0052236D02*
X0052125Y-0009361D01*
X0052069Y-0009250D01*
Y-0009028D01*
X0052125Y-0008917D01*
X0052236Y-0008806D01*
X0052347D01*
X0052458Y-0008917D01*
X0052514Y-0009028D01*
Y-0009250D01*
X0052458Y-0009361D01*
X0052347Y-0009472D01*
X0052236D01*
X0068319Y-0007639D02*
X0068653D01*
X0068708Y-0007750D01*
Y-0007861D01*
X0068653Y-0007972D01*
X0068319D01*
X0068264Y-0007861D01*
Y-0007750D01*
X0068486Y-0007306D01*
X0068008Y-0007972D02*
X0067786D01*
X0067897D02*
Y-0007306D01*
X0067786Y-0007417D01*
X0054647Y-0007861D02*
X0054703Y-0007972D01*
X0055036D01*
X0055092Y-0007861D01*
Y-0007639D01*
X0054980Y-0007528D01*
X0054647D01*
Y-0007306D01*
X0055092D01*
X0053947Y-0007861D02*
X0054058Y-0007972D01*
X0054280D01*
X0054392Y-0007861D01*
Y-0007750D01*
X0054169Y-0007528D01*
X0054392Y-0007306D01*
X0053947D01*
X0053414Y-0007972D02*
X0053303Y-0007861D01*
X0053247Y-0007750D01*
Y-0007528D01*
X0053303Y-0007417D01*
X0053414Y-0007306D01*
X0053525D01*
X0053636Y-0007417D01*
X0053692Y-0007528D01*
Y-0007750D01*
X0053636Y-0007861D01*
X0053525Y-0007972D01*
X0053414D01*
X0052881D02*
X0052992D01*
Y-0007861D01*
X0052881D01*
Y-0007972D01*
X0052236D02*
X0052125Y-0007861D01*
X0052069Y-0007750D01*
Y-0007528D01*
X0052125Y-0007417D01*
X0052236Y-0007306D01*
X0052347D01*
X0052458Y-0007417D01*
X0052514Y-0007528D01*
Y-0007750D01*
X0052458Y-0007861D01*
X0052347Y-0007972D01*
X0052236D01*
X0068708Y-0006472D02*
X0068264D01*
X0068708Y-0006028D01*
Y-0005917D01*
X0068653Y-0005806D01*
X0068319D01*
X0068264Y-0005917D01*
X0055092Y-0006472D02*
X0054647D01*
X0055092Y-0006028D01*
Y-0005917D01*
X0055036Y-0005806D01*
X0054703D01*
X0054647Y-0005917D01*
X0053947Y-0006361D02*
X0054058Y-0006472D01*
X0054280D01*
X0054392Y-0006361D01*
Y-0006250D01*
X0054169Y-0006028D01*
X0054392Y-0005806D01*
X0053947D01*
X0053414Y-0006472D02*
X0053303Y-0006361D01*
X0053247Y-0006250D01*
Y-0006028D01*
X0053303Y-0005917D01*
X0053414Y-0005806D01*
X0053525D01*
X0053636Y-0005917D01*
X0053692Y-0006028D01*
Y-0006250D01*
X0053636Y-0006361D01*
X0053525Y-0006472D01*
X0053414D01*
X0052881D02*
X0052992D01*
Y-0006361D01*
X0052881D01*
Y-0006472D01*
X0052236D02*
X0052125Y-0006361D01*
X0052069Y-0006250D01*
Y-0006028D01*
X0052125Y-0005917D01*
X0052236Y-0005806D01*
X0052347D01*
X0052458Y-0005917D01*
X0052514Y-0006028D01*
Y-0006250D01*
X0052458Y-0006361D01*
X0052347Y-0006472D01*
X0052236D01*
X0068264Y-0004861D02*
X0068319Y-0004972D01*
X0068653D01*
X0068708Y-0004861D01*
Y-0004639D01*
X0068597Y-0004528D01*
X0068264D01*
Y-0004306D01*
X0068708D01*
X0055036Y-0004639D02*
X0055092Y-0004528D01*
Y-0004417D01*
X0055036Y-0004306D01*
X0054703D01*
X0054647Y-0004417D01*
Y-0004528D01*
X0054703Y-0004639D01*
X0055036D01*
X0055092Y-0004750D01*
Y-0004861D01*
X0055036Y-0004972D01*
X0054703D01*
X0054647Y-0004861D01*
Y-0004750D01*
X0054703Y-0004639D01*
X0054392Y-0004972D02*
X0053947D01*
X0054392Y-0004528D01*
Y-0004417D01*
X0054336Y-0004306D01*
X0054003D01*
X0053947Y-0004417D01*
X0053414Y-0004972D02*
X0053303Y-0004861D01*
X0053247Y-0004750D01*
Y-0004528D01*
X0053303Y-0004417D01*
X0053414Y-0004306D01*
X0053525D01*
X0053636Y-0004417D01*
X0053692Y-0004528D01*
Y-0004750D01*
X0053636Y-0004861D01*
X0053525Y-0004972D01*
X0053414D01*
X0052881D02*
X0052992D01*
Y-0004861D01*
X0052881D01*
Y-0004972D01*
X0052236D02*
X0052125Y-0004861D01*
X0052069Y-0004750D01*
Y-0004528D01*
X0052125Y-0004417D01*
X0052236Y-0004306D01*
X0052347D01*
X0052458Y-0004417D01*
X0052514Y-0004528D01*
Y-0004750D01*
X0052458Y-0004861D01*
X0052347Y-0004972D01*
X0052236D01*
X0077112Y-0002833D02*
X0076612D01*
X0077279Y-0003333D02*
X0076612D01*
Y-0002333D01*
X0077279D01*
X0075996Y-0003333D02*
Y-0002333D01*
X0076329D02*
X0075662D01*
X0074796Y-0003333D02*
X0074712Y-0003167D01*
Y-0002500D01*
X0074796Y-0002333D01*
X0075296D01*
X0075379Y-0002500D01*
Y-0003167D01*
X0075296Y-0003333D01*
X0074796D01*
X0074429Y-0002333D02*
Y-0003333D01*
X0074262Y-0003167D01*
X0073929Y-0002500D01*
X0073762Y-0002333D01*
Y-0003333D01*
X0067925D02*
Y-0002833D01*
X0068258Y-0002333D02*
X0068008Y-0002833D01*
X0067842D01*
X0067592Y-0002333D01*
X0066975Y-0003333D02*
Y-0002333D01*
X0067308D02*
X0066642D01*
X0066025Y-0003000D02*
X0066358Y-0003333D01*
X0065692Y-0003167D02*
X0065775Y-0003333D01*
X0066108D01*
X0066192Y-0003167D01*
X0066358Y-0003000D01*
Y-0002500D01*
X0066275Y-0002333D01*
X0065775D01*
X0065692Y-0002500D01*
Y-0003167D01*
X0061408Y-0003333D02*
X0060825D01*
Y-0002333D01*
X0059958Y-0003333D02*
X0059875Y-0003167D01*
Y-0002500D01*
X0059958Y-0002333D01*
X0060458D01*
X0060542Y-0002500D01*
Y-0003167D01*
X0060458Y-0003333D01*
X0059958D01*
X0059258D02*
Y-0002333D01*
X0059592D02*
X0058925D01*
X0053587Y-0003333D02*
Y-0002333D01*
X0053421Y-0002500D01*
X0053254Y-0002833D01*
X0053087Y-0002500D01*
X0052921Y-0002333D01*
Y-0003333D01*
X0052637Y-0003000D02*
X0051971D01*
X0052637Y-0003333D02*
Y-0002833D01*
X0052387Y-0002333D01*
X0052221D01*
X0051971Y-0002833D01*
Y-0003333D01*
X0051687D02*
X0051354D01*
X0051521D02*
Y-0002333D01*
X0051687D02*
X0051354D01*
X0050321Y-0003333D02*
Y-0002333D01*
X0050237Y-0003333D02*
X0050737D01*
X0050904Y-0003000D01*
Y-0002667D01*
X0050737Y-0002333D01*
X0050237D01*
X0047150Y-0003333D02*
Y-0002333D01*
X0046983Y-0002500D01*
X0046817Y-0002833D01*
X0046650Y-0002500D01*
X0046483Y-0002333D01*
Y-0003333D01*
X0045867D02*
Y-0002833D01*
X0046200Y-0002333D02*
X0045950Y-0002833D01*
X0045783D01*
X0045533Y-0002333D01*
X0045250Y-0002500D02*
X0045167Y-0002333D01*
X0044667D01*
X0044583Y-0002500D01*
Y-0002667D01*
X0044667Y-0002833D01*
X0045167D01*
X0045250Y-0003000D01*
Y-0003167D01*
X0045167Y-0003333D01*
X0044667D01*
X0044583Y-0003167D01*
X0067437Y-0001333D02*
Y-0000333D01*
X0067771D02*
X0067104D01*
X0066571Y-0000833D02*
X0066821Y-0001333D01*
X0066154Y-0000833D02*
X0066654D01*
X0066821Y-0000667D01*
Y-0000500D01*
X0066654Y-0000333D01*
X0066154D01*
Y-0001333D01*
X0065871Y-0001000D02*
X0065204D01*
X0065871Y-0001333D02*
Y-0000833D01*
X0065621Y-0000333D01*
X0065454D01*
X0065204Y-0000833D01*
Y-0001333D01*
X0064921Y-0000833D02*
X0064254D01*
X0064921Y-0001333D02*
Y-0000333D01*
X0064254Y-0001333D02*
Y-0000333D01*
X0063971Y-0001167D02*
X0063887Y-0001333D01*
X0063387D01*
X0063304Y-0001167D01*
Y-0000500D01*
X0063387Y-0000333D01*
X0063887D01*
X0063971Y-0000500D01*
X0061696Y-0001333D02*
X0061112D01*
Y-0000333D01*
X0060829Y-0001333D02*
X0060246D01*
Y-0000333D01*
X0059962Y-0001333D02*
X0059629D01*
X0059796D02*
Y-0000333D01*
X0059962D02*
X0059629D01*
X0058929Y-0000833D02*
X0059179Y-0001333D01*
X0058512Y-0000833D02*
X0059012D01*
X0059179Y-0000667D01*
Y-0000500D01*
X0059012Y-0000333D01*
X0058512D01*
Y-0001333D01*
X0057646D02*
Y-0000333D01*
X0057562Y-0001333D02*
X0058062D01*
X0058229Y-0001000D01*
Y-0000667D01*
X0058062Y-0000333D01*
X0057562D01*
X0009750Y0015350D02*
Y0015150D01*
X0009900Y0015500D02*
X0009750Y0015350D01*
X0010100Y0015500D02*
X0009900D01*
X0010250Y0015350D02*
X0010100Y0015500D01*
X0010250Y0015150D02*
Y0015350D01*
X0010100Y0015000D02*
X0010250Y0015150D01*
X0009900Y0015000D02*
X0010100D01*
X0009750Y0015150D02*
X0009900Y0015000D01*
X0007750Y0015350D02*
Y0015150D01*
X0007900Y0015500D02*
X0007750Y0015350D01*
X0008100Y0015500D02*
X0007900D01*
X0008250Y0015350D02*
X0008100Y0015500D01*
X0008250Y0015150D02*
Y0015350D01*
X0008100Y0015000D02*
X0008250Y0015150D01*
X0007900Y0015000D02*
X0008100D01*
X0007750Y0015150D02*
X0007900Y0015000D01*
X0017250Y0019350D02*
Y0019150D01*
X0017400Y0019500D02*
X0017250Y0019350D01*
X0017600Y0019500D02*
X0017400D01*
X0017750Y0019350D02*
X0017600Y0019500D01*
X0017750Y0019150D02*
Y0019350D01*
X0017600Y0019000D02*
X0017750Y0019150D01*
X0017400Y0019000D02*
X0017600D01*
X0017250Y0019150D02*
X0017400Y0019000D01*
X0006750Y0017100D02*
Y0016900D01*
X0006900Y0017250D02*
X0006750Y0017100D01*
X0007100Y0017250D02*
X0006900D01*
X0007250Y0017100D02*
X0007100Y0017250D01*
X0007250Y0016900D02*
Y0017100D01*
X0007100Y0016750D02*
X0007250Y0016900D01*
X0006900Y0016750D02*
X0007100D01*
X0006750Y0016900D02*
X0006900Y0016750D01*
X0008750Y0017100D02*
Y0016900D01*
X0008900Y0017250D02*
X0008750Y0017100D01*
X0009100Y0017250D02*
X0008900D01*
X0009250Y0017100D02*
X0009100Y0017250D01*
X0009250Y0016900D02*
Y0017100D01*
X0009100Y0016750D02*
X0009250Y0016900D01*
X0008900Y0016750D02*
X0009100D01*
X0008750Y0016900D02*
X0008900Y0016750D01*
X0045575Y-0015000D02*
Y-0015250D01*
X0045825Y-0015000D02*
X0045575D01*
X0045825Y-0015500D02*
Y-0015000D01*
X0046075Y-0015500D02*
X0045825D01*
X0046075Y-0015250D02*
Y-0015500D01*
X0045575Y-0015250D02*
X0046075D01*
X0045825Y-0013600D02*
X0045575Y-0013850D01*
X0046075D02*
X0045825Y-0013600D01*
X0045575Y-0013850D02*
X0046075D01*
X0045575Y-0012000D02*
Y-0012500D01*
X0046075Y-0012000D02*
X0045575D01*
X0046075Y-0012500D02*
Y-0012000D01*
X0045575Y-0012500D02*
X0046075D01*
Y-0012250D02*
X0045575D01*
X0045825Y-0012000D02*
Y-0012500D01*
Y-0010500D02*
X0045575Y-0010750D01*
X0046075D02*
X0045825Y-0010500D01*
Y-0011000D02*
X0046075Y-0010750D01*
X0045575D02*
X0045825Y-0011000D01*
X0046075Y-0009250D02*
X0045575D01*
X0045825Y-0009000D02*
Y-0009500D01*
X0046075Y-0007500D02*
X0045575Y-0008000D01*
X0046075D02*
X0045575Y-0007500D01*
Y-0006000D02*
Y-0006500D01*
X0046075Y-0006000D02*
X0045575D01*
X0046075Y-0006500D02*
Y-0006000D01*
X0045575Y-0006500D02*
X0046075D01*
Y-0006000D02*
X0045575Y-0006500D01*
X0046075D02*
X0045575Y-0006000D01*
Y-0004650D02*
Y-0004850D01*
X0045725Y-0004500D02*
X0045575Y-0004650D01*
X0045925Y-0004500D02*
X0045725D01*
X0046075Y-0004650D02*
X0045925Y-0004500D01*
X0046075Y-0004850D02*
Y-0004650D01*
X0045925Y-0005000D02*
X0046075Y-0004850D01*
X0045725Y-0005000D02*
X0045925D01*
X0045575Y-0004850D02*
X0045725Y-0005000D01*
X0081300Y-0018050D02*
X0043950D01*
X0081250Y-0018000D02*
X0044000D01*
X0081250Y-0016000D02*
X0044000D01*
X0081250Y-0014500D02*
X0044000D01*
X0081250Y-0013000D02*
X0044000D01*
X0081250Y-0011500D02*
X0044000D01*
X0081250Y-0010000D02*
X0044000D01*
X0081250Y-0008500D02*
X0044000D01*
X0081250Y-0007000D02*
X0044000D01*
X0081250Y-0005500D02*
X0044000D01*
X0081250Y-0004000D02*
X0044000D01*
X0081250Y-0003950D02*
X0044000D01*
X0081250Y-0002000D02*
X0044000D01*
X0081250Y-0001950D02*
X0044000D01*
X0081250Y0000000D02*
X0044000D01*
X0081300Y0000050D02*
X0043950D01*
X0081300Y-0018000D02*
Y0000000D01*
X0081250Y-0018000D02*
Y0000000D01*
X0069708Y-0018000D02*
Y-0002000D01*
X0064158Y-0018000D02*
Y-0002000D01*
X0056092Y-0016000D02*
Y-0002000D01*
X0047700Y-0016000D02*
Y-0002000D01*
X0047650Y-0016000D02*
Y-0002000D01*
X0043950Y-0018000D02*
Y0000000D01*
X0044000Y-0018000D02*
Y0000000D01*
X0006250Y0014250D02*
X0005750Y0013750D01*
X0006250D02*
X0005750Y0014250D01*
X0006250Y0013250D02*
X0005750Y0012750D01*
X0006250D02*
X0005750Y0013250D01*
X0006250Y0012250D02*
X0005750Y0011750D01*
X0006250D02*
X0005750Y0012250D01*
X0006250Y0011250D02*
X0005750Y0010750D01*
X0006250D02*
X0005750Y0011250D01*
X0006250Y0010250D02*
X0005750Y0009750D01*
X0006250D02*
X0005750Y0010250D01*
X0006250Y0009250D02*
X0005750Y0008750D01*
X0006250D02*
X0005750Y0009250D01*
X0006250Y0008250D02*
X0005750Y0007750D01*
X0006250D02*
X0005750Y0008250D01*
X0009250D02*
X0008750Y0007750D01*
X0009250D02*
X0008750Y0008250D01*
X0009250Y0009250D02*
X0008750Y0008750D01*
X0009250D02*
X0008750Y0009250D01*
X0009250Y0010250D02*
X0008750Y0009750D01*
X0009250D02*
X0008750Y0010250D01*
X0009250Y0011250D02*
X0008750Y0010750D01*
X0009250D02*
X0008750Y0011250D01*
X0009250Y0012250D02*
X0008750Y0011750D01*
X0009250D02*
X0008750Y0012250D01*
X0009250Y0013250D02*
X0008750Y0012750D01*
X0009250D02*
X0008750Y0013250D01*
X0009250Y0014250D02*
X0008750Y0013750D01*
X0009250D02*
X0008750Y0014250D01*
X0021250Y0014000D02*
X0020750D01*
X0021000Y0014250D02*
Y0013750D01*
X0019250Y0014000D02*
X0018750D01*
X0019000Y0014250D02*
Y0013750D01*
X0009000Y0016250D02*
X0008750Y0016000D01*
X0009250D02*
X0009000Y0016250D01*
Y0015750D02*
X0009250Y0016000D01*
X0008750D02*
X0009000Y0015750D01*
X0004000Y0016250D02*
X0003750Y0016000D01*
X0004250D02*
X0004000Y0016250D01*
Y0015750D02*
X0004250Y0016000D01*
X0003750D02*
X0004000Y0015750D01*
X0014250Y0006000D02*
X0013750D01*
X0014000Y0006250D02*
Y0005750D01*
X0014250Y0004000D02*
X0013750D01*
X0014000Y0004250D02*
Y0003750D01*
X0012000Y0012250D02*
X0011750Y0012000D01*
X0012250D02*
X0012000Y0012250D01*
Y0011750D02*
X0012250Y0012000D01*
X0011750D02*
X0012000Y0011750D01*
Y0017250D02*
X0011750Y0017000D01*
X0012250D02*
X0012000Y0017250D01*
Y0016750D02*
X0012250Y0017000D01*
X0011750D02*
X0012000Y0016750D01*
X0011000Y0006250D02*
X0010750Y0006000D01*
X0011250D02*
X0011000Y0006250D01*
Y0005750D02*
X0011250Y0006000D01*
X0010750D02*
X0011000Y0005750D01*
Y0011250D02*
X0010750Y0011000D01*
X0011250D02*
X0011000Y0011250D01*
Y0010750D02*
X0011250Y0011000D01*
X0010750D02*
X0011000Y0010750D01*
X0013750Y0014250D02*
Y0013750D01*
X0014250Y0014250D02*
X0013750D01*
X0014250Y0013750D02*
Y0014250D01*
X0013750Y0013750D02*
X0014250D01*
Y0014000D02*
X0013750D01*
X0014000Y0014250D02*
Y0013750D01*
X0014750Y0014250D02*
Y0013750D01*
X0015250Y0014250D02*
X0014750D01*
X0015250Y0013750D02*
Y0014250D01*
X0014750Y0013750D02*
X0015250D01*
Y0014000D02*
X0014750D01*
X0015000Y0014250D02*
Y0013750D01*
X0015750Y0014250D02*
Y0013750D01*
X0016250Y0014250D02*
X0015750D01*
X0016250Y0013750D02*
Y0014250D01*
X0015750Y0013750D02*
X0016250D01*
Y0014000D02*
X0015750D01*
X0016000Y0014250D02*
Y0013750D01*
X0013750Y0010250D02*
Y0009750D01*
X0014250Y0010250D02*
X0013750D01*
X0014250Y0009750D02*
Y0010250D01*
X0013750Y0009750D02*
X0014250D01*
Y0010000D02*
X0013750D01*
X0014000Y0010250D02*
Y0009750D01*
X0014750Y0010250D02*
Y0009750D01*
X0015250Y0010250D02*
X0014750D01*
X0015250Y0009750D02*
Y0010250D01*
X0014750Y0009750D02*
X0015250D01*
Y0010000D02*
X0014750D01*
X0015000Y0010250D02*
Y0009750D01*
X0015750Y0010250D02*
Y0009750D01*
X0016250Y0010250D02*
X0015750D01*
X0016250Y0009750D02*
Y0010250D01*
X0015750Y0009750D02*
X0016250D01*
Y0010000D02*
X0015750D01*
X0016000Y0010250D02*
Y0009750D01*
X0013750Y0008250D02*
Y0007750D01*
X0014250Y0008250D02*
X0013750D01*
X0014250Y0007750D02*
Y0008250D01*
X0013750Y0007750D02*
X0014250D01*
Y0008000D02*
X0013750D01*
X0014000Y0008250D02*
Y0007750D01*
X0014750Y0008250D02*
Y0007750D01*
X0015250Y0008250D02*
X0014750D01*
X0015250Y0007750D02*
Y0008250D01*
X0014750Y0007750D02*
X0015250D01*
Y0008000D02*
X0014750D01*
X0015000Y0008250D02*
Y0007750D01*
X0015750Y0008250D02*
Y0007750D01*
X0016250Y0008250D02*
X0015750D01*
X0016250Y0007750D02*
Y0008250D01*
X0015750Y0007750D02*
X0016250D01*
Y0008000D02*
X0015750D01*
X0016000Y0008250D02*
Y0007750D01*
X0013750Y0012250D02*
Y0011750D01*
X0014250Y0012250D02*
X0013750D01*
X0014250Y0011750D02*
Y0012250D01*
X0013750Y0011750D02*
X0014250D01*
Y0012000D02*
X0013750D01*
X0014000Y0012250D02*
Y0011750D01*
X0014750Y0012250D02*
Y0011750D01*
X0015250Y0012250D02*
X0014750D01*
X0015250Y0011750D02*
Y0012250D01*
X0014750Y0011750D02*
X0015250D01*
Y0012000D02*
X0014750D01*
X0015000Y0012250D02*
Y0011750D01*
X0015750Y0012250D02*
Y0011750D01*
X0016250Y0012250D02*
X0015750D01*
X0016250Y0011750D02*
Y0012250D01*
X0015750Y0011750D02*
X0016250D01*
Y0012000D02*
X0015750D01*
X0016000Y0012250D02*
Y0011750D01*
X0019250Y0010000D02*
X0018750D01*
X0019000Y0010250D02*
Y0009750D01*
X0021250Y0010000D02*
X0020750D01*
X0021000Y0010250D02*
Y0009750D01*
X0004250Y0007250D02*
Y0007000D01*
X0004500Y0007250D02*
X0004250D01*
X0004500Y0006750D02*
Y0007250D01*
X0004750Y0006750D02*
X0004500D01*
X0004750Y0007000D02*
Y0006750D01*
X0004250Y0007000D02*
X0004750D01*
X0023750Y0010250D02*
Y0010000D01*
X0024000Y0010250D02*
X0023750D01*
X0024000Y0009750D02*
Y0010250D01*
X0024250Y0009750D02*
X0024000D01*
X0024250Y0010000D02*
Y0009750D01*
X0023750Y0010000D02*
X0024250D01*
X0023750Y0013250D02*
Y0013000D01*
X0024000Y0013250D02*
X0023750D01*
X0024000Y0012750D02*
Y0013250D01*
X0024250Y0012750D02*
X0024000D01*
X0024250Y0013000D02*
Y0012750D01*
X0023750Y0013000D02*
X0024250D01*
X0013250Y0017000D02*
X0012750D01*
X0013000Y0017250D02*
Y0016750D01*
X0014250Y0017000D02*
X0013750D01*
X0014000Y0017250D02*
Y0016750D01*
X0013250Y0019500D02*
X0012750D01*
X0013000Y0019750D02*
Y0019250D01*
X0014250Y0019500D02*
X0013750D01*
X0014000Y0019750D02*
Y0019250D01*
X0015250Y0019500D02*
X0014750D01*
X0015000Y0019750D02*
Y0019250D01*
X0018750Y0005500D02*
X0018250D01*
X0018500Y0005750D02*
Y0005250D01*
X0018750Y0004500D02*
X0018250D01*
X0018500Y0004750D02*
Y0004250D01*
X0022750Y0008250D02*
Y0008000D01*
X0023000Y0008250D02*
X0022750D01*
X0023000Y0007750D02*
Y0008250D01*
X0023250Y0007750D02*
X0023000D01*
X0023250Y0008000D02*
Y0007750D01*
X0022750Y0008000D02*
X0023250D01*
X0020750Y0016250D02*
Y0016000D01*
X0021000Y0016250D02*
X0020750D01*
X0021000Y0015750D02*
Y0016250D01*
X0021250Y0015750D02*
X0021000D01*
X0021250Y0016000D02*
Y0015750D01*
X0020750Y0016000D02*
X0021250D01*
X0009250Y0018000D02*
X0008750D01*
X0009000Y0018250D02*
Y0017750D01*
X0010250Y0018000D02*
X0009750D01*
X0010000Y0018250D02*
Y0017750D01*
X0011250Y0018000D02*
X0010750D01*
X0011000Y0018250D02*
Y0017750D01*
X0007250Y0019500D02*
X0006750D01*
X0007000Y0019750D02*
Y0019250D01*
X0008250Y0019500D02*
X0007750D01*
X0008000Y0019750D02*
Y0019250D01*
X0009250Y0019500D02*
X0008750D01*
X0009000Y0019750D02*
Y0019250D01*
X0010250Y0019500D02*
X0009750D01*
X0010000Y0019750D02*
Y0019250D01*
X0011250Y0019500D02*
X0010750D01*
X0011000Y0019750D02*
Y0019250D01*
X0020750Y0007250D02*
Y0007000D01*
X0021000Y0007250D02*
X0020750D01*
X0021000Y0006750D02*
Y0007250D01*
X0021250Y0006750D02*
X0021000D01*
X0021250Y0007000D02*
Y0006750D01*
X0020750Y0007000D02*
X0021250D01*
X0022750Y0015250D02*
Y0015000D01*
X0023000Y0015250D02*
X0022750D01*
X0023000Y0014750D02*
Y0015250D01*
X0023250Y0014750D02*
X0023000D01*
X0023250Y0015000D02*
Y0014750D01*
X0022750Y0015000D02*
X0023250D01*
X0025500Y0023150D02*
X0025250Y0022900D01*
X0025750D02*
X0025500Y0023150D01*
X0025250Y0022900D02*
X0025750D01*
X0002500Y0002650D02*
X0002250Y0002400D01*
X0002750D02*
X0002500Y0002650D01*
X0002250Y0002400D02*
X0002750D01*
X0004750Y0005250D02*
Y0005000D01*
X0005000Y0005250D02*
X0004750D01*
X0005000Y0004750D02*
Y0005250D01*
X0005250Y0004750D02*
X0005000D01*
X0005250Y0005000D02*
Y0004750D01*
X0004750Y0005000D02*
X0005250D01*
X0022750Y0019250D02*
Y0019000D01*
X0023000Y0019250D02*
X0022750D01*
X0023000Y0018750D02*
Y0019250D01*
X0023250Y0018750D02*
X0023000D01*
X0023250Y0019000D02*
Y0018750D01*
X0022750Y0019000D02*
X0023250D01*
X0004750Y0019250D02*
Y0019000D01*
X0005000Y0019250D02*
X0004750D01*
X0005000Y0018750D02*
Y0019250D01*
X0005250Y0018750D02*
X0005000D01*
X0005250Y0019000D02*
Y0018750D01*
X0004750Y0019000D02*
X0005250D01*
X0022750Y0005250D02*
Y0005000D01*
X0023000Y0005250D02*
X0022750D01*
X0023000Y0004750D02*
Y0005250D01*
X0023250Y0004750D02*
X0023000D01*
X0023250Y0005000D02*
Y0004750D01*
X0022750Y0005000D02*
X0023250D01*
X0018250Y0017250D02*
X0017750Y0016750D01*
X0018250D02*
X0017750Y0017250D01*
X0017250D02*
X0016750Y0016750D01*
X0017250D02*
X0016750Y0017250D01*
X0022750Y0013500D02*
X0022250D01*
X0022500Y0013750D02*
Y0013250D01*
X0022750Y0009500D02*
X0022250D01*
X0022500Y0009750D02*
Y0009250D01*
X0011250Y0016000D02*
X0010750D01*
X0011000Y0016250D02*
Y0015750D01*
X0011250Y0012000D02*
X0010750D01*
X0011000Y0012250D02*
Y0011750D01*
X0012250Y0011000D02*
X0011750D01*
X0012000Y0011250D02*
Y0010750D01*
X0012250Y0007000D02*
X0011750D01*
X0012000Y0007250D02*
Y0006750D01*
X0019250Y0018250D02*
Y0017750D01*
X0019750Y0018250D02*
X0019250D01*
X0019750Y0017750D02*
Y0018250D01*
X0019250Y0017750D02*
X0019750D01*
Y0018250D02*
X0019250Y0017750D01*
X0019750D02*
X0019250Y0018250D01*
Y0020250D02*
Y0019750D01*
X0019750Y0020250D02*
X0019250D01*
X0019750Y0019750D02*
Y0020250D01*
X0019250Y0019750D02*
X0019750D01*
Y0020250D02*
X0019250Y0019750D01*
X0019750D02*
X0019250Y0020250D01*
M02*
