*
G04 Mass Parameters ***
*
G04 Image ***
*
%IND:\ORCAD_G\PROJET_ORCAD9\HUGO\CARTE PUISSANCE\CARTE PUISSANCEV3.BOT*%
%ICAS*%
%MOIN*%
%IPPOS*%
%ASAXBY*%
G74*%FSLAN2X34Y34*%
*
G04 Aperture Definitions ***
*
%ADD10C,0.0800*%
%ADD11R,0.0800X0.0800*%
%ADD12R,0.0850X0.0850*%
%ADD13C,0.0850*%
%ADD14C,0.1800*%
%ADD15C,0.1000*%
%ADD16C,0.0750*%
%ADD17R,0.0750X0.0750*%
%ADD18R,0.1800X0.1800*%
%ADD19O,0.0750X0.1100*%
%ADD20R,0.0750X0.1100*%
%ADD21O,0.1100X0.0550*%
%ADD22C,0.0050*%
%ADD23C,0.0100*%
%ADD24C,0.1500*%
%ADD25C,0.0800*%
%ADD26C,0.0400*%
%ADD27C,0.0800*%
%ADD28C,0.0200*%
%ADD29C,0.0118*%
%ADD30C,0.0170*%
%ADD31C,0.0140*%
%ADD32C,0.0140*%
%ADD33C,0.0800*%
%ADD34R,0.0800X0.0800*%
%ADD35R,0.0850X0.0850*%
%ADD36C,0.0850*%
%ADD37C,0.1800*%
%ADD38C,0.1000*%
%ADD39C,0.0750*%
%ADD40R,0.0750X0.0750*%
%ADD41R,0.1800X0.1800*%
%ADD42O,0.0750X0.1100*%
%ADD43R,0.0750X0.1100*%
%ADD44R,0.0630X0.0640*%
%ADD45O,0.1100X0.0550*%
%ADD46C,0.0150*%
%ADD47C,0.0140*%
*
G04 Plot Data ***
*
G54D22*
G01X0003000Y0021000D02*
Y0022000D01*
X0025000D01*
Y0003000D01*
X0003000D01*
Y0021000D01*
G54D25*
G01X0019000Y0014000D02*
Y0015000D01*
X0018500Y0015500D01*
X0018000D01*
X0023000Y0015000D02*
Y0014000D01*
X0022500Y0013500D01*
X0021000Y0016000D02*
X0023000D01*
Y0015000D01*
X0019500Y0018000D02*
Y0017500D01*
X0021000Y0016000D01*
X0012250Y0004000D02*
X0014000D01*
X0022500Y0009500D02*
X0023250D01*
X0024000Y0010250D01*
Y0010000D01*
X0022500Y0009500D02*
X0023000Y0009000D01*
Y0008000D01*
X0016000Y0014000D02*
Y0014500D01*
X0017000Y0015500D01*
X0018000D01*
X0023000Y0008000D02*
X0022000D01*
X0021000Y0007000D01*
X0022500Y0013500D02*
X0023000Y0013000D01*
X0024000D01*
X0021000Y0010000D02*
Y0011250D01*
X0020250Y0012000D01*
X0018250D01*
X0017250Y0013000D01*
X0015250D01*
X0015000Y0013250D01*
Y0014000D01*
X0021000Y0007000D02*
Y0004500D01*
X0020500Y0004000D01*
X0014000D01*
X0015000Y0008000D02*
Y0008750D01*
X0015250Y0009000D01*
X0016750D01*
X0017500Y0008250D01*
X0020000D01*
X0021000Y0009250D01*
Y0010000D01*
X0018500Y0004500D02*
X0019000Y0004000D01*
X0014000D01*
X0018500D02*
X0014000D01*
Y0006000D02*
X0015000D01*
X0016000Y0007000D01*
Y0008000D01*
X0015000Y0010000D02*
Y0011000D01*
X0017000D01*
X0018000Y0010000D01*
X0019000D01*
X0015000Y0012000D02*
Y0010000D01*
X0021000Y0016000D02*
Y0014000D01*
X0014000Y0006000D02*
X0014500Y0005500D01*
X0018500D01*
G54D26*
G01X0006000Y0010000D02*
X0006750D01*
X0007000Y0010250D01*
Y0011750D01*
X0007500Y0012250D01*
Y0014500D01*
X0008000Y0015000D01*
Y0016000D01*
X0009000D01*
X0008000Y0019500D02*
Y0016000D01*
X0009000D01*
X0010000Y0018000D02*
Y0015250D01*
X0008000D02*
Y0016000D01*
X0009000D01*
X0018000Y0015500D02*
Y0017000D01*
X0017500Y0019250D02*
X0018750D01*
X0019500Y0018500D01*
Y0018000D01*
X0016500Y0019850D02*
Y0020500D01*
X0019000D01*
X0019500Y0020000D01*
X0006000Y0008000D02*
X0005000D01*
X0004000Y0009000D01*
Y0016000D01*
X0004500Y0007000D02*
X0004000Y0007500D01*
X0004750D01*
X0005250Y0008000D01*
X0006000D01*
Y0007000D01*
X0008250Y0004750D01*
X0011500D01*
X0012250Y0004000D01*
X0004000Y0016000D02*
Y0017750D01*
X0003500Y0018250D01*
Y0020000D01*
X0004000Y0020500D01*
X0010500D01*
X0011000Y0020000D01*
Y0019500D01*
X0012000Y0020500D01*
X0016500D01*
Y0019850D01*
X0018000Y0015500D02*
Y0017000D01*
X0009000Y0016000D02*
X0008000D01*
Y0015000D01*
X0007500Y0014500D01*
Y0012250D01*
X0007000Y0011750D01*
Y0010250D01*
X0006750Y0010000D01*
X0006000D01*
X0009000Y0009000D02*
X0009750D01*
X0010500Y0008250D01*
Y0007500D01*
X0011000Y0007000D01*
Y0006000D01*
Y0019500D02*
Y0018000D01*
Y0016000D02*
X0013000Y0014000D01*
X0014000D01*
X0018500Y0004500D02*
Y0004000D01*
X0011000Y0012000D02*
X0009000D01*
Y0008000D02*
X0008500D01*
X0007000Y0009500D01*
Y0010000D01*
X0006000D01*
X0014000Y0019500D02*
Y0017000D01*
Y0008000D02*
X0011750D01*
X0009750Y0010000D01*
X0009000D01*
X0012000Y0011000D02*
X0013750D01*
X0014000Y0011250D01*
Y0012000D01*
X0012000Y0007000D02*
X0011000D01*
Y0006000D01*
X0013000Y0019500D02*
Y0017000D01*
X0007000Y0019500D02*
Y0017000D01*
X0004750Y0014750D01*
Y0013500D01*
X0005250Y0013000D01*
X0006000D01*
X0007000Y0019500D02*
Y0017000D01*
X0009000D02*
Y0018000D01*
X0012000Y0017000D02*
X0011000Y0016000D01*
X0012000Y0012000D02*
X0011000D01*
X0009000Y0019500D02*
Y0018000D01*
X0010000Y0019500D02*
Y0018000D01*
X0014000Y0010000D02*
X0010750D01*
X0009750Y0011000D01*
X0009000D01*
X0012000D02*
X0011000D01*
X0016500Y0018500D02*
X0017000D01*
Y0017000D01*
G54D46*
G01X0006075Y0003283D02*
X0006308D01*
X0006347Y0003361D01*
Y0003516D01*
X0006308Y0003594D01*
X0006075D01*
X0006036Y0003516D01*
Y0003439D01*
X0006347D01*
X0006686Y0003594D02*
X0006919D01*
X0006958Y0003516D01*
Y0003361D01*
X0006919Y0003283D01*
X0006686D01*
X0007297D02*
Y0003516D01*
X0007336Y0003594D01*
X0007569D01*
Y0003283D01*
X0008141Y0003594D02*
X0007986D01*
X0007947Y0003516D01*
Y0003361D01*
X0007908Y0003283D01*
X0008180D01*
X0008219Y0003361D01*
X0008180Y0003439D01*
X0007947D01*
X0008597Y0003594D02*
X0008830D01*
X0008869Y0003516D01*
X0008830Y0003439D01*
X0008597D01*
X0008558Y0003361D01*
X0008597Y0003283D01*
X0008830D01*
X0009247Y0003594D02*
X0009480D01*
X0009519Y0003516D01*
X0009480Y0003439D01*
X0009247D01*
X0009208Y0003361D01*
X0009247Y0003283D01*
X0009480D01*
X0009936Y0003749D02*
Y0003750D01*
X0009935D01*
Y0003749D01*
X0009936D01*
X0009858Y0003283D02*
X0010013D01*
X0009936D02*
Y0003594D01*
X0010013D01*
X0010430D02*
Y0003283D01*
X0010391D02*
X0010663D01*
X0010702Y0003361D01*
Y0003594D01*
X0011313Y0003127D02*
Y0003594D01*
X0011080D01*
X0011041Y0003516D01*
Y0003361D01*
X0011080Y0003283D01*
X0011313D01*
X0007519Y0006283D02*
X0007752D01*
X0007791Y0006361D01*
Y0006516D01*
X0007752Y0006594D01*
X0007519D01*
X0007480Y0006516D01*
Y0006439D01*
X0007791D01*
X0008169Y0006594D02*
X0008402D01*
X0008130Y0006283D02*
X0008286D01*
X0008324Y0006361D01*
Y0006750D01*
X0008741Y0006594D02*
X0008897D01*
X0008935Y0006516D01*
X0009013D01*
Y0006594D02*
Y0006283D01*
X0009585Y0006594D02*
X0009430D01*
X0009391Y0006516D01*
Y0006361D01*
X0009352Y0006283D01*
X0009624D01*
X0009663Y0006361D01*
X0009624Y0006439D01*
X0009391D01*
X0010002Y0006361D02*
X0010041Y0006283D01*
X0010274D01*
X0010313Y0006361D01*
Y0006672D01*
X0010274Y0006750D01*
X0010041D01*
X0010002Y0006672D01*
G54D27*
X0010000Y0015250D03*
X0008000D03*
X0017500Y0019250D03*
X0007000Y0017000D03*
X0009000D03*
G54D33*
X0008000Y0019500D03*
X0009000D03*
X0010000D03*
X0011000D03*
X0017000Y0017000D03*
X0019500Y0020000D03*
G54D34*
X0007000Y0019500D03*
X0018000Y0017000D03*
X0019500Y0018000D03*
G54D35*
X0013000Y0019500D03*
X0009000Y0018000D03*
X0022500Y0009500D03*
X0011000Y0012000D03*
X0012000Y0007000D03*
G54D36*
X0009000Y0016000D03*
X0004000D03*
X0012000Y0012000D03*
Y0017000D03*
X0011000Y0006000D03*
Y0011000D03*
X0014000Y0019500D03*
X0015000D03*
X0010000Y0018000D03*
X0011000D03*
X0022500Y0013500D03*
X0011000Y0016000D03*
X0012000Y0011000D03*
G54D37*
X0019000Y0014000D03*
X0014000Y0004000D03*
X0021000Y0010000D03*
X0004500Y0007000D03*
X0024000Y0010000D03*
Y0013000D03*
X0023000Y0008000D03*
X0021000Y0016000D03*
Y0007000D03*
X0023000Y0015000D03*
X0005000Y0005000D03*
X0023000Y0019000D03*
X0005000D03*
X0023000Y0005000D03*
G54D38*
X0025500Y0023000D03*
X0002500Y0002500D03*
G54D39*
X0014000Y0017000D03*
X0018500Y0004500D03*
G54D40*
X0013000Y0017000D03*
X0018500Y0005500D03*
G54D41*
X0021000Y0014000D03*
X0014000Y0006000D03*
X0019000Y0010000D03*
G54D42*
X0015000Y0014000D03*
X0016000D03*
X0015000Y0010000D03*
X0016000D03*
X0015000Y0008000D03*
X0016000D03*
X0015000Y0012000D03*
X0016000D03*
G54D43*
X0014000Y0014000D03*
Y0010000D03*
Y0008000D03*
Y0012000D03*
G54D44*
X0016500Y0018500D03*
Y0019850D03*
G54D45*
X0006000Y0014000D03*
Y0013000D03*
Y0012000D03*
Y0011000D03*
Y0010000D03*
Y0009000D03*
Y0008000D03*
X0009000D03*
Y0009000D03*
Y0010000D03*
Y0011000D03*
Y0012000D03*
Y0013000D03*
Y0014000D03*
G54D31*
%LPC*%
X0010000Y0015250D03*
X0008000D03*
X0017500Y0019250D03*
X0007000Y0017000D03*
X0009000D03*
%LPD*%
G54D47*
%LPC*%
X0006000Y0014000D03*
Y0013000D03*
Y0012000D03*
Y0011000D03*
Y0010000D03*
Y0009000D03*
Y0008000D03*
X0009000D03*
Y0009000D03*
Y0010000D03*
Y0011000D03*
Y0012000D03*
Y0013000D03*
Y0014000D03*
X0021000D03*
X0019000D03*
X0009000Y0016000D03*
X0004000D03*
X0014000Y0006000D03*
Y0004000D03*
X0012000Y0012000D03*
Y0017000D03*
X0011000Y0006000D03*
Y0011000D03*
X0014000Y0014000D03*
X0015000D03*
X0016000D03*
X0014000Y0010000D03*
X0015000D03*
X0016000D03*
X0014000Y0008000D03*
X0015000D03*
X0016000D03*
X0014000Y0012000D03*
X0015000D03*
X0016000D03*
X0019000Y0010000D03*
X0021000D03*
X0004500Y0007000D03*
X0024000Y0010000D03*
Y0013000D03*
X0013000Y0017000D03*
X0014000D03*
X0013000Y0019500D03*
X0014000D03*
X0015000D03*
X0018500Y0005500D03*
Y0004500D03*
X0023000Y0008000D03*
X0021000Y0016000D03*
X0009000Y0018000D03*
X0010000D03*
X0011000D03*
X0007000Y0019500D03*
X0008000D03*
X0009000D03*
X0010000D03*
X0011000D03*
X0021000Y0007000D03*
X0023000Y0015000D03*
X0025500Y0023000D03*
X0002500Y0002500D03*
X0005000Y0005000D03*
X0023000Y0019000D03*
X0005000D03*
X0023000Y0005000D03*
X0018000Y0017000D03*
X0017000D03*
X0022500Y0013500D03*
Y0009500D03*
X0011000Y0016000D03*
Y0012000D03*
X0012000Y0011000D03*
Y0007000D03*
X0019500Y0018000D03*
Y0020000D03*
%LPD*%
M02*
