%
T1C0.0280F200S100
X007000Y017000
X008000Y015250
X009000Y017000
X010000Y015250
X017500Y019250
T5C0.0450F200S100
X004000Y016000
X009000Y016000
X011000Y006000
X011000Y011000
X012000Y012000
X012000Y017000
T3C0.0350F200S100
X006000Y008000
X006000Y009000
X006000Y010000
X006000Y011000
X006000Y012000
X006000Y013000
X006000Y014000
X009000Y008000
X009000Y009000
X009000Y010000
X009000Y011000
X009000Y012000
X009000Y013000
X009000Y014000
X017000Y017000
X018000Y017000
T4C0.0400F200S100
X007000Y019500
X008000Y019500
X009000Y018000
X010000Y018000
X010000Y019500
X009000Y019500
X011000Y012000
X011000Y016000
X011000Y018000
X011000Y019500
X012000Y007000
X012000Y011000
X013000Y017000
X013000Y019500
X014000Y004000
X014000Y006000
X014000Y017000
X014000Y019500
X015000Y019500
X018500Y004500
X018500Y005500
X019000Y010000
X021000Y010000
X021000Y014000
X019000Y014000
X022500Y009500
X022500Y013500
T6C0.0540F200S100
X014000Y008000
X015000Y008000
X015000Y010000
X014000Y010000
X014000Y012000
X015000Y012000
X015000Y014000
X014000Y014000
X016000Y008000
X016000Y010000
X016000Y012000
X016000Y014000
T2C0.0320F200S100
X019500Y018000
X019500Y020000
T8C0.1300F200S100
X004500Y007000
X005000Y005000
X005000Y019000
X021000Y007000
X023000Y005000
X023000Y008000
X023000Y015000
X021000Y016000
X023000Y019000
X024000Y010000
X024000Y013000
T7C0.0800F200S100
X002500Y002500
X025500Y023000
M30
